<svg width="85" height="85" viewBox="0 0 85 85" fill="none" xmlns="http://www.w3.org/2000/svg">
<path d="M42.4994 84.5837C19.2567 84.5837 0.416016 65.743 0.416016 42.5003C0.416016 19.2577 19.2567 0.416992 42.4994 0.416992C65.742 0.416992 84.5827 19.2577 84.5827 42.5003C84.5827 65.743 65.742 84.5837 42.4994 84.5837ZM42.4994 76.167C51.4283 76.167 59.9916 72.62 66.3053 66.3063C72.619 59.9925 76.166 51.4293 76.166 42.5003C76.166 33.5714 72.619 25.0081 66.3053 18.6944C59.9916 12.3807 51.4283 8.83366 42.4994 8.83366C33.5704 8.83366 25.0071 12.3807 18.6934 18.6944C12.3797 25.0081 8.83268 33.5714 8.83268 42.5003C8.83268 51.4293 12.3797 59.9925 18.6934 66.3063C25.0071 72.62 33.5704 76.167 42.4994 76.167ZM21.4577 40.3962L59.3327 25.667L44.6035 63.5504L38.291 46.7087L21.4577 40.3962Z" fill="#CA000F"/>
</svg>
