<svg width="101" height="101" viewBox="0 0 101 101" fill="none" xmlns="http://www.w3.org/2000/svg">
<path d="M60.579 62.5707C60.8029 62.4086 60.977 62.1871 61.0816 61.9312C61.1862 61.6753 61.2171 61.3953 61.1708 61.1228L59.5434 51.6343L66.4358 44.9154C66.6333 44.7228 66.773 44.4788 66.8392 44.2109C66.9053 43.9431 66.8952 43.6621 66.8101 43.3997C66.7249 43.1372 66.5681 42.9039 66.3573 42.7259C66.1465 42.5479 65.8901 42.4324 65.6172 42.3924L56.0892 41.0115L51.8303 32.3792C51.7077 32.1318 51.5185 31.9235 51.2839 31.7779C51.0494 31.6323 50.7788 31.5552 50.5027 31.5552C50.2266 31.5552 49.956 31.6323 49.7214 31.7779C49.4868 31.9235 49.2976 32.1318 49.1751 32.3792L44.9161 41.0115L35.3882 42.3924C35.1152 42.4324 34.8588 42.5479 34.648 42.7259C34.4372 42.9039 34.2804 43.1372 34.1953 43.3997C34.1101 43.6621 34.1 43.9431 34.1662 44.2109C34.2323 44.4788 34.372 44.7228 34.5695 44.9154L41.462 51.6343L39.8345 61.1228C39.7878 61.3949 39.8181 61.6746 39.922 61.9304C40.0259 62.1862 40.1994 62.4077 40.4227 62.5701C40.646 62.7324 40.9102 62.8291 41.1856 62.849C41.4609 62.869 41.7364 62.8116 41.9808 62.6832L50.5007 58.2032L59.0226 62.6832C59.2665 62.8122 59.5417 62.8701 59.8169 62.8502C60.0921 62.8303 60.3562 62.7335 60.579 62.5707ZM56.9178 50.0581C56.7465 50.2259 56.6184 50.4328 56.5445 50.6609C56.4707 50.889 56.4532 51.1316 56.4936 51.368L57.7443 58.6668L51.1892 55.2206C50.9763 55.1085 50.7393 55.0499 50.4987 55.0499C50.2581 55.0499 50.0212 55.1085 49.8083 55.2206L43.2532 58.6668L44.5038 51.368C44.5443 51.1316 44.5268 50.889 44.4529 50.6609C44.3791 50.4328 44.251 50.2259 44.0797 50.0581L38.7752 44.8898L46.1056 43.8246C46.343 43.7899 46.5683 43.6979 46.7621 43.5567C46.9559 43.4154 47.1125 43.2291 47.2182 43.0138L50.5007 36.3719L53.7793 43.0138C53.885 43.2291 54.0415 43.4154 54.2353 43.5567C54.4292 43.6979 54.6545 43.7899 54.8918 43.8246L62.2222 44.8898L56.9178 50.0581Z" fill="#CA000F"/>
<path d="M78.1695 68.0349C76.1041 68.6267 73.0584 69.546 69.9593 70.4968C69.9837 70.4077 70.0195 70.3222 70.0658 70.2423L70.413 69.6604C70.5517 69.4238 70.7776 69.2509 71.0423 69.1791C73.3424 68.5577 76.9248 67.9225 76.9603 67.9166L77.0431 67.8988C77.4997 67.7913 77.9287 67.5897 78.3028 67.3067C78.6769 67.0238 78.9877 66.6658 79.2154 66.2557C79.4431 65.8457 79.5826 65.3926 79.625 64.9255C79.6674 64.4584 79.6117 63.9875 79.4616 63.5432L77.343 57.2544C77.3178 57.1797 77.3144 57.0994 77.3333 57.0228C77.3522 56.9463 77.3925 56.8768 77.4495 56.8224L82.2805 52.2754C82.6215 51.9534 82.8916 51.5639 83.0736 51.1317C83.2556 50.6995 83.3455 50.2341 83.3375 49.7652C83.3296 49.2963 83.2239 48.8342 83.0273 48.4085C82.8307 47.9827 82.5475 47.6026 82.1957 47.2925L77.2167 42.9053C77.1579 42.8533 77.1151 42.7855 77.0934 42.7101C77.0718 42.6346 77.0721 42.5545 77.0944 42.4792L79.002 36.1213C79.1363 35.672 79.1755 35.1997 79.117 34.7344C79.0585 34.2692 78.9037 33.8212 78.6624 33.4192C78.4211 33.0171 78.0986 32.6698 77.7155 32.3993C77.3324 32.1289 76.8972 31.9413 76.4375 31.8485L69.9278 30.5407C69.8505 30.5248 69.7795 30.4872 69.7229 30.4324C69.6662 30.3775 69.6265 30.3076 69.6082 30.2309L68.0813 23.7725C67.9734 23.316 67.7713 22.8871 67.4881 22.5132C67.2049 22.1393 66.8468 21.8286 66.4366 21.6009C66.0265 21.3733 65.5734 21.2338 65.1062 21.1913C64.6391 21.1487 64.1682 21.2042 63.7238 21.354L57.4389 23.4746C57.3645 23.4996 57.2845 23.5029 57.2083 23.484C57.1321 23.4651 57.0629 23.4249 57.0088 23.3681L52.4579 18.5311C52.136 18.1901 51.7465 17.92 51.3142 17.738C50.882 17.556 50.4166 17.4661 49.9477 17.4741C49.4788 17.4821 49.0168 17.5878 48.591 17.7844C48.1652 17.981 47.7851 18.2642 47.475 18.6159L43.0878 23.5949C43.0356 23.6542 42.9676 23.6972 42.8917 23.7188C42.8158 23.7405 42.7353 23.74 42.6597 23.7172L36.2959 21.8117C35.8467 21.6767 35.3742 21.6371 34.9087 21.6953C34.4432 21.7535 33.995 21.9082 33.5928 22.1496C33.1906 22.391 32.8432 22.7138 32.5729 23.0972C32.3026 23.4805 32.1154 23.9162 32.0232 24.3761L30.7153 30.8859C30.6994 30.9631 30.6618 31.0342 30.607 31.0908C30.5521 31.1474 30.4823 31.1872 30.4056 31.2054L23.9471 32.7323C23.4918 32.8412 23.0642 33.0438 22.6915 33.3272C22.3188 33.6105 22.0092 33.9684 21.7825 34.3779C21.5557 34.7875 21.4167 35.2398 21.3744 35.706C21.332 36.1723 21.3872 36.6422 21.5365 37.0859L23.6551 43.3748C23.6803 43.4494 23.6837 43.5298 23.6648 43.6063C23.6459 43.6828 23.6056 43.7524 23.5486 43.8068L18.7176 48.3557C18.3766 48.6775 18.1066 49.0668 17.9246 49.4989C17.7426 49.9309 17.6527 50.3962 17.6607 50.8649C17.6687 51.3337 17.7744 51.7956 17.9709 52.2212C18.1675 52.6468 18.4507 53.0267 18.8024 53.3367L23.7814 57.7239C23.8402 57.7763 23.8829 57.8444 23.9046 57.9202C23.9262 57.9959 23.9259 58.0763 23.9037 58.1519C23.9037 58.1815 23.8859 58.2111 23.88 58.2407L22.6234 63.6438C19.1022 64.2715 15.6942 65.4203 12.5116 67.0526C12.1805 67.248 11.9384 67.5647 11.8367 67.9355C11.735 68.3063 11.7817 68.7022 11.9669 69.0392C12.1521 69.3762 12.4612 69.6278 12.8287 69.7409C13.1962 69.8539 13.5933 69.8194 13.9359 69.6446C14.0148 69.6032 21.8265 65.3817 30.1728 66.2398C34.6014 66.6955 37.1442 68.3328 39.3891 69.7788C41.0619 70.8558 42.6439 71.8737 44.6561 72.1775C53.8171 73.5584 57.07 74.5052 57.0838 77.1092C57.0962 77.2767 57.0643 77.4446 56.9912 77.596C56.9182 77.7473 56.8065 77.8767 56.6676 77.9712C56.0876 78.4091 54.0341 79.3146 47.473 78.2789C45.0199 77.8806 42.59 77.3505 40.1939 76.6909C39.8174 76.5853 39.4145 76.6331 39.0731 76.8237C38.7317 77.0142 38.4797 77.3322 38.372 77.7081C38.2643 78.084 38.3099 78.4872 38.4986 78.8296C38.6873 79.172 39.0039 79.4258 39.3792 79.5355C41.8812 80.2275 44.4192 80.782 46.9818 81.1965C48.8665 81.5173 50.7732 81.6914 52.6848 81.7173C55.3222 81.7173 57.2219 81.2557 58.4508 80.3364C58.9568 79.9658 59.3657 79.4785 59.6429 78.9159C59.92 78.3534 60.0572 77.7322 60.0428 77.1052C60.0428 76.9612 60.0428 76.8251 60.025 76.689C63.343 75.6435 74.0309 72.2939 78.9882 70.8775C81.4796 70.1654 82.7855 70.7335 83.0558 71.2878C83.2886 71.7652 82.9966 72.6687 81.8051 73.5446C80.0593 74.813 73.1886 78.6242 65.7437 82.2736C57.2278 86.4457 50.935 88.9411 48.9111 88.9471H48.8046C36.1421 88.9471 13.8727 82.4235 13.6479 82.3584C13.2714 82.2475 12.8664 82.2906 12.5218 82.4784C12.1772 82.6661 11.9212 82.9831 11.8103 83.3595C11.6994 83.7359 11.7426 84.141 11.9303 84.4856C12.1181 84.8302 12.435 85.0861 12.8115 85.197C12.8687 85.2128 18.6071 86.9014 25.8645 88.5506C35.5858 90.7737 43.3028 91.9041 48.8026 91.9041H48.9209C54.9494 91.8863 79.9291 78.565 83.547 75.9256C85.7859 74.2981 86.6579 71.9073 85.7169 69.98C84.8588 68.2539 82.4305 66.8158 78.1695 68.0349ZM45.096 69.2501C43.7151 69.043 42.5098 68.2638 40.9909 67.2912C38.5921 65.7467 35.6075 63.8233 30.4746 63.2966C28.9057 63.14 27.326 63.1228 25.7541 63.2453L26.7522 58.9509C26.9246 58.3392 26.9208 57.6914 26.7415 57.0817C26.5621 56.4721 26.2144 55.9255 25.7383 55.5046L20.7573 51.1174C20.7146 51.079 20.6805 51.0319 20.6571 50.9794C20.6338 50.9269 20.6217 50.8701 20.6217 50.8127C20.6217 50.7552 20.6338 50.6984 20.6571 50.6459C20.6805 50.5934 20.7146 50.5464 20.7573 50.5079L25.5765 45.9629C26.0447 45.5199 26.3766 44.9524 26.5331 44.3272C26.6897 43.702 26.6644 43.0451 26.4603 42.4338L24.3397 36.1391C24.3211 36.0847 24.3141 36.0271 24.3192 35.9699C24.3243 35.9127 24.3413 35.8572 24.3692 35.807C24.3971 35.7568 24.4352 35.713 24.4811 35.6784C24.527 35.6439 24.5796 35.6194 24.6356 35.6064L31.094 34.0796C31.7212 33.9303 32.2925 33.6046 32.7406 33.1411C33.1887 32.6777 33.4949 32.0957 33.623 31.4639L34.9309 24.9541C34.9424 24.898 34.9655 24.8449 34.9987 24.7982C35.0318 24.7514 35.0743 24.7121 35.1234 24.6826C35.1726 24.6531 35.2273 24.6342 35.2841 24.6269C35.3409 24.6196 35.3986 24.6243 35.4536 24.6404L41.8194 26.5519C42.437 26.7359 43.0944 26.7395 43.7141 26.5623C44.3337 26.3851 44.8899 26.0345 45.3169 25.5518L49.7021 20.5709C49.7396 20.527 49.7862 20.492 49.8387 20.4681C49.8912 20.4443 49.9482 20.4322 50.0059 20.4328C50.063 20.4314 50.1198 20.4422 50.1725 20.4643C50.2251 20.4864 50.2726 20.5193 50.3117 20.561L54.8626 25.3901C55.3051 25.8583 55.8722 26.1902 56.4971 26.3468C57.122 26.5034 57.7787 26.478 58.3897 26.2738L64.6785 24.1532C64.7329 24.1352 64.7904 24.1287 64.8474 24.1341C64.9044 24.1395 64.9596 24.1566 65.0097 24.1844C65.0597 24.2122 65.1035 24.2501 65.1381 24.2956C65.1728 24.3412 65.1977 24.3934 65.2111 24.4491L66.738 30.9076C66.8873 31.5347 67.2129 32.106 67.6764 32.5541C68.1399 33.0022 68.7219 33.3084 69.3537 33.4365L75.8635 34.7464C75.9206 34.7572 75.9746 34.7804 76.0217 34.8145C76.0687 34.8486 76.1077 34.8927 76.1357 34.9436C76.1661 34.9922 76.1856 35.0469 76.1928 35.1038C76.1999 35.1607 76.1946 35.2184 76.1771 35.2731L74.2597 41.623C74.0757 42.2407 74.0721 42.8981 74.2493 43.5178C74.4265 44.1374 74.7771 44.6935 75.2598 45.1206L80.2408 49.5137C80.2841 49.5517 80.3189 49.5984 80.343 49.6507C80.3671 49.703 80.38 49.7598 80.3809 49.8175C80.3827 49.8748 80.372 49.9319 80.3495 49.9847C80.327 50.0375 80.2933 50.0848 80.2507 50.1232L75.4216 54.6741C74.9533 55.1174 74.6213 55.6852 74.4647 56.3108C74.3082 56.9363 74.3335 57.5936 74.5378 58.2052L76.6585 64.494C76.6771 64.5482 76.684 64.6058 76.6789 64.6629C76.6739 64.72 76.6568 64.7754 76.6289 64.8254C76.5773 64.92 76.491 64.9907 76.3882 65.0227C75.895 65.1115 72.5632 65.7131 70.273 66.3325C69.2664 66.6043 68.4057 67.2583 67.8742 68.1553L67.529 68.7352C67.0849 69.4809 66.892 70.3494 66.9786 71.2129C66.9786 71.2839 66.9924 71.351 67.0003 71.4101C63.5955 72.4655 60.5024 73.4361 59.0288 73.8996C56.8806 71.0156 51.5091 70.2147 45.096 69.2501Z" fill="#CA000F"/>
<path d="M49.9092 16.3729C50.3016 16.3729 50.6779 16.217 50.9553 15.9395C51.2328 15.6621 51.3887 15.2858 51.3887 14.8934V10.5713C51.3887 10.1789 51.2328 9.80259 50.9553 9.52513C50.6779 9.24767 50.3016 9.0918 49.9092 9.0918C49.5168 9.0918 49.1405 9.24767 48.863 9.52513C48.5856 9.80259 48.4297 10.1789 48.4297 10.5713V14.8973C48.4307 15.289 48.5871 15.6643 48.8644 15.9409C49.1418 16.2175 49.5175 16.3729 49.9092 16.3729Z" fill="#CA000F"/>
<path d="M40.5567 21.0383C40.6406 21.3529 40.8261 21.6311 41.0844 21.8294C41.3426 22.0277 41.6592 22.1352 41.9849 22.1351C42.1141 22.1344 42.2427 22.1172 42.3676 22.0838C42.7467 21.9821 43.07 21.734 43.2664 21.3941C43.4628 21.0542 43.5163 20.6502 43.415 20.2709L42.409 16.5229C42.3586 16.3352 42.2717 16.1593 42.1534 16.0052C42.035 15.851 41.8874 15.7217 41.7191 15.6247C41.3791 15.4286 40.9752 15.3756 40.5961 15.4774C40.2171 15.5791 39.894 15.8273 39.6979 16.1673C39.5018 16.5073 39.4489 16.9112 39.5506 17.2902L40.5567 21.0383Z" fill="#CA000F"/>
<path d="M27.327 29.9112C27.4647 30.0486 27.6281 30.1576 27.8079 30.2318C27.9877 30.3061 28.1804 30.3443 28.3749 30.3441C28.5694 30.3439 28.762 30.3054 28.9417 30.2308C29.1213 30.1562 29.2845 30.0469 29.422 29.9092C29.5594 29.7715 29.6684 29.6081 29.7426 29.4283C29.8169 29.2485 29.855 29.0559 29.8549 28.8613C29.8547 28.6668 29.8162 28.4742 29.7416 28.2945C29.667 28.1149 29.5577 27.9517 29.42 27.8142L26.6721 25.0723C26.5355 24.931 26.3722 24.8184 26.1917 24.7409C26.0112 24.6635 25.817 24.6228 25.6206 24.6211C25.4241 24.6195 25.2293 24.6571 25.0475 24.7315C24.8657 24.806 24.7006 24.9159 24.5617 25.0549C24.4229 25.1939 24.3131 25.3591 24.2388 25.541C24.1645 25.7229 24.1272 25.9177 24.129 26.1141C24.1308 26.3106 24.1717 26.5047 24.2493 26.6852C24.3269 26.8656 24.4397 27.0288 24.5811 27.1652L27.327 29.9112Z" fill="#CA000F"/>
<path d="M15.5101 41.392C15.4594 41.5797 15.4462 41.7756 15.4714 41.9683C15.4965 42.1611 15.5595 42.3471 15.6566 42.5155C15.7537 42.6839 15.8831 42.8315 16.0374 42.9498C16.1917 43.0681 16.3678 43.1548 16.5556 43.2049L20.3037 44.211C20.4286 44.2437 20.5572 44.2603 20.6864 44.2603C21.0447 44.2594 21.3906 44.1286 21.6597 43.892C21.9288 43.6554 22.103 43.3291 22.1497 42.9738C22.1965 42.6186 22.1127 42.2584 21.914 41.9602C21.7152 41.662 21.415 41.4461 21.069 41.3526L17.321 40.3465C17.1334 40.2961 16.9378 40.2832 16.7452 40.3085C16.5527 40.3337 16.367 40.3967 16.1988 40.4938C16.0306 40.5909 15.8832 40.7203 15.765 40.8744C15.6469 41.0285 15.5602 41.2044 15.5101 41.392Z" fill="#CA000F"/>
<path d="M15.1991 60.5722C15.2836 60.8866 15.4692 61.1643 15.7274 61.3625C15.9855 61.5608 16.3018 61.6685 16.6273 61.669C16.7572 61.6692 16.8866 61.6519 17.0119 61.6177L21.1545 60.5071C21.5336 60.4054 21.8567 60.1572 22.0527 59.8172C22.2488 59.4773 22.3018 59.0733 22.2 58.6943C22.0983 58.3152 21.8501 57.9921 21.5101 57.7961C21.1701 57.6 20.7662 57.547 20.3871 57.6488L16.2446 58.7613C16.0569 58.8115 15.881 58.8981 15.7269 59.0163C15.5728 59.1344 15.4435 59.2818 15.3464 59.45C15.2493 59.6182 15.1863 59.8039 15.161 59.9965C15.1357 60.189 15.1487 60.3847 15.1991 60.5722Z" fill="#CA000F"/>
<path d="M78.8807 57.1536C78.8303 57.3412 78.8174 57.5368 78.8426 57.7294C78.8679 57.922 78.9309 58.1076 79.028 58.2758C79.1251 58.444 79.2544 58.5914 79.4086 58.7096C79.5627 58.8278 79.7386 58.9144 79.9262 58.9645L83.6743 59.9706C83.7992 60.0033 83.9278 60.0199 84.057 60.0199C84.4153 60.0191 84.7612 59.8882 85.0303 59.6516C85.2994 59.415 85.4736 59.0888 85.5203 58.7335C85.5671 58.3782 85.4833 58.018 85.2846 57.7198C85.0858 57.4217 84.7856 57.2057 84.4396 57.1122L80.6916 56.1062C80.5039 56.0558 80.3081 56.0429 80.1155 56.0683C79.9228 56.0938 79.7371 56.1569 79.5688 56.2542C79.4006 56.3515 79.2533 56.481 79.1352 56.6354C79.0171 56.7897 78.9306 56.9658 78.8807 57.1536Z" fill="#CA000F"/>
<path d="M83.3726 39.2083L79.6246 40.2144C79.2787 40.3079 78.9784 40.5238 78.7797 40.822C78.5809 41.1202 78.4971 41.4804 78.5439 41.8356C78.5907 42.1909 78.7648 42.5172 79.0339 42.7538C79.3031 42.9904 79.6489 43.1212 80.0073 43.1221C80.1372 43.1224 80.2666 43.1051 80.3919 43.0708L84.14 42.0667C84.519 41.9649 84.8421 41.7168 85.0382 41.3768C85.2343 41.0368 85.2873 40.6329 85.1855 40.2538C85.0837 39.8748 84.8356 39.5517 84.4956 39.3556C84.1556 39.1595 83.7517 39.1066 83.3726 39.2083Z" fill="#CA000F"/>
<path d="M70.7481 29.0789C71.0261 29.3556 71.4024 29.511 71.7946 29.511C72.1869 29.511 72.5631 29.3556 72.8411 29.0789L75.5871 26.331C75.8564 26.0519 76.0054 25.6781 76.0018 25.2902C75.9983 24.9022 75.8425 24.5312 75.5681 24.2571C75.2936 23.9829 74.9225 23.8275 74.5345 23.8243C74.1466 23.8211 73.773 23.9704 73.4941 24.24L70.7481 26.986C70.6106 27.1234 70.5016 27.2865 70.4272 27.4661C70.3528 27.6456 70.3145 27.8381 70.3145 28.0325C70.3145 28.2268 70.3528 28.4193 70.4272 28.5988C70.5016 28.7784 70.6106 28.9416 70.7481 29.0789Z" fill="#CA000F"/>
<path d="M57.496 21.7784C57.6206 21.8127 57.7494 21.8299 57.8787 21.8296C58.2041 21.8291 58.5204 21.7214 58.7785 21.5231C59.0367 21.3249 59.2224 21.0472 59.3069 20.7328L60.3129 16.9848C60.4144 16.6058 60.3612 16.2019 60.1649 15.8621C59.9687 15.5223 59.6455 15.2744 59.2664 15.1729C58.8874 15.0714 58.4835 15.1247 58.1438 15.3209C57.804 15.5172 57.556 15.8404 57.4545 16.2194L56.4485 19.9675C56.3473 20.3465 56.4008 20.7502 56.5973 21.0898C56.7937 21.4294 57.117 21.6771 57.496 21.7784Z" fill="#CA000F"/>
<path d="M31.077 20.6556C31.2068 20.8808 31.3937 21.0677 31.6188 21.1976C31.8439 21.3275 32.0993 21.3957 32.3592 21.3953C32.619 21.3967 32.8744 21.3286 33.099 21.1981C33.4384 21.0017 33.6859 20.6787 33.7872 20.2999C33.8886 19.9212 33.8355 19.5177 33.6395 19.1781L31.4696 15.43C31.3724 15.2616 31.2431 15.114 31.0889 14.9956C30.9347 14.8773 30.7587 14.7904 30.5709 14.74C30.3832 14.6896 30.1873 14.6767 29.9946 14.7021C29.8019 14.7274 29.616 14.7904 29.4476 14.8875C29.2792 14.9847 29.1316 15.114 29.0132 15.2682C28.8948 15.4224 28.808 15.5984 28.7576 15.7862C28.7072 15.9739 28.6943 16.1698 28.7196 16.3625C28.7449 16.5553 28.808 16.7411 28.9051 16.9095L31.077 20.6556Z" fill="#CA000F"/>
<path d="M15.1898 32.1541L18.9378 34.3241C19.1062 34.4212 19.2921 34.4842 19.4848 34.5095C19.6776 34.5349 19.8734 34.522 20.0612 34.4716C20.2489 34.4212 20.4249 34.3344 20.5791 34.216C20.7333 34.0976 20.8627 33.95 20.9598 33.7816C21.057 33.6132 21.12 33.4273 21.1453 33.2346C21.1706 33.0418 21.1577 32.846 21.1073 32.6582C21.057 32.4705 20.9701 32.2945 20.8517 32.1403C20.7333 31.9861 20.5857 31.8568 20.4173 31.7596L16.6693 29.5897C16.5009 29.4925 16.315 29.4295 16.1223 29.4042C15.9295 29.3789 15.7337 29.3918 15.5459 29.4422C15.3582 29.4925 15.1822 29.5794 15.028 29.6978C14.8738 29.8162 14.7445 29.9638 14.6473 30.1322C14.5502 30.3006 14.4871 30.4864 14.4618 30.6792C14.4365 30.8719 14.4494 31.0678 14.4998 31.2555C14.5502 31.4433 14.637 31.6193 14.7554 31.7735C14.8738 31.9276 15.0214 32.057 15.1898 32.1541Z" fill="#CA000F"/>
<path d="M16.7186 50.7485C16.7186 50.3562 16.5627 49.9798 16.2853 49.7024C16.0078 49.4249 15.6315 49.269 15.2391 49.269H10.9131C10.5207 49.269 10.1444 49.4249 9.86693 49.7024C9.58947 49.9798 9.43359 50.3562 9.43359 50.7485C9.43359 51.1409 9.58947 51.5172 9.86693 51.7947C10.1444 52.0722 10.5207 52.228 10.9131 52.228H15.2391C15.6315 52.228 16.0078 52.0722 16.2853 51.7947C16.5627 51.5172 16.7186 51.1409 16.7186 50.7485Z" fill="#CA000F"/>
<path d="M90.0868 48.0894H85.7607C85.3684 48.0894 84.992 48.2452 84.7146 48.5227C84.4371 48.8001 84.2812 49.1765 84.2812 49.5688C84.2812 49.9612 84.4371 50.3376 84.7146 50.615C84.992 50.8925 85.3684 51.0483 85.7607 51.0483H90.0868C90.4792 51.0483 90.8555 50.8925 91.1329 50.615C91.4104 50.3376 91.5663 49.9612 91.5663 49.5688C91.5663 49.1765 91.4104 48.8001 91.1329 48.5227C90.8555 48.2452 90.4792 48.0894 90.0868 48.0894Z" fill="#CA000F"/>
<path d="M80.7448 33.4979C81.0038 33.498 81.2583 33.43 81.4826 33.3006L85.2307 31.1307C85.399 31.0336 85.5466 30.9042 85.665 30.75C85.7834 30.5958 85.8703 30.4198 85.9207 30.2321C85.971 30.0443 85.9839 29.8485 85.9586 29.6557C85.9333 29.463 85.8703 29.2771 85.7731 29.1087C85.676 28.9403 85.5466 28.7927 85.3925 28.6744C85.2383 28.556 85.0623 28.4691 84.8745 28.4187C84.6868 28.3684 84.4909 28.3555 84.2982 28.3808C84.1054 28.4061 83.9196 28.4691 83.7512 28.5663L80.0031 30.7362C79.7204 30.8989 79.4995 31.1505 79.3745 31.4517C79.2496 31.753 79.2278 32.0872 79.3124 32.4022C79.397 32.7172 79.5833 32.9954 79.8423 33.1935C80.1014 33.3917 80.4187 33.4987 80.7448 33.4979Z" fill="#CA000F"/>
<path d="M66.8732 20.6082C67.213 20.804 67.6167 20.8569 67.9955 20.7551C68.3743 20.6534 68.6972 20.4055 68.8932 20.0658L71.0631 16.3177C71.1603 16.1493 71.2233 15.9635 71.2486 15.7707C71.2739 15.578 71.261 15.3821 71.2107 15.1944C71.1603 15.0066 71.0734 14.8306 70.955 14.6764C70.8366 14.5222 70.689 14.3929 70.5206 14.2957C70.3523 14.1986 70.1664 14.1356 69.9737 14.1103C69.7809 14.0849 69.5851 14.0978 69.3973 14.1482C69.2096 14.1986 69.0336 14.2855 68.8794 14.4038C68.7252 14.5222 68.5958 14.6698 68.4987 14.8382L66.3288 18.5863C66.2316 18.7547 66.1686 18.9407 66.1434 19.1336C66.1181 19.3264 66.1312 19.5223 66.1817 19.7101C66.2323 19.8979 66.3194 20.0739 66.4381 20.228C66.5567 20.3821 66.7046 20.5113 66.8732 20.6082Z" fill="#CA000F"/>
</svg>
