<svg width="84" height="84" viewBox="0 0 84 84" fill="none" xmlns="http://www.w3.org/2000/svg">
<path d="M75.0374 16.0677H77.6328C78.5382 16.0677 79.2724 15.3336 79.2724 14.4282C79.2724 13.5228 78.5382 12.7886 77.6328 12.7886H71.4025C70.4972 12.7886 69.763 13.5228 69.763 14.4282V20.6585C69.763 21.5638 70.4972 22.298 71.4025 22.298C72.3079 22.298 73.0421 21.5638 73.0421 20.6585V18.8545C78.0168 25.5145 80.7209 33.5953 80.7209 42C80.7209 63.3509 63.3509 80.7209 42 80.7209C20.6491 80.7209 3.2791 63.3509 3.2791 42C3.2791 20.6491 20.6491 3.2791 42 3.2791C43.579 3.2791 45.1683 3.37501 46.7239 3.56405C47.6215 3.67259 48.4401 3.03333 48.5493 2.13436C48.6587 1.23556 48.0186 0.418085 47.1197 0.308891C45.4332 0.103947 43.7109 0 42 0C30.7814 0 20.2342 4.36874 12.3015 12.3015C4.36874 20.2342 0 30.7814 0 42C0 53.2186 4.36874 63.7658 12.3015 71.6985C20.2342 79.6313 30.7814 84 42 84C53.2186 84 63.7658 79.6313 71.6985 71.6985C79.6313 63.7658 84 53.2186 84 42C84 32.5331 80.8373 23.4447 75.0374 16.0677Z" fill="#CA000F"/>
<path d="M17.7845 24.7593C17.0193 24.275 16.0065 24.5029 15.522 25.2676C11.7791 31.1791 10.1222 38.2886 10.8565 45.2863C11.6017 52.3879 14.798 59.0848 19.8567 64.1436C25.9615 70.2484 33.9807 73.301 42.0001 73.301C50.0195 73.301 58.0385 70.2486 64.1435 64.1436C76.3534 51.9337 76.3534 32.0666 64.1435 19.8569C59.0926 14.8061 52.4066 11.611 45.3169 10.8601C38.3321 10.1198 31.2304 11.7638 25.3213 15.4883C24.5551 15.9712 24.3258 16.9836 24.8084 17.7496C25.2913 18.5158 26.3037 18.7451 27.0697 18.2625C38.2085 11.2419 52.4999 12.8508 61.8247 22.1756C72.7561 33.1069 72.7561 50.8934 61.8247 61.8248C50.8935 72.7563 33.1067 72.7563 22.1755 61.8248C12.9796 52.6289 11.3466 37.9921 18.2927 27.0219C18.7769 26.2567 18.5495 25.2438 17.7845 24.7593Z" fill="#CA000F"/>
<path d="M63.3144 43.6661H65.3362C66.2416 43.6661 66.9758 42.9319 66.9758 42.0266C66.9758 41.1212 66.2416 40.387 65.3362 40.387H63.3144C62.409 40.387 61.6748 41.1212 61.6748 42.0266C61.6748 42.9319 62.4088 43.6661 63.3144 43.6661Z" fill="#CA000F"/>
<path d="M17.0242 41.9734C17.0242 42.8788 17.7584 43.613 18.6637 43.613H20.6856C21.591 43.613 22.3252 42.8788 22.3252 41.9734C22.3252 41.0681 21.591 40.3339 20.6856 40.3339H18.6637C17.7584 40.3339 17.0242 41.0679 17.0242 41.9734Z" fill="#CA000F"/>
<path d="M43.6661 20.6857V18.6638C43.6661 17.7584 42.9319 17.0242 42.0265 17.0242C41.1211 17.0242 40.387 17.7584 40.387 18.6638V20.6857C40.387 21.591 41.1211 22.3252 42.0265 22.3252C42.9319 22.3252 43.6661 21.591 43.6661 20.6857Z" fill="#CA000F"/>
<path d="M40.334 63.3143V65.3362C40.334 66.2415 41.0682 66.9757 41.9735 66.9757C42.8789 66.9757 43.6131 66.2415 43.6131 65.3362V63.3143C43.6131 62.4089 42.8789 61.6747 41.9735 61.6747C41.0682 61.6747 40.334 62.4088 40.334 63.3143Z" fill="#CA000F"/>
<path d="M33.7819 31.4631C33.1415 30.8231 32.1037 30.8231 31.4631 31.4631C30.8228 32.1034 30.8228 33.1415 31.4631 33.782L37.0197 39.3385C36.5939 40.1321 36.3517 41.0383 36.3517 42C36.3517 45.1145 38.8855 47.6483 42 47.6483C45.1145 47.6483 47.6482 45.1145 47.6482 42C47.6482 41.0383 47.4059 40.1321 46.9803 39.3385L58.192 28.1268C58.8323 27.4866 58.8323 26.4484 58.192 25.808C57.5516 25.1679 56.5138 25.1679 55.8732 25.808L44.6615 37.0197C43.8679 36.5939 42.9617 36.3518 42 36.3518C41.0382 36.3518 40.132 36.5941 39.3385 37.0197L33.7819 31.4631ZM44.3691 42C44.3691 43.3064 43.3064 44.3692 42 44.3692C40.6936 44.3692 39.6308 43.3064 39.6308 42C39.6308 40.6936 40.6936 39.6309 42 39.6309C43.3064 39.6309 44.3691 40.6936 44.3691 42Z" fill="#CA000F"/>
<path d="M22.1747 22.1746C22.4813 21.8696 22.6565 21.4466 22.6565 21.0154C22.6565 20.5842 22.4813 20.1628 22.1747 19.8562C21.8697 19.5515 21.4482 19.3759 21.0155 19.3759C20.5843 19.3759 20.1613 19.5513 19.8564 19.8562C19.5516 20.1612 19.376 20.5842 19.376 21.0154C19.376 21.4482 19.5514 21.8696 19.8564 22.1746C20.1613 22.4794 20.5843 22.655 21.0155 22.655C21.4482 22.655 21.8697 22.4794 22.1747 22.1746Z" fill="#CA000F"/>
<path d="M53.3571 4.89867C53.7901 4.89867 54.2131 4.72471 54.5179 4.41828C54.8228 4.11332 54.9984 3.69179 54.9984 3.25912C54.9984 2.82792 54.823 2.40491 54.5179 2.09996C54.2131 1.79516 53.7901 1.61957 53.3571 1.61957C52.9259 1.61957 52.5029 1.795 52.1981 2.09996C51.8931 2.40491 51.7175 2.82792 51.7175 3.25912C51.7175 3.69196 51.893 4.11332 52.1981 4.41828C52.5029 4.72471 52.9259 4.89867 53.3571 4.89867Z" fill="#CA000F"/>
</svg>
