<svg width="88" height="88" viewBox="0 0 88 88" fill="none" xmlns="http://www.w3.org/2000/svg">
<path d="M46.6408 39.5998C44.8808 39.1598 43.1208 38.2798 41.8008 36.9598C40.4808 36.5198 40.0408 35.1998 40.0408 34.3198C40.0408 33.4398 40.4808 32.1198 41.3608 31.6798C42.6808 30.7998 44.0008 29.9198 45.3208 30.3598C47.9608 30.3598 50.1608 31.6798 51.4808 33.4398L55.4408 28.1598C54.1208 26.8398 52.8008 25.9598 51.4808 25.0798C50.1608 24.1998 48.4008 23.7598 46.6408 23.7598V17.5998H41.3608V23.7598C39.1608 24.1998 36.9608 25.5198 35.2008 27.2798C33.4408 29.4798 32.1208 32.1198 32.5608 34.7598C32.5608 37.3998 33.4408 40.0398 35.2008 41.7998C37.4008 43.9998 40.4808 45.3198 43.1208 46.6398C44.4408 47.0798 46.2008 47.9598 47.5208 48.8398C48.4008 49.7198 48.8408 51.0398 48.8408 52.3598C48.8408 53.6798 48.4008 54.9998 47.5208 56.3198C46.2008 57.6398 44.4408 58.0798 43.1208 58.0798C41.3608 58.0798 39.1608 57.6398 37.8408 56.3198C36.5208 55.4398 35.2008 54.1198 34.3208 52.7998L29.9208 57.6398C31.2408 59.3998 32.5608 60.7198 34.3208 62.0398C36.5208 63.3598 39.1608 64.6798 41.8008 64.6798V70.3998H46.6408V63.7998C49.2808 63.3598 51.4808 62.0398 53.2408 60.2798C55.4408 58.0798 56.7608 54.5598 56.7608 51.4798C56.7608 48.8398 55.8808 45.7598 53.6808 43.9998C51.4808 41.7998 49.2808 40.4798 46.6408 39.5998ZM44.0008 8.7998C24.6408 8.7998 8.80078 24.6398 8.80078 43.9998C8.80078 63.3598 24.6408 79.1998 44.0008 79.1998C63.3608 79.1998 79.2008 63.3598 79.2008 43.9998C79.2008 24.6398 63.3608 8.7998 44.0008 8.7998ZM44.0008 74.3598C27.2808 74.3598 13.6408 60.7198 13.6408 43.9998C13.6408 27.2798 27.2808 13.6398 44.0008 13.6398C60.7208 13.6398 74.3608 27.2798 74.3608 43.9998C74.3608 60.7198 60.7208 74.3598 44.0008 74.3598Z" fill="#CA000F"/>
</svg>
