<svg width="695" height="452" viewBox="0 0 695 452" fill="none" xmlns="http://www.w3.org/2000/svg">
<path opacity="0.62" d="M67.8241 382.495C39.4815 368.705 13.7857 346.64 4.30142 317.735C-3.63892 293.794 0.331252 267.758 10.0361 244.81C31.9823 193.289 79.5141 162.177 129.362 151.586C154.837 146.18 180.312 150.703 205.457 145.849C237.769 139.561 268.207 124.225 296.55 106.243C337.685 80.0956 376.394 48.6531 423.375 33.318C494.066 10.3704 578.542 29.4566 632.691 80.0956C686.84 130.845 708.345 210.61 686.619 278.68C665.004 346.75 601.371 400.258 527.702 413.055C465.503 423.867 401.539 407.539 338.126 404.56C246.923 400.258 149.764 422.323 67.8241 382.495Z" fill="#AEDCFE"/>
<path opacity="0.62" d="M117.782 110.325C148.236 110.325 172.923 85.6276 172.923 55.1623C172.923 24.697 148.236 0 117.782 0C87.3282 0 62.6406 24.697 62.6406 55.1623C62.6406 85.6276 87.3282 110.325 117.782 110.325Z" fill="#AEDCFE"/>
<path opacity="0.62" d="M662.136 74.8C672.978 74.8 681.766 66.0078 681.766 55.1622C681.766 44.3165 672.978 35.5244 662.136 35.5244C651.295 35.5244 642.506 44.3165 642.506 55.1622C642.506 66.0078 651.295 74.8 662.136 74.8Z" fill="#AEDCFE"/>
<path d="M606.774 174.754H472.781C469.363 174.754 466.605 171.996 466.605 168.576V86.0532C466.605 82.6331 469.363 79.875 472.781 79.875H606.664C610.083 79.875 612.84 82.6331 612.84 86.0532V168.686C612.84 171.996 610.083 174.754 606.774 174.754Z" fill="#374C7F"/>
<path d="M603.466 179.829H465.613C462.414 179.829 459.768 177.181 459.768 173.982V88.5904C459.768 85.391 462.414 82.7432 465.613 82.7432H603.576C606.774 82.7432 609.421 85.391 609.421 88.5904V173.982C609.311 177.181 606.664 179.829 603.466 179.829Z" fill="#BCC0CE"/>
<path d="M602.583 177.181H466.384C464.289 177.181 462.635 175.526 462.635 173.43V94.7688C462.635 93.1139 463.958 91.79 465.612 91.79H603.465C605.12 91.79 606.443 93.1139 606.443 94.7688V173.43C606.333 175.526 604.679 177.181 602.583 177.181Z" fill="white"/>
<path d="M597.289 108.449H472.339C468.479 108.449 465.281 105.249 465.281 101.388V101.278C465.281 97.4162 468.479 94.2168 472.339 94.2168H597.289C601.149 94.2168 604.347 97.4162 604.347 101.278V101.388C604.347 105.249 601.149 108.449 597.289 108.449Z" fill="#374C7F"/>
<path d="M577.55 103.705H494.507C493.735 103.705 493.184 103.043 493.184 102.381V99.7331C493.184 98.9608 493.845 98.4092 494.507 98.4092H577.55C578.322 98.4092 578.873 99.0711 578.873 99.7331V102.381C578.983 103.153 578.322 103.705 577.55 103.705Z" fill="white"/>
<path d="M471.457 103.705H496.271C496.932 103.705 497.484 103.153 497.484 102.491V99.6228C497.484 98.9608 496.932 98.4092 496.271 98.4092H471.457C470.796 98.4092 470.244 98.9608 470.244 99.6228V102.491C470.244 103.153 470.796 103.705 471.457 103.705Z" fill="#DEF6F8"/>
<path d="M500.682 101.057H528.804" stroke="#57595E" stroke-width="0.5975" stroke-miterlimit="10"/>
<path d="M473.994 101.057H493.183" stroke="#57595E" stroke-width="0.5975" stroke-miterlimit="10"/>
<path d="M577.549 98.2988H569.168V103.705H577.549C578.321 103.705 578.873 103.043 578.873 102.381V99.7331C578.983 98.9608 578.321 98.2988 577.549 98.2988Z" fill="#F5AD49"/>
<path d="M572.918 101.94C573.71 101.94 574.352 101.298 574.352 100.506C574.352 99.7134 573.71 99.0713 572.918 99.0713C572.126 99.0713 571.484 99.7134 571.484 100.506C571.484 101.298 572.126 101.94 572.918 101.94Z" stroke="white" stroke-width="0.3983" stroke-miterlimit="10"/>
<path d="M574.021 101.389L575.565 102.933" stroke="white" stroke-width="0.3983" stroke-miterlimit="10"/>
<path d="M585.711 97.3057H588.909L590.453 101.829H597.07L597.732 98.1883" stroke="white" stroke-width="0.8901" stroke-miterlimit="10" stroke-linecap="round"/>
<path d="M593.65 99.843C594.38 99.843 594.973 99.1515 594.973 98.2985C594.973 97.4454 594.38 96.7539 593.65 96.7539C592.919 96.7539 592.326 97.4454 592.326 98.2985C592.326 99.1515 592.919 99.843 593.65 99.843Z" fill="#F5AD49"/>
<path d="M591.225 105.58C591.895 105.58 592.438 105.037 592.438 104.367C592.438 103.697 591.895 103.153 591.225 103.153C590.555 103.153 590.012 103.697 590.012 104.367C590.012 105.037 590.555 105.58 591.225 105.58Z" fill="white"/>
<path d="M595.635 105.58C596.305 105.58 596.848 105.037 596.848 104.367C596.848 103.697 596.305 103.153 595.635 103.153C594.965 103.153 594.422 103.697 594.422 104.367C594.422 105.037 594.965 105.58 595.635 105.58Z" fill="white"/>
<path d="M584.056 172.658H539.06C538.178 172.658 537.406 171.886 537.406 171.004V167.032C537.406 166.149 538.178 165.377 539.06 165.377H584.056C584.938 165.377 585.71 166.149 585.71 167.032V171.004C585.71 171.886 585.048 172.658 584.056 172.658Z" fill="#374C7F"/>
<path d="M584.056 171.776H539.06C538.178 171.776 537.406 171.003 537.406 170.121V166.149C537.406 165.266 538.178 164.494 539.06 164.494H584.056C584.938 164.494 585.71 165.266 585.71 166.149V170.121C585.71 171.003 585.048 171.776 584.056 171.776Z" fill="#FF4747"/>
<path d="M562.66 138.678L563.542 140.553L565.638 140.884L564.094 142.318L564.535 144.415L562.66 143.422L560.785 144.415L561.116 142.318L559.572 140.884L561.668 140.553L562.66 138.678Z" fill="#F5AD49"/>
<path d="M569.277 138.678L570.16 140.553L572.255 140.884L570.821 142.318L571.152 144.415L569.277 143.422L567.403 144.415L567.733 142.318L566.189 140.884L568.285 140.553L569.277 138.678Z" fill="#F5AD49"/>
<path d="M575.894 138.678L576.886 140.553L578.982 140.884L577.438 142.318L577.768 144.415L575.894 143.422L574.019 144.415L574.35 142.318L572.916 140.884L575.011 140.553L575.894 138.678Z" fill="#F5AD49"/>
<path d="M582.511 138.678L583.503 140.553L585.599 140.884L584.055 142.318L584.386 144.415L582.511 143.422L580.636 144.415L581.077 142.318L579.533 140.884L581.629 140.553L582.511 138.678Z" fill="#F5AD49"/>
<path d="M589.238 138.678L590.121 140.553L592.216 140.884L590.672 142.318L591.113 144.415L589.238 143.422L587.363 144.415L587.694 142.318L586.15 140.884L588.246 140.553L589.238 138.678Z" fill="#F5AD49"/>
<path d="M590.784 160.191H534.871C533.768 160.191 532.775 159.309 532.775 158.095V153.13C532.775 152.027 533.658 151.034 534.871 151.034H590.784C591.887 151.034 592.879 151.917 592.879 153.13V158.095C592.879 159.309 591.887 160.191 590.784 160.191Z" fill="#F5AD49"/>
<path d="M576.449 152.91H575.346V158.537H576.449V152.91Z" fill="#374C7F"/>
<path d="M578.654 155.116H573.029V156.219H578.654V155.116Z" fill="#374C7F"/>
<path d="M574.331 153.372L573.551 154.152L577.527 158.131L578.307 157.351L574.331 153.372Z" fill="#374C7F"/>
<path d="M577.467 153.317L573.49 157.296L574.27 158.076L578.247 154.097L577.467 153.317Z" fill="#374C7F"/>
<path d="M567.406 152.91H566.303V158.537H567.406V152.91Z" fill="#374C7F"/>
<path d="M569.611 155.116H563.986V156.219H569.611V155.116Z" fill="#374C7F"/>
<path d="M565.309 153.325L564.529 154.105L568.506 158.085L569.286 157.304L565.309 153.325Z" fill="#374C7F"/>
<path d="M568.393 153.347L564.416 157.325L565.196 158.105L569.173 154.127L568.393 153.347Z" fill="#374C7F"/>
<path d="M558.361 152.91H557.258V158.537H558.361V152.91Z" fill="#374C7F"/>
<path d="M560.677 155.116H555.053V156.219H560.677V155.116Z" fill="#374C7F"/>
<path d="M556.231 153.352L555.451 154.132L559.428 158.11L560.208 157.33L556.231 153.352Z" fill="#374C7F"/>
<path d="M559.465 153.254L555.488 157.233L556.268 158.014L560.245 154.034L559.465 153.254Z" fill="#374C7F"/>
<path d="M549.318 152.91H548.215V158.537H549.318V152.91Z" fill="#374C7F"/>
<path d="M551.634 155.116H546.01V156.219H551.634V155.116Z" fill="#374C7F"/>
<path d="M547.208 153.386L546.428 154.166L550.404 158.145L551.184 157.365L547.208 153.386Z" fill="#374C7F"/>
<path d="M550.42 153.255L546.443 157.234L547.223 158.014L551.2 154.035L550.42 153.255Z" fill="#374C7F"/>
<path d="M467.266 89.583C468.363 89.583 469.251 88.6939 469.251 87.5972C469.251 86.5004 468.363 85.6113 467.266 85.6113C466.17 85.6113 465.281 86.5004 465.281 87.5972C465.281 88.6939 466.17 89.583 467.266 89.583Z" fill="#374C7F"/>
<path d="M475.096 89.583C476.193 89.583 477.082 88.6939 477.082 87.5972C477.082 86.5004 476.193 85.6113 475.096 85.6113C474 85.6113 473.111 86.5004 473.111 87.5972C473.111 88.6939 474 89.583 475.096 89.583Z" fill="#FF4747"/>
<path d="M483.038 89.583C484.134 89.583 485.023 88.6939 485.023 87.5972C485.023 86.5004 484.134 85.6113 483.038 85.6113C481.941 85.6113 481.053 86.5004 481.053 87.5972C481.053 88.6939 481.941 89.583 483.038 89.583Z" fill="white"/>
<path d="M532.775 116.281H592.879" stroke="#45619B" stroke-width="1.2141" stroke-miterlimit="10" stroke-linecap="round"/>
<path d="M532.775 124.998H592.879" stroke="#45619B" stroke-width="1.2141" stroke-miterlimit="10" stroke-linecap="round"/>
<path d="M532.775 133.713H592.879" stroke="#45619B" stroke-width="1.2141" stroke-miterlimit="10" stroke-linecap="round"/>
<path d="M532.775 142.429H555.494" stroke="#45619B" stroke-width="1.2141" stroke-miterlimit="10" stroke-linecap="round"/>
<path d="M505.424 156.109L495.609 154.785L485.794 156.109L474.876 146.179C471.898 143.421 470.244 139.56 470.244 135.588V127.976C470.244 119.702 476.971 113.082 485.132 113.082H505.976C514.247 113.082 520.864 119.812 520.864 127.976V135.588C520.864 139.56 519.21 143.421 516.232 146.179L505.424 156.109ZM485.132 120.253C480.831 120.253 477.413 123.784 477.413 127.976V135.588C477.413 137.574 478.295 139.56 479.728 140.884L488.11 148.607L495.609 147.614L503.108 148.607L511.49 140.884C512.923 139.56 513.806 137.574 513.806 135.588V127.976C513.806 123.673 510.277 120.253 506.086 120.253H485.132Z" fill="#374C7F"/>
<path d="M511.27 122.35C512.814 123.784 513.806 125.77 513.806 128.086V135.699C513.806 137.685 512.924 139.671 511.491 140.994L505.756 146.18L508.623 148.166L513.035 144.194C515.35 142.098 516.784 139.009 516.784 135.809V131.286C516.674 124.887 511.27 122.35 511.27 122.35Z" fill="#28355F"/>
<path d="M495.61 137.574C485.684 137.574 477.523 145.628 477.523 155.667C477.523 160.963 479.839 165.817 483.479 169.127C487.118 170.782 491.309 171.775 495.61 171.775C499.911 171.775 503.991 170.892 507.741 169.127C511.38 165.817 513.696 161.073 513.696 155.667C513.696 145.628 505.535 137.574 495.61 137.574Z" fill="#374C7F"/>
<path d="M513.254 159.197C502.777 162.948 493.624 162.728 487.779 161.845C482.816 161.073 479.397 159.859 477.854 159.197C477.964 159.859 478.184 160.631 478.405 161.293C480.28 161.955 483.478 162.838 487.448 163.5C489.764 163.941 492.411 164.162 495.168 164.052C500.241 163.831 506.196 163.39 512.813 161.183C513.034 160.521 513.144 159.859 513.254 159.197Z" fill="#DEF6F8"/>
<path opacity="0.31" d="M504.21 139.781C501.674 138.346 498.696 137.574 495.498 137.574C489.763 137.574 484.58 140.332 481.271 144.525C483.036 147.834 488.66 149.048 494.616 147.283C499.578 145.849 503.218 142.87 504.21 139.781Z" fill="#9BABB8"/>
<path opacity="0.4" d="M496.381 171.664C500.351 171.554 504.211 170.671 507.74 169.016C511.379 165.706 513.695 160.962 513.695 155.556C513.695 155.336 513.695 155.115 513.695 154.895C508.953 156.108 498.476 159.859 496.381 171.664Z" fill="#19181B"/>
<path d="M285.963 162.177H114.584C110.283 162.177 106.754 158.647 106.754 154.344V48.543C106.754 44.2403 110.283 40.71 114.584 40.71H285.963C290.264 40.71 293.793 44.2403 293.793 48.543V154.234C293.793 158.647 290.264 162.177 285.963 162.177Z" fill="#374C7F"/>
<path d="M292.91 156.551H118.223C114.142 156.551 110.834 153.241 110.834 149.159V40.9308C110.834 36.8488 114.142 33.5391 118.223 33.5391H292.91C296.991 33.5391 300.299 36.8488 300.299 40.9308V149.159C300.299 153.241 296.991 156.551 292.91 156.551Z" fill="#BCC0CE"/>
<path d="M291.697 153.131H119.215C116.568 153.131 114.473 151.035 114.473 148.387V48.7637C114.473 46.6676 116.127 45.0127 118.222 45.0127H292.799C294.895 45.0127 296.549 46.6676 296.549 48.7637V148.387C296.549 151.035 294.343 153.131 291.697 153.131Z" fill="white"/>
<path d="M285.08 66.0854H126.714C121.751 66.0854 117.781 62.1137 117.781 57.1491V56.9285C117.781 51.9639 121.751 47.9922 126.714 47.9922H284.969C289.932 47.9922 293.902 51.9639 293.902 56.9285V57.1491C294.013 62.1137 289.932 66.0854 285.08 66.0854Z" fill="#374C7F"/>
<path d="M260.156 60.1272H154.946C153.954 60.1272 153.182 59.3549 153.182 58.362V54.9419C153.182 53.949 153.954 53.1768 154.946 53.1768H260.156C261.148 53.1768 261.92 53.949 261.92 54.9419V58.362C261.81 59.3549 261.038 60.1272 260.156 60.1272Z" fill="white"/>
<path d="M125.723 60.1272H157.153C158.035 60.1272 158.807 59.3549 158.807 58.4723V54.8316C158.807 53.949 158.035 53.1768 157.153 53.1768H125.723C124.84 53.1768 124.068 53.949 124.068 54.8316V58.4723C124.068 59.4653 124.84 60.1272 125.723 60.1272Z" fill="#DEF6F8"/>
<path d="M162.666 56.707H198.287" stroke="#57595E" stroke-width="0.7569" stroke-miterlimit="10"/>
<path d="M128.811 56.707H153.183" stroke="#57595E" stroke-width="0.7569" stroke-miterlimit="10"/>
<path d="M260.156 53.2871H249.459V60.1272H260.156C261.149 60.1272 261.921 59.355 261.921 58.362V54.942C261.811 54.0594 261.039 53.2871 260.156 53.2871Z" fill="#F5AD49"/>
<path d="M254.202 57.8107C255.177 57.8107 255.967 57.0204 255.967 56.0455C255.967 55.0706 255.177 54.2803 254.202 54.2803C253.228 54.2803 252.438 55.0706 252.438 56.0455C252.438 57.0204 253.228 57.8107 254.202 57.8107Z" stroke="white" stroke-width="0.5046" stroke-miterlimit="10"/>
<path d="M255.635 57.1484L257.62 59.1343" stroke="white" stroke-width="0.5046" stroke-miterlimit="10"/>
<path d="M270.523 51.9629H274.494L276.479 57.6998H284.75L285.632 53.1765" stroke="white" stroke-width="1.1276" stroke-miterlimit="10" stroke-linecap="round"/>
<path d="M280.448 55.2725C281.423 55.2725 282.213 54.3834 282.213 53.2866C282.213 52.1899 281.423 51.3008 280.448 51.3008C279.474 51.3008 278.684 52.1899 278.684 53.2866C278.684 54.3834 279.474 55.2725 280.448 55.2725Z" fill="#F5AD49"/>
<path d="M277.472 62.4446C278.324 62.4446 279.016 61.753 279.016 60.9C279.016 60.047 278.324 59.3555 277.472 59.3555C276.619 59.3555 275.928 60.047 275.928 60.9C275.928 61.753 276.619 62.4446 277.472 62.4446Z" fill="white"/>
<path d="M282.985 62.4446C283.838 62.4446 284.529 61.753 284.529 60.9C284.529 60.047 283.838 59.3555 282.985 59.3555C282.133 59.3555 281.441 60.047 281.441 60.9C281.441 61.753 282.133 62.4446 282.985 62.4446Z" fill="white"/>
<path d="M268.428 147.505H211.412C210.309 147.505 209.316 146.622 209.316 145.408V140.333C209.316 139.23 210.199 138.237 211.412 138.237H268.428C269.531 138.237 270.523 139.12 270.523 140.333V145.408C270.523 146.512 269.531 147.505 268.428 147.505Z" fill="#374C7F"/>
<path d="M268.428 146.291H211.412C210.309 146.291 209.316 145.408 209.316 144.195V139.12C209.316 138.016 210.199 137.023 211.412 137.023H268.428C269.531 137.023 270.523 137.906 270.523 139.12V144.195C270.523 145.408 269.531 146.291 268.428 146.291Z" fill="#FF4747"/>
<path d="M241.188 104.367L242.291 106.794L244.938 107.125L243.063 109.001L243.504 111.649L241.188 110.435L238.762 111.649L239.203 109.001L237.328 107.125L239.975 106.794L241.188 104.367Z" fill="#F5AD49"/>
<path d="M249.569 104.367L250.782 106.794L253.429 107.125L251.444 109.001L251.885 111.649L249.569 110.435L247.143 111.649L247.694 109.001L245.709 107.125L248.356 106.794L249.569 104.367Z" fill="#F5AD49"/>
<path d="M257.952 104.367L259.165 106.794L261.812 107.125L259.937 109.001L260.378 111.649L257.952 110.435L255.636 111.649L256.077 109.001L254.092 107.125L256.849 106.794L257.952 104.367Z" fill="#F5AD49"/>
<path d="M266.442 104.367L267.545 106.794L270.191 107.125L268.317 109.001L268.758 111.649L266.442 110.435L264.016 111.649L264.457 109.001L262.582 107.125L265.229 106.794L266.442 104.367Z" fill="#F5AD49"/>
<path d="M274.825 104.367L276.038 106.794L278.685 107.125L276.7 109.001L277.141 111.649L274.825 110.435L272.399 111.649L272.95 109.001L270.965 107.125L273.612 106.794L274.825 104.367Z" fill="#F5AD49"/>
<path d="M276.809 131.728H205.898C204.464 131.728 203.361 130.514 203.361 129.19V122.902C203.361 121.468 204.574 120.364 205.898 120.364H276.809C278.243 120.364 279.346 121.578 279.346 122.902V129.19C279.456 130.514 278.243 131.728 276.809 131.728Z" fill="#F5AD49"/>
<path d="M258.612 122.35H257.289V129.521H258.612V122.35Z" fill="#374C7F"/>
<path d="M261.59 125.328H254.422V126.652H261.59V125.328Z" fill="#374C7F"/>
<path d="M255.877 122.961L254.941 123.897L260.01 128.968L260.946 128.032L255.877 122.961Z" fill="#374C7F"/>
<path d="M260.088 122.961L255.02 128.031L255.955 128.967L261.024 123.897L260.088 122.961Z" fill="#374C7F"/>
<path d="M247.144 122.35H245.82V129.521H247.144V122.35Z" fill="#374C7F"/>
<path d="M250.121 125.328H242.953V126.652H250.121V125.328Z" fill="#374C7F"/>
<path d="M244.42 122.992L243.484 123.928L248.553 128.998L249.489 128.062L244.42 122.992Z" fill="#374C7F"/>
<path d="M248.621 122.961L243.553 128.031L244.489 128.967L249.557 123.897L248.621 122.961Z" fill="#374C7F"/>
<path d="M235.784 122.35H234.461V129.521H235.784V122.35Z" fill="#374C7F"/>
<path d="M238.651 125.328H231.482V126.652H238.651V125.328Z" fill="#374C7F"/>
<path d="M233.03 122.913L232.094 123.85L237.162 128.92L238.098 127.984L233.03 122.913Z" fill="#374C7F"/>
<path d="M237.162 122.992L232.094 128.062L233.03 128.999L238.098 123.928L237.162 122.992Z" fill="#374C7F"/>
<path d="M224.316 122.35H222.992V129.521H224.316V122.35Z" fill="#374C7F"/>
<path d="M227.182 125.328H220.014V126.652H227.182V125.328Z" fill="#374C7F"/>
<path d="M221.572 122.944L220.637 123.88L225.705 128.951L226.641 128.014L221.572 122.944Z" fill="#374C7F"/>
<path d="M225.696 122.993L220.627 128.063L221.563 129L226.631 123.929L225.696 122.993Z" fill="#374C7F"/>
<path d="M177.448 139.023C183.593 131.535 184.032 121.734 178.43 117.134C172.827 112.533 163.304 114.874 157.159 122.363C151.014 129.852 150.575 139.652 156.178 144.253C161.78 148.854 171.304 146.512 177.448 139.023Z" fill="#374C7F"/>
<path d="M177.367 139.015C183.512 131.526 184.524 122.196 179.627 118.175C174.731 114.155 165.78 116.966 159.636 124.455C153.491 131.944 152.479 141.274 157.376 145.295C162.272 149.315 171.223 146.504 177.367 139.015Z" fill="#28355F"/>
<path d="M178.879 140.211C185.024 132.723 186.036 123.392 181.139 119.372C176.243 115.351 167.292 118.162 161.147 125.651C155.003 133.14 153.991 142.47 158.887 146.491C163.784 150.512 172.734 147.7 178.879 140.211Z" fill="#374C7F"/>
<path d="M179.72 140.929C184.512 135.089 185.115 127.659 181.066 124.334C177.017 121.009 169.85 123.049 165.058 128.889C160.266 134.729 159.663 142.159 163.712 145.484C167.761 148.809 174.928 146.77 179.72 140.929Z" fill="#9BABB8"/>
<path d="M179.699 140.902C184.491 135.062 185.59 128.039 182.153 125.217C178.716 122.395 172.045 124.842 167.253 130.682C162.461 136.522 161.362 143.545 164.799 146.367C168.236 149.189 174.907 146.742 179.699 140.902Z" fill="#DEF6F8"/>
<path d="M171.268 122.682L179.099 120.585C179.099 120.585 188.693 93.8868 171.158 76.7865C161.784 67.6296 155.829 70.829 154.175 71.491C152.52 72.1529 149.322 73.6974 149.322 73.6974C149.322 73.6974 155.388 72.5942 161.564 78.6621C167.739 84.8402 174.798 95.8727 172.812 111.539C171.268 121.137 171.268 122.682 171.268 122.682Z" fill="#28355F"/>
<path d="M172.261 97.9689C170.386 89.3635 165.754 82.8544 161.564 78.6621C155.388 72.5942 149.322 73.6974 149.322 73.6974C149.322 73.6974 152.52 72.1529 154.175 71.491C155.829 70.829 161.784 67.6296 171.158 76.7865C176.893 82.4131 179.76 89.0326 180.973 95.4314L172.261 97.9689Z" fill="#374C7F"/>
<path d="M171.269 122.682C171.711 122.682 172.593 118.82 172.593 118.489C173.475 114.959 174.026 111.318 174.137 107.788C174.247 102.933 173.585 98.0791 172.041 93.4455C170.056 87.8189 166.638 82.744 162.337 78.5517C159.8 76.1245 157.043 73.5871 153.404 73.2561C150.647 73.0354 148 73.918 145.794 75.5729C143.588 77.2278 142.045 79.4343 140.942 81.8614C140.28 83.2956 139.839 84.8402 139.618 86.3847C139.508 86.826 139.067 91.4597 139.287 91.4597C147.448 91.0184 147.448 91.0184 147.448 91.0184C147.448 91.0184 148.22 78.0001 153.293 74.3593C157.374 75.3523 180.313 88.3706 170.277 122.902C171.269 122.682 171.269 122.682 171.269 122.682Z" fill="#44555F"/>
<path d="M153.184 74.2491C148.111 77.8898 147.339 90.9081 147.339 90.9081C147.339 90.9081 147.339 90.9081 139.178 91.3494C139.509 91.2391 139.839 91.0185 140.281 90.9081C141.494 73.8078 153.184 74.2491 153.184 74.2491Z" fill="#28355F"/>
<path d="M149.335 113.1C155.479 105.611 156.186 96.0302 150.913 91.7003C145.64 87.3703 136.384 89.931 130.239 97.4198C124.095 104.909 123.388 114.49 128.661 118.82C133.934 123.15 143.19 120.589 149.335 113.1Z" fill="#374C7F"/>
<path d="M150.893 114.301C157.038 106.812 157.745 97.2314 152.471 92.9014C147.198 88.5715 137.942 91.1322 131.798 98.621C125.653 106.11 124.947 115.691 130.22 120.021C135.493 124.351 144.749 121.79 150.893 114.301Z" fill="#28355F"/>
<path d="M152.039 115.293C158.184 107.804 159.196 98.4734 154.299 94.4528C149.403 90.4321 140.452 93.2435 134.308 100.732C128.163 108.221 127.151 117.551 132.047 121.572C136.944 125.593 145.895 122.781 152.039 115.293Z" fill="#374C7F"/>
<path d="M149.206 112.976C152.839 108.549 153.456 103.048 150.584 100.689C147.712 98.3311 142.439 100.008 138.806 104.436C135.173 108.863 134.557 114.364 137.429 116.722C140.301 119.08 145.574 117.403 149.206 112.976Z" fill="#28355F"/>
<path d="M148.33 112.312C151.749 108.119 152.521 102.934 150.094 100.396C150.205 100.507 150.425 100.617 150.535 100.727C153.403 103.044 152.851 108.561 149.212 112.973C145.573 117.386 140.279 119.041 137.412 116.725C137.302 116.614 137.081 116.504 136.971 116.283C140.059 118.159 144.911 116.504 148.33 112.312Z" fill="#9BABB8"/>
<path d="M176.992 138.526C179.619 135.324 180.338 131.568 178.596 130.138C176.854 128.707 173.312 130.144 170.684 133.346C168.056 136.549 167.338 140.304 169.08 141.735C170.821 143.165 174.364 141.729 176.992 138.526Z" fill="#FF4747"/>
<path d="M120.318 42.1443C121.719 42.1443 122.854 41.0082 122.854 39.6068C122.854 38.2054 121.719 37.0693 120.318 37.0693C118.917 37.0693 117.781 38.2054 117.781 39.6068C117.781 41.0082 118.917 42.1443 120.318 42.1443Z" fill="#374C7F"/>
<path d="M130.355 42.1443C131.756 42.1443 132.891 41.0082 132.891 39.6068C132.891 38.2054 131.756 37.0693 130.355 37.0693C128.954 37.0693 127.818 38.2054 127.818 39.6068C127.818 41.0082 128.954 42.1443 130.355 42.1443Z" fill="#FF4747"/>
<path d="M140.279 42.1443C141.68 42.1443 142.815 41.0082 142.815 39.6068C142.815 38.2054 141.68 37.0693 140.279 37.0693C138.878 37.0693 137.742 38.2054 137.742 39.6068C137.742 41.0082 138.878 42.1443 140.279 42.1443Z" fill="white"/>
<path d="M203.361 76.0137H279.456" stroke="#45619B" stroke-width="1.5381" stroke-miterlimit="10" stroke-linecap="round"/>
<path d="M203.361 87.0469H279.456" stroke="#45619B" stroke-width="1.5381" stroke-miterlimit="10" stroke-linecap="round"/>
<path d="M203.361 98.0791H279.456" stroke="#45619B" stroke-width="1.5381" stroke-miterlimit="10" stroke-linecap="round"/>
<path d="M203.361 109.111H232.035" stroke="#45619B" stroke-width="1.5381" stroke-miterlimit="10" stroke-linecap="round"/>
<path d="M266.773 426.074H32.754C26.7988 426.074 22.0566 421.219 22.0566 415.372V270.957C22.0566 265 26.9091 260.256 32.754 260.256H266.884C272.839 260.256 277.581 265.11 277.581 270.957V415.372C277.581 421.219 272.729 426.074 266.773 426.074Z" fill="#374C7F"/>
<path d="M272.839 419.786H37.1657C31.6515 419.786 27.2402 415.373 27.2402 409.856V263.787C27.2402 258.27 31.6515 253.857 37.1657 253.857H272.95C278.464 253.857 282.875 258.27 282.875 263.787V409.746C282.765 415.262 278.353 419.786 272.839 419.786Z" fill="#BCC0CE"/>
<path d="M271.295 415.262H38.4891C34.96 415.262 31.9824 412.394 31.9824 408.753V274.378C31.9824 271.62 34.2984 269.303 37.0554 269.303H272.619C275.376 269.303 277.692 271.62 277.692 274.378V408.753C277.692 412.394 274.824 415.262 271.295 415.262Z" fill="white"/>
<path d="M262.251 297.767H48.6341C42.0171 297.767 36.6133 292.361 36.6133 285.741V285.52C36.6133 278.901 42.0171 273.495 48.6341 273.495H262.141C268.758 273.495 274.162 278.901 274.162 285.52V285.741C274.272 292.361 268.868 297.767 262.251 297.767Z" fill="#374C7F"/>
<path d="M228.617 289.713H86.6831C85.3597 289.713 84.3672 288.72 84.3672 287.396V282.762C84.3672 281.438 85.3597 280.445 86.6831 280.445H228.617C229.94 280.445 230.933 281.438 230.933 282.762V287.396C230.933 288.609 229.94 289.713 228.617 289.713Z" fill="white"/>
<path d="M47.3111 289.714H89.7699C90.983 289.714 91.9755 288.721 91.9755 287.507V282.542C91.9755 281.329 90.983 280.336 89.7699 280.336H47.3111C46.098 280.336 45.1055 281.329 45.1055 282.542V287.507C45.1055 288.721 46.098 289.714 47.3111 289.714Z" fill="#DEF6F8"/>
<path d="M97.0488 285.079H145.242" stroke="#57595E" stroke-width="1.0212" stroke-miterlimit="10"/>
<path d="M51.502 285.079H84.3661" stroke="#57595E" stroke-width="1.0212" stroke-miterlimit="10"/>
<path d="M228.617 280.445H214.17V289.713H228.617C229.94 289.713 230.933 288.72 230.933 287.396V282.762C230.933 281.438 229.94 280.445 228.617 280.445Z" fill="#F5AD49"/>
<path d="M220.676 286.624C222.016 286.624 223.102 285.537 223.102 284.197C223.102 282.856 222.016 281.77 220.676 281.77C219.336 281.77 218.25 282.856 218.25 284.197C218.25 285.537 219.336 286.624 220.676 286.624Z" stroke="white" stroke-width="0.6808" stroke-miterlimit="10"/>
<path d="M222.551 285.741L225.198 288.279" stroke="white" stroke-width="0.6808" stroke-miterlimit="10"/>
<path d="M242.512 278.681H248.026L250.673 286.403H261.811L263.024 280.225" stroke="white" stroke-width="1.5212" stroke-miterlimit="10" stroke-linecap="round"/>
<path d="M255.966 283.093C257.245 283.093 258.282 281.908 258.282 280.446C258.282 278.983 257.245 277.798 255.966 277.798C254.687 277.798 253.65 278.983 253.65 280.446C253.65 281.908 254.687 283.093 255.966 283.093Z" fill="#F5AD49"/>
<path d="M251.885 292.691C252.982 292.691 253.871 291.802 253.871 290.706C253.871 289.609 252.982 288.72 251.885 288.72C250.789 288.72 249.9 289.609 249.9 290.706C249.9 291.802 250.789 292.691 251.885 292.691Z" fill="white"/>
<path d="M259.495 292.691C260.591 292.691 261.48 291.802 261.48 290.706C261.48 289.609 260.591 288.72 259.495 288.72C258.399 288.72 257.51 289.609 257.51 290.706C257.51 291.802 258.399 292.691 259.495 292.691Z" fill="white"/>
<path d="M239.754 407.54H162.777C161.233 407.54 160.02 406.326 160.02 404.782V397.942C160.02 396.397 161.233 395.184 162.777 395.184H239.754C241.298 395.184 242.511 396.397 242.511 397.942V404.782C242.511 406.216 241.298 407.54 239.754 407.54Z" fill="#374C7F"/>
<path d="M239.754 405.995H162.777C161.233 405.995 160.02 404.781 160.02 403.237V396.397C160.02 394.852 161.233 393.639 162.777 393.639H239.754C241.298 393.639 242.511 394.852 242.511 396.397V403.237C242.511 404.781 241.298 405.995 239.754 405.995Z" fill="#FF4747"/>
<path d="M203.031 349.398L204.575 352.598L208.214 353.149L205.567 355.687L206.229 359.217L203.031 357.562L199.833 359.217L200.384 355.687L197.848 353.149L201.377 352.598L203.031 349.398Z" fill="#F5AD49"/>
<path d="M214.39 349.398L215.934 352.598L219.574 353.149L216.927 355.687L217.589 359.217L214.39 357.562L211.192 359.217L211.744 355.687L209.207 353.149L212.736 352.598L214.39 349.398Z" fill="#F5AD49"/>
<path d="M225.75 349.398L227.294 352.598L230.933 353.149L228.286 355.687L228.948 359.217L225.75 357.562L222.551 359.217L223.103 355.687L220.566 353.149L224.095 352.598L225.75 349.398Z" fill="#F5AD49"/>
<path d="M237.109 349.398L238.653 352.598L242.292 353.149L239.646 355.687L240.307 359.217L237.109 357.562L233.911 359.217L234.462 355.687L231.926 353.149L235.455 352.598L237.109 349.398Z" fill="#F5AD49"/>
<path d="M248.466 349.398L250.01 352.598L253.65 353.149L251.003 355.687L251.665 359.217L248.466 357.562L245.268 359.217L245.82 355.687L243.283 353.149L246.812 352.598L248.466 349.398Z" fill="#F5AD49"/>
<path d="M251.113 386.247H155.498C153.623 386.247 151.969 384.703 151.969 382.717V374.222C151.969 372.346 153.513 370.691 155.498 370.691H251.113C252.987 370.691 254.642 372.236 254.642 374.222V382.717C254.642 384.703 253.098 386.247 251.113 386.247Z" fill="#F5AD49"/>
<path d="M226.629 373.67H224.754V383.378H226.629V373.67Z" fill="#374C7F"/>
<path d="M230.599 377.642H220.895V379.517H230.599V377.642Z" fill="#374C7F"/>
<path d="M222.935 374.436L221.609 375.762L228.472 382.627L229.797 381.3L222.935 374.436Z" fill="#374C7F"/>
<path d="M228.544 374.453L221.682 381.318L223.007 382.645L229.87 375.78L228.544 374.453Z" fill="#374C7F"/>
<path d="M211.189 373.67H209.314V383.378H211.189V373.67Z" fill="#374C7F"/>
<path d="M215.16 377.642H205.455V379.517H215.16V377.642Z" fill="#374C7F"/>
<path d="M207.494 374.433L206.168 375.759L213.03 382.624L214.356 381.298L207.494 374.433Z" fill="#374C7F"/>
<path d="M213.103 374.451L206.24 381.315L207.566 382.642L214.428 375.777L213.103 374.451Z" fill="#374C7F"/>
<path d="M195.75 373.67H193.875V383.378H195.75V373.67Z" fill="#374C7F"/>
<path d="M199.72 377.642H190.016V379.517H199.72V377.642Z" fill="#374C7F"/>
<path d="M192.054 374.43L190.729 375.756L197.591 382.621L198.916 381.295L192.054 374.43Z" fill="#374C7F"/>
<path d="M197.663 374.447L190.801 381.312L192.126 382.638L198.989 375.773L197.663 374.447Z" fill="#374C7F"/>
<path d="M180.31 373.67H178.436V383.378H180.31V373.67Z" fill="#374C7F"/>
<path d="M184.281 377.642H174.576V379.517H184.281V377.642Z" fill="#374C7F"/>
<path d="M176.613 374.427L175.287 375.753L182.149 382.618L183.475 381.292L176.613 374.427Z" fill="#374C7F"/>
<path d="M182.222 374.444L175.359 381.309L176.685 382.635L183.547 375.77L182.222 374.444Z" fill="#374C7F"/>
<path d="M39.9218 265.331C41.749 265.331 43.2302 263.85 43.2302 262.022C43.2302 260.194 41.749 258.712 39.9218 258.712C38.0945 258.712 36.6133 260.194 36.6133 262.022C36.6133 263.85 38.0945 265.331 39.9218 265.331Z" fill="#374C7F"/>
<path d="M53.4882 265.331C55.3154 265.331 56.7966 263.85 56.7966 262.022C56.7966 260.194 55.3154 258.712 53.4882 258.712C51.6609 258.712 50.1797 260.194 50.1797 262.022C50.1797 263.85 51.6609 265.331 53.4882 265.331Z" fill="#FF4747"/>
<path d="M66.9413 265.331C68.7685 265.331 70.2498 263.85 70.2498 262.022C70.2498 260.194 68.7685 258.712 66.9413 258.712C65.1141 258.712 63.6328 260.194 63.6328 262.022C63.6328 263.85 65.1141 265.331 66.9413 265.331Z" fill="white"/>
<path d="M152.08 311.227H254.643" stroke="#45619B" stroke-width="2.0751" stroke-miterlimit="10" stroke-linecap="round"/>
<path d="M152.08 326.01H254.643" stroke="#45619B" stroke-width="2.0751" stroke-miterlimit="10" stroke-linecap="round"/>
<path d="M152.08 340.903H254.643" stroke="#45619B" stroke-width="2.0751" stroke-miterlimit="10" stroke-linecap="round"/>
<path d="M152.08 355.797H190.789" stroke="#45619B" stroke-width="2.0751" stroke-miterlimit="10" stroke-linecap="round"/>
<path d="M81.7198 326.782L78.7422 312.55L92.6378 305.489L101.46 309.792L104.769 319.501V326.782L94.7331 351.274H88.447L81.7198 326.782Z" fill="#BC3535"/>
<path d="M74.7725 318.728C74.7725 318.728 54.701 324.355 51.0617 331.195L40.4746 355.577L60.546 362.196L63.8545 355.908L63.5236 402.355H120.209V353.591L123.848 360.1L143.258 354.915L132.671 329.54C132.671 329.54 124.841 319.611 108.409 318.618L98.5935 326.562L91.8662 346.972L86.4624 326.562L85.139 326.782L74.7725 318.728Z" fill="#FF4747"/>
<path d="M86.4622 326.672L82.2715 328.878L91.9763 347.634L101.902 328.989L98.7036 326.672L91.7558 346.089L86.4622 326.672Z" fill="white"/>
<path d="M113.923 344.765H99.8066V346.971H113.923V344.765Z" fill="white"/>
<g opacity="0.35">
<path opacity="0.35" d="M132.782 329.651C132.782 329.651 124.952 319.721 108.52 318.729L103.998 322.369C104.329 322.369 104.66 322.48 104.88 322.48C108.189 323.141 126.055 333.733 126.055 333.733L137.193 356.68L143.369 355.025L132.782 329.651Z" fill="#653239"/>
<path opacity="0.35" d="M74.7725 318.729C74.7725 318.729 54.701 324.355 51.0617 331.195L40.4746 355.577L49.1869 358.445C50.9514 354.032 54.0394 346.641 58.8918 334.505C61.7591 332.85 75.2136 328.658 84.0362 326.01L74.7725 318.729Z" fill="#653239"/>
</g>
<path d="M105.652 311.667C113.261 325.458 105.983 331.857 105.983 331.857L98.704 326.671C100.027 325.568 101.02 323.472 101.461 321.817C103.115 315.639 99.8068 309.02 93.3002 307.916C90.3225 307.365 86.4626 308.689 84.1467 310.564C80.8382 313.322 80.5074 318.728 82.4925 322.369C82.713 322.81 85.5804 327.002 86.4626 326.561L76.5372 331.746C71.5745 319.831 78.7429 311.226 78.7429 311.226C78.7429 311.226 82.9336 304.938 91.7562 304.938C91.7562 305.048 100.799 304.827 105.652 311.667Z" fill="white"/>
<path d="M461.974 452.001C568.501 452.001 654.858 450.667 654.858 449.022C654.858 447.377 568.501 446.043 461.974 446.043C355.447 446.043 269.09 447.377 269.09 449.022C269.09 450.667 355.447 452.001 461.974 452.001Z" fill="#131A2B"/>
<path d="M585.158 356.459C585.158 356.459 623.978 261.911 660.702 287.727C673.825 298.098 589.128 362.196 589.128 362.196L585.158 356.459Z" fill="#A4BDDA"/>
<path d="M647.247 291.809C647.247 291.809 602.141 330.422 590.23 348.626" stroke="white" stroke-width="0.747" stroke-miterlimit="10"/>
<path d="M615.154 321.045C615.154 321.045 618.353 315.418 617.911 304.386" stroke="white" stroke-width="0.747" stroke-miterlimit="10"/>
<path d="M600.376 353.48L632.468 288.168C606.552 304.606 585.268 356.459 585.268 356.459L588.797 361.534L592.436 359.769C594.311 358.224 597.068 356.018 600.376 353.48Z" fill="#7590AA"/>
<path d="M576.666 362.417C576.666 362.417 576.997 211.824 639.306 224.621C662.135 230.689 584.937 367.712 584.937 367.712L576.666 362.417Z" fill="#B4D1ED"/>
<path d="M625.632 234.33C625.632 234.33 588.467 310.123 582.291 357.011" stroke="white" stroke-width="0.747" stroke-miterlimit="10"/>
<path d="M636.66 247.459C636.66 247.459 620.89 253.527 614.604 258.271" stroke="white" stroke-width="0.747" stroke-miterlimit="10"/>
<path d="M596.076 262.684C596.076 262.684 601.259 277.467 602.142 288.279" stroke="white" stroke-width="0.747" stroke-miterlimit="10"/>
<path d="M609.42 306.372C609.42 306.372 599.274 308.468 592.988 313.653" stroke="white" stroke-width="0.747" stroke-miterlimit="10"/>
<path d="M628.939 308.026C628.939 308.026 639.085 304.386 650.445 305.379" stroke="white" stroke-width="0.747" stroke-miterlimit="10"/>
<path d="M582.29 355.135C582.29 355.135 543.912 301.848 524.723 323.472C518.106 331.857 580.636 359.328 580.636 359.328L582.29 355.135Z" fill="#A4BDDA"/>
<path d="M533.877 324.023C533.877 324.023 567.954 341.455 577.99 351.053" stroke="white" stroke-width="0.4803" stroke-miterlimit="10"/>
<path d="M558.249 337.483C558.249 337.483 555.382 334.394 554.059 327.443" stroke="white" stroke-width="0.4803" stroke-miterlimit="10"/>
<path d="M572.364 355.576L542.588 319.5C561.336 325.899 582.29 355.135 582.29 355.135L580.856 358.776L578.319 358.224C576.886 357.672 574.79 356.679 572.364 355.576Z" fill="#7590AA"/>
<path d="M588.576 357.562C588.576 357.562 565.748 263.455 528.803 280.776C515.459 288.058 584.275 362.086 584.275 362.086L588.576 357.562Z" fill="#B4D1ED"/>
<path d="M538.729 284.858C538.729 284.858 573.357 326.671 584.165 355.025" stroke="white" stroke-width="0.4803" stroke-miterlimit="10"/>
<path d="M533.877 294.787C533.877 294.787 544.685 296.221 549.317 298.207" stroke="white" stroke-width="0.4803" stroke-miterlimit="10"/>
<path d="M561.447 298.208C561.447 298.208 560.344 308.248 561.447 315.088" stroke="white" stroke-width="0.4803" stroke-miterlimit="10"/>
<path d="M559.682 327.554C559.682 327.554 566.299 327.334 571.041 329.651" stroke="white" stroke-width="0.4803" stroke-miterlimit="10"/>
<path d="M547.661 331.416C547.661 331.416 540.713 330.643 533.766 332.96" stroke="white" stroke-width="0.4803" stroke-miterlimit="10"/>
<path d="M608.757 354.474H556.152V447.698H608.757V354.474Z" fill="#C92D3C"/>
<path d="M608.757 369.919H556.152V398.493H608.757V369.919Z" fill="#FF4747"/>
<path d="M508.291 374.221C508.291 374.221 477.964 300.304 449.18 320.493C438.924 328.547 505.203 378.745 505.203 378.745L508.291 374.221Z" fill="#A4BDDA"/>
<path d="M459.877 323.582C459.877 323.582 495.167 353.811 504.431 368.043" stroke="white" stroke-width="0.5842" stroke-miterlimit="10"/>
<path d="M484.911 346.53C484.911 346.53 482.375 342.117 482.706 333.512" stroke="white" stroke-width="0.5842" stroke-miterlimit="10"/>
<path d="M496.492 371.905L471.348 320.824C491.64 333.732 508.292 374.221 508.292 374.221L505.535 378.193L502.668 376.759C501.234 375.545 499.029 373.89 496.492 371.905Z" fill="#7590AA"/>
<path d="M515.019 378.855C515.019 378.855 514.688 261.028 465.944 271.068C448.078 275.812 508.513 383.047 508.513 383.047L515.019 378.855Z" fill="#B4D1ED"/>
<path d="M476.75 278.681C476.75 278.681 505.865 337.925 510.607 374.553" stroke="white" stroke-width="0.5842" stroke-miterlimit="10"/>
<path d="M468.148 288.94C468.148 288.94 480.5 293.684 485.353 297.435" stroke="white" stroke-width="0.5842" stroke-miterlimit="10"/>
<path d="M499.799 300.855C499.799 300.855 495.718 312.329 495.057 320.824" stroke="white" stroke-width="0.5842" stroke-miterlimit="10"/>
<path d="M489.322 335.057C489.322 335.057 497.263 336.711 502.115 340.683" stroke="white" stroke-width="0.5842" stroke-miterlimit="10"/>
<path d="M474.104 336.269C474.104 336.269 466.163 333.401 457.23 334.173" stroke="white" stroke-width="0.5842" stroke-miterlimit="10"/>
<path d="M510.605 373.228C510.605 373.228 540.602 331.526 555.601 348.405C560.784 355.025 511.929 376.428 511.929 376.428L510.605 373.228Z" fill="#A4BDDA"/>
<path d="M548.544 348.848C548.544 348.848 521.966 362.418 514.025 369.92" stroke="white" stroke-width="0.3756" stroke-miterlimit="10"/>
<path d="M529.354 359.439C529.354 359.439 531.559 357.011 532.662 351.605" stroke="white" stroke-width="0.3756" stroke-miterlimit="10"/>
<path d="M518.325 373.56L541.705 345.428C527.038 350.392 510.605 373.229 510.605 373.229L511.708 376.098L513.693 375.657C514.906 375.105 516.45 374.443 518.325 373.56Z" fill="#7590AA"/>
<path d="M505.754 375.105C505.754 375.105 523.62 301.518 552.514 315.088C562.99 320.715 509.173 378.745 509.173 378.745L505.754 375.105Z" fill="#B4D1ED"/>
<path d="M544.683 318.177C544.683 318.177 517.664 350.833 509.172 373.118" stroke="white" stroke-width="0.3756" stroke-miterlimit="10"/>
<path d="M548.544 325.899C548.544 325.899 540.163 327.003 536.523 328.658" stroke="white" stroke-width="0.3756" stroke-miterlimit="10"/>
<path d="M526.928 328.658C526.928 328.658 527.81 336.491 526.928 341.897" stroke="white" stroke-width="0.3756" stroke-miterlimit="10"/>
<path d="M528.362 351.606C528.362 351.606 523.178 351.385 519.539 353.261" stroke="white" stroke-width="0.3756" stroke-miterlimit="10"/>
<path d="M537.736 354.695C537.736 354.695 543.14 354.143 548.544 355.908" stroke="white" stroke-width="0.3756" stroke-miterlimit="10"/>
<path d="M531.01 372.677H489.875V445.601H531.01V372.677Z" fill="#C92D3C"/>
<path d="M531.01 384.702H489.875V406.988H531.01V384.702Z" fill="#FF4747"/>
<path d="M527.26 205.204H526.819C516.122 205.204 507.52 213.809 507.52 224.511V246.024H546.56V224.621C546.56 213.92 537.847 205.204 527.26 205.204Z" stroke="#CE7A2E" stroke-width="2.4146" stroke-miterlimit="10"/>
<path d="M533.766 205.204H533.325C522.627 205.204 514.025 213.809 514.025 224.511V246.024H553.065V224.621C553.065 213.92 544.463 205.204 533.766 205.204Z" stroke="#CE7A2E" stroke-width="2.4146" stroke-miterlimit="10"/>
<path d="M589.128 361.424H461.311V448.47H589.128V361.424Z" fill="#374C7F"/>
<path d="M510.166 361.424H461.311V448.47H510.166V361.424Z" fill="#28355F"/>
<path d="M577.658 321.486H485.793V361.424H577.658V321.486Z" fill="#FF4747"/>
<path d="M577.658 321.486H549.205V361.424H577.658V321.486Z" fill="#BC3535"/>
<path d="M562.99 240.729H498.144L494.174 321.486H566.96L562.99 240.729Z" fill="#F5AD49"/>
<path opacity="0.53" d="M485.793 361.424L549.205 345.427L577.658 361.424H485.793Z" fill="#440000"/>
<path d="M494.174 321.486C494.174 321.486 536.191 305.379 541.044 240.729C562.88 240.729 562.88 240.729 562.88 240.729L566.85 321.486H494.174Z" fill="#E37427"/>
<path d="M350.148 233.447H332.172V265.772H350.148V233.447Z" fill="#E37427"/>
<path d="M379.703 359.107L369.558 448.47H329.194C329.194 448.47 328.422 438.651 337.465 436.335C348.383 356.901 348.604 354.805 348.604 354.805L379.703 359.107Z" fill="#FF8076"/>
<path d="M356.985 421.551C356.985 421.551 356.323 428.391 364.153 428.943" stroke="#A50000" stroke-width="0.9198" stroke-miterlimit="10"/>
<path opacity="0.42" d="M358.86 356.239L348.714 354.805C348.714 354.805 348.493 356.901 337.575 436.335C328.422 438.651 329.304 448.47 329.304 448.47H346.178L358.86 356.239Z" fill="white"/>
<path d="M423.045 356.569L425.25 448.47H384.666C384.666 448.47 383.012 439.864 391.724 436.334C391.724 356.128 391.724 356.569 391.724 356.569H423.045Z" fill="#FF8076"/>
<path d="M423.043 356.569H391.723C391.723 356.569 391.723 356.79 391.723 364.292C400.214 373.228 414.661 374.663 423.484 374.552L423.043 356.569Z" fill="#440000"/>
<path opacity="0.42" d="M406.943 356.569H391.724C391.724 356.569 391.724 357.342 391.724 436.334C383.012 439.864 384.666 448.47 384.666 448.47H404.738L406.943 356.569Z" fill="white"/>
<path d="M347.611 362.969C352.243 366.83 362.72 374.111 377.829 375.987L379.704 359.107L348.714 354.805C348.714 354.805 348.604 355.246 347.611 362.969Z" fill="#440000"/>
<path d="M347.169 427.397H346.728C341.876 427.397 338.016 431.369 338.016 436.113V436.334H355.992V436.113C355.881 431.259 351.911 427.397 347.169 427.397Z" fill="#28355F"/>
<path d="M329.194 448.47H369.558L370.881 436.334H337.465C328.422 438.651 329.194 448.47 329.194 448.47Z" fill="#394C77"/>
<path d="M390.951 249.334L382.79 365.727C382.79 365.727 367.571 371.353 344.963 360.541L365.696 246.355L390.951 249.334Z" fill="#374C7F"/>
<path d="M372.975 367.16C379.15 367.05 382.679 365.726 382.679 365.726L396.796 247.789H384.444L372.975 367.16Z" fill="#28355F"/>
<path d="M354.449 438.21C354.449 439.202 353.566 440.085 352.574 440.085H338.347C337.355 440.085 336.473 439.202 336.473 438.21C336.473 437.217 337.355 436.334 338.347 436.334H352.574C353.566 436.334 354.449 437.106 354.449 438.21Z" fill="white"/>
<path d="M384.666 448.47H425.25L424.919 436.334H391.724C383.012 439.864 384.666 448.47 384.666 448.47Z" fill="#394C77"/>
<path d="M409.699 438.21C409.699 439.202 408.816 440.085 407.824 440.085H393.597C392.605 440.085 391.723 439.202 391.723 438.21C391.723 437.217 392.605 436.334 393.597 436.334H407.824C408.816 436.334 409.699 437.106 409.699 438.21Z" fill="white"/>
<path d="M400.876 427.397H400.435C395.583 427.397 391.723 431.369 391.723 436.113V436.334H409.699V436.113C409.699 431.259 405.729 427.397 400.876 427.397Z" fill="#28355F"/>
<path d="M412.678 421.551C412.678 421.551 412.016 428.391 419.846 428.943" stroke="#A50000" stroke-width="0.9198" stroke-miterlimit="10"/>
<path d="M419.184 246.356L426.904 362.748C426.904 362.748 412.567 370.36 388.746 362.748C388.746 280.004 388.746 280.005 388.746 280.005C388.746 280.005 379.592 264.669 381.136 250.989C382.129 242.494 382.129 242.494 382.129 242.494L419.184 246.356Z" fill="#374C7F"/>
<path d="M417.529 365.506C423.595 364.513 427.014 362.748 427.014 362.748L419.294 246.355L412.787 245.693L417.529 365.506Z" fill="#28355F"/>
<path d="M412.677 245.583L399.223 244.148C399.554 251.761 401.759 268.751 413.78 273.936C412.677 245.583 412.677 245.583 412.677 245.583Z" fill="#28355F"/>
<path d="M420.066 259.152L419.184 246.355L382.129 242.604C382.129 242.604 382.129 242.604 381.468 248.34L365.697 246.465C365.697 246.355 383.563 262.572 420.066 259.152Z" fill="#072847"/>
<path d="M377.607 141.326C377.607 141.326 369.005 143.091 362.939 164.384C356.874 185.677 349.595 212.044 349.595 212.044C349.595 212.044 299.637 209.176 295.557 229.586C372.424 229.586 372.424 229.586 372.424 229.586L377.607 141.326Z" fill="#D1544E"/>
<path d="M356.875 185.677C361.727 187.442 368.455 189.428 374.741 189.648L377.608 141.216C377.608 141.216 369.006 142.981 362.941 164.274C360.955 171.334 358.86 178.726 356.875 185.677Z" fill="#BC3535"/>
<path d="M368.675 177.733L360.184 222.746H366.249L368.675 177.733Z" fill="#440000"/>
<path d="M410.472 134.596L432.639 155.227L419.184 246.245C419.184 246.245 386.982 257.939 365.697 246.245C367.241 186.89 366.359 174.865 377.608 141.216C398.782 133.934 400.216 134.486 400.216 134.486H410.472V134.596Z" fill="#FF4747"/>
<path d="M409.479 112.973L410.471 134.596L396.355 155.227L394.039 138.347L395.473 125.55L405.178 112.642L409.479 112.973Z" fill="#FF8076"/>
<path d="M406.391 116.392L402.972 115.62L395.473 125.549L394.039 138.347C404.516 131.397 406.391 116.392 406.391 116.392Z" fill="#440000"/>
<path d="M388.305 104.478C388.305 104.478 378.049 104.478 376.395 96.6445C375.733 93.8864 380.586 90.4664 384.666 94.1071C382.571 86.4947 384.776 84.6191 390.07 84.6191C395.364 84.6191 399.995 93.1141 400.106 93.4451C400.767 87.4876 405.951 87.1566 406.943 95.2103C411.465 97.6375 414.663 98.2994 414.332 105.14C414.001 111.98 411.796 121.799 409.59 124.005C408.156 123.122 407.164 121.688 406.943 120.033L406.392 115.731L404.407 111.318L397.79 102.712L388.305 104.478Z" fill="#7A0000"/>
<path opacity="0.42" d="M402.2 99.9543C402.2 99.9543 389.738 91.6799 388.304 84.6191C384.334 85.0604 382.79 87.3773 384.665 93.9967C380.584 90.356 375.842 93.7761 376.394 96.5342C378.048 104.367 388.304 104.367 388.304 104.367L394.7 103.154L402.2 99.9543Z" fill="white"/>
<path d="M386.541 102.933C385.879 108.008 384.776 118.489 384.666 126.874C384.666 131.728 389.849 135.038 394.15 132.721C400.326 129.522 405.62 124.116 406.943 112.311L405.068 112.532L405.62 100.727C405.62 100.727 396.797 98.4101 390.401 99.0721C388.416 99.2927 386.761 100.948 386.541 102.933Z" fill="#FF8076"/>
<path d="M405.178 112.642L405.398 108.449C405.398 108.449 404.737 116.393 401.207 119.261C397.678 122.129 391.723 120.585 388.304 120.585C387.091 120.585 385.878 120.585 384.996 120.695C384.886 122.791 384.775 124.998 384.775 126.984C384.775 131.838 389.959 135.148 394.26 132.831C400.436 129.632 405.729 124.226 407.052 112.421L405.178 112.642Z" fill="#7A0000"/>
<path d="M397.899 113.083C397.899 113.414 397.569 113.745 397.127 113.745C396.686 113.745 396.355 113.414 396.355 113.083V110.987C396.355 110.656 396.686 110.325 397.127 110.325C397.569 110.325 397.899 110.656 397.899 110.987V113.083Z" fill="#7A0000"/>
<path d="M388.306 114.296C388.306 114.627 387.975 114.958 387.534 114.958C387.093 114.958 386.762 114.627 386.762 114.296V112.31C386.762 111.979 387.093 111.648 387.534 111.648C387.975 111.648 388.306 111.979 388.306 112.31V114.296Z" fill="#7A0000"/>
<path d="M390.73 112.973L390.068 119.702H393.267" stroke="#BA4A4A" stroke-width="0.4599" stroke-miterlimit="10"/>
<path d="M388.305 122.571H395.142C395.142 122.571 391.723 125.771 388.305 122.571Z" fill="white"/>
<path d="M412.567 174.534L407.053 216.568L428.117 222.746L412.567 174.534Z" fill="#440000"/>
<path d="M407.052 112.421L407.935 107.346C407.935 107.346 415.324 104.808 414.441 111.097C413.669 115.4 406.611 115.731 406.611 115.731L407.052 112.421Z" fill="#FF8076"/>
<path d="M404.516 143.311L408.265 157.985L414.551 138.347L410.471 134.596L404.516 143.311Z" fill="#BC3535"/>
<path d="M395.142 146.29L388.305 152.91L391.172 136.803L394.26 135.92L394.039 138.347L395.142 146.29Z" fill="#BC3535"/>
<path opacity="0.42" d="M402.201 99.9542C399.003 99.2922 394.261 98.6303 390.401 99.0716C388.305 99.2922 386.761 100.947 386.541 102.933C385.879 108.008 384.776 118.489 384.666 126.873C384.666 130.955 388.305 133.934 392.055 133.383C392.937 132.059 394.371 130.073 396.356 126.873C401.098 119.482 402.091 104.036 402.201 99.9542Z" fill="white"/>
<path d="M394.039 107.567C394.039 107.567 396.796 105.029 399.663 106.794" stroke="#7A0000" stroke-width="1.8395" stroke-miterlimit="10" stroke-linecap="round"/>
<path d="M388.857 107.566C388.857 107.566 386.431 106.683 385.107 107.566" stroke="#7A0000" stroke-width="1.8395" stroke-miterlimit="10" stroke-linecap="round"/>
<path d="M406.832 113.745L412.567 110.436" stroke="#A50000" stroke-width="0.9198" stroke-miterlimit="10"/>
<path d="M412.566 259.152L417.529 365.505" stroke="#80C8D4" stroke-width="0.9198" stroke-miterlimit="10"/>
<path d="M382.79 265.883L372.975 367.161" stroke="#80C8D4" stroke-width="0.9198" stroke-miterlimit="10"/>
<path d="M345.625 265.883H337.574V448.47H345.625V265.883Z" fill="#F5AD49"/>
<path d="M350.148 237.309H332.172V242.494H350.148V237.309Z" fill="#E37427"/>
<path d="M372.976 444.498H308.682V448.47H372.976V444.498Z" fill="#E37427"/>
<path d="M406.502 229.696H276.148V237.419H406.502V229.696Z" fill="#F5AD49"/>
<path d="M367.903 222.745H315.188V229.696H367.903V222.745Z" fill="white"/>
<path d="M315.188 222.746H277.803V229.697H315.188V222.746Z" fill="#28355F"/>
<path d="M280.118 173.541H242.732L280.118 222.746H317.504L280.118 173.541Z" fill="#374C7F"/>
<path d="M277.802 173.541H240.416L277.802 222.746H315.188L277.802 173.541Z" fill="white"/>
<path d="M374.52 229.696L390.952 237.309H403.965L384.114 229.696H374.52Z" fill="#E37427"/>
<path d="M283.713 203.677C284.621 201.547 282.45 198.581 278.864 197.051C275.278 195.522 271.635 196.009 270.728 198.139C269.82 200.268 271.991 203.235 275.577 204.764C279.163 206.294 282.805 205.807 283.713 203.677Z" fill="#DEF6F8"/>
<path d="M332.06 224.4H320.039V227.71H332.06V224.4Z" fill="#374C7F"/>
<path d="M347.611 224.4H335.59V227.71H347.611V224.4Z" fill="#374C7F"/>
<path d="M432.638 155.227C432.638 155.227 436.939 162.287 437.6 180.27C438.041 190.751 437.931 213.478 437.821 230.358C437.711 240.618 427.454 247.679 417.86 244.038L367.902 222.635H349.485C349.485 222.635 345.625 218.112 358.087 215.023C363.601 213.699 369.005 212.816 373.416 212.264C379.261 211.492 385.216 211.823 390.951 213.037L412.456 217.781V174.533C412.566 174.533 412.787 158.647 432.638 155.227Z" fill="#FF8076"/>
<path d="M437.6 180.27C436.939 162.398 432.638 155.227 432.638 155.227C412.787 158.647 412.566 174.533 412.566 174.533V200.239C418.522 200.239 428.337 199.687 437.821 197.15C437.821 190.31 437.821 184.352 437.6 180.27Z" fill="#BC3535"/>
<path d="M412.566 217.781L423.043 220.319" stroke="#A50000" stroke-width="0.9198" stroke-miterlimit="10" stroke-linecap="round"/>
<path opacity="0.49" d="M417.861 244.038C427.235 247.569 437.271 240.839 437.712 230.91C435.837 230.027 433.632 229.586 431.426 229.586C423.486 229.586 416.869 235.543 415.986 243.377L417.861 244.038Z" fill="#B0322F"/>
<path d="M350.037 218.664C350.037 218.664 361.948 215.354 367.903 215.795" stroke="#A50000" stroke-width="0.9198" stroke-miterlimit="10" stroke-linecap="round"/>
</svg>
