<svg width="61" height="93" viewBox="0 0 61 93" fill="none" xmlns="http://www.w3.org/2000/svg">
<path d="M33.2181 46.7205V43.1879H34.0501C38.4186 43.1879 41.9724 39.634 41.9724 35.2656C41.9724 30.8971 38.4186 27.3433 34.0501 27.3433H28.3371C27.0847 27.3433 26.0659 26.3246 26.0659 25.0721C26.0659 23.8196 27.0848 22.8007 28.3371 22.8007H37.9825V17.3519H33.2181V13.8193H27.7694V17.375C23.7769 17.6669 20.6172 21.0064 20.6172 25.0721C20.6172 29.329 24.0804 32.792 28.3371 32.792H34.0501C35.4141 32.792 36.5237 33.9016 36.5237 35.2656C36.5237 36.6296 35.4141 37.7391 34.0501 37.7391H21.7396V43.1879H27.7694V46.7205H33.2181Z" fill="#CA000F"/>
<path d="M60.7698 30.2697C60.7698 13.579 47.1908 0 30.5 0C13.8095 0 0.230469 13.579 0.230469 30.2697C0.230469 44.0683 9.51149 55.7393 22.1586 59.37V69.9384H12.4429L30.498 93.0002L48.553 69.9384H38.8375V59.3713C51.4868 55.7419 60.7698 44.0698 60.7698 30.2697ZM5.67921 30.2697C5.67921 16.5834 16.8139 5.44874 30.5 5.44874C44.1864 5.44874 55.321 16.5834 55.321 30.2697C55.321 43.9559 44.1864 55.0906 30.5 55.0906C16.8139 55.0906 5.67921 43.9561 5.67921 30.2697ZM37.3673 75.3869L30.498 84.161L23.6288 75.3869H27.6073V60.4004C28.5597 60.4912 29.5243 60.5393 30.5 60.5393C31.4744 60.5393 32.4376 60.4912 33.3886 60.4007V75.3869H37.3673Z" fill="#CA000F"/>
</svg>
