<svg width="101" height="101" viewBox="0 0 101 101" fill="none" xmlns="http://www.w3.org/2000/svg">
<path d="M60.5783 62.5707C60.8022 62.4086 60.9763 62.1871 61.0808 61.9312C61.1854 61.6753 61.2163 61.3953 61.1701 61.1228L59.5426 51.6343L66.4351 44.9154C66.6326 44.7228 66.7723 44.4788 66.8384 44.2109C66.9046 43.9431 66.8945 43.6621 66.8093 43.3997C66.7242 43.1372 66.5674 42.9039 66.3566 42.7259C66.1458 42.5479 65.8894 42.4324 65.6164 42.3924L56.0885 41.0115L51.8295 32.3792C51.707 32.1318 51.5178 31.9235 51.2832 31.7779C51.0486 31.6323 50.778 31.5552 50.5019 31.5552C50.2259 31.5552 49.9552 31.6323 49.7207 31.7779C49.4861 31.9235 49.2969 32.1318 49.1743 32.3792L44.9154 41.0115L35.3874 42.3924C35.1145 42.4324 34.8581 42.5479 34.6473 42.7259C34.4365 42.9039 34.2797 43.1372 34.1945 43.3997C34.1094 43.6621 34.0993 43.9431 34.1655 44.2109C34.2316 44.4788 34.3713 44.7228 34.5688 44.9154L41.4613 51.6343L39.8338 61.1228C39.787 61.3949 39.8173 61.6746 39.9213 61.9304C40.0252 62.1862 40.1986 62.4077 40.4219 62.5701C40.6452 62.7324 40.9095 62.8291 41.1849 62.849C41.4602 62.869 41.7357 62.8116 41.9801 62.6832L50.5 58.2032L59.0218 62.6832C59.2657 62.8122 59.541 62.8701 59.8162 62.8502C60.0914 62.8303 60.3555 62.7335 60.5783 62.5707ZM56.917 50.0581C56.7457 50.2259 56.6177 50.4328 56.5438 50.6609C56.4699 50.889 56.4525 51.1316 56.4929 51.368L57.7436 58.6668L51.1884 55.2206C50.9756 55.1085 50.7386 55.0499 50.498 55.0499C50.2574 55.0499 50.0204 55.1085 49.8076 55.2206L43.2524 58.6668L44.5031 51.368C44.5435 51.1316 44.5261 50.889 44.4522 50.6609C44.3783 50.4328 44.2503 50.2259 44.079 50.0581L38.7745 44.8898L46.1049 43.8246C46.3422 43.7899 46.5675 43.6979 46.7614 43.5567C46.9552 43.4154 47.1118 43.2291 47.2175 43.0138L50.5 36.3719L53.7785 43.0138C53.8842 43.2291 54.0408 43.4154 54.2346 43.5567C54.4285 43.6979 54.6538 43.7899 54.8911 43.8246L62.2215 44.8898L56.917 50.0581Z" fill="#CA000F"/>
<path d="M78.1705 68.0349C76.1051 68.6267 73.0593 69.546 69.9603 70.4968C69.9847 70.4077 70.0205 70.3222 70.0668 70.2423L70.414 69.6604C70.5527 69.4238 70.7786 69.2509 71.0433 69.1791C73.3434 68.5577 76.9257 67.9225 76.9613 67.9166L77.0441 67.8988C77.5006 67.7913 77.9297 67.5897 78.3038 67.3067C78.6779 67.0238 78.9887 66.6658 79.2164 66.2557C79.4441 65.8457 79.5836 65.3926 79.626 64.9255C79.6684 64.4584 79.6127 63.9875 79.4626 63.5432L77.3439 57.2544C77.3188 57.1797 77.3154 57.0994 77.3343 57.0228C77.3531 56.9463 77.3935 56.8768 77.4505 56.8224L82.2815 52.2754C82.6225 51.9534 82.8926 51.5639 83.0746 51.1317C83.2566 50.6995 83.3465 50.2341 83.3385 49.7652C83.3305 49.2963 83.2249 48.8342 83.0283 48.4085C82.8317 47.9827 82.5484 47.6026 82.1967 47.2925L77.2177 42.9053C77.1588 42.8533 77.1161 42.7855 77.0944 42.7101C77.0727 42.6346 77.0731 42.5545 77.0954 42.4792L79.003 36.1213C79.1373 35.672 79.1764 35.1997 79.118 34.7344C79.0595 34.2692 78.9047 33.8212 78.6633 33.4192C78.422 33.0171 78.0995 32.6698 77.7165 32.3993C77.3334 32.1289 76.8981 31.9413 76.4385 31.8485L69.9287 30.5407C69.8515 30.5248 69.7804 30.4872 69.7238 30.4324C69.6672 30.3775 69.6274 30.3076 69.6092 30.2309L68.0823 23.7725C67.9743 23.316 67.7723 22.8871 67.4891 22.5132C67.2059 22.1393 66.8477 21.8286 66.4376 21.6009C66.0275 21.3733 65.5744 21.2338 65.1072 21.1913C64.6401 21.1487 64.1692 21.2042 63.7247 21.354L57.4398 23.4746C57.3655 23.4996 57.2855 23.5029 57.2093 23.484C57.1331 23.4651 57.0639 23.4249 57.0098 23.3681L52.4589 18.5311C52.1369 18.1901 51.7474 17.92 51.3152 17.738C50.883 17.556 50.4176 17.4661 49.9487 17.4741C49.4798 17.4821 49.0177 17.5878 48.592 17.7844C48.1662 17.981 47.7861 18.2642 47.476 18.6159L43.0888 23.5949C43.0366 23.6542 42.9685 23.6972 42.8927 23.7188C42.8168 23.7405 42.7363 23.74 42.6607 23.7172L36.2969 21.8117C35.8476 21.6767 35.3751 21.6371 34.9097 21.6953C34.4442 21.7535 33.996 21.9082 33.5938 22.1496C33.1916 22.391 32.8442 22.7138 32.5739 23.0972C32.3036 23.4805 32.1164 23.9162 32.0241 24.3761L30.7163 30.8859C30.7004 30.9631 30.6628 31.0342 30.608 31.0908C30.5531 31.1474 30.4832 31.1872 30.4066 31.2054L23.9481 32.7323C23.4928 32.8412 23.0652 33.0438 22.6925 33.3272C22.3198 33.6105 22.0102 33.9684 21.7834 34.3779C21.5567 34.7875 21.4177 35.2398 21.3753 35.706C21.333 36.1723 21.3882 36.6422 21.5375 37.0859L23.6561 43.3748C23.6813 43.4494 23.6847 43.5298 23.6658 43.6063C23.6469 43.6828 23.6066 43.7524 23.5496 43.8068L18.7186 48.3557C18.3776 48.6775 18.1075 49.0668 17.9256 49.4989C17.7436 49.9309 17.6537 50.3962 17.6617 50.8649C17.6697 51.3337 17.7753 51.7956 17.9719 52.2212C18.1685 52.6468 18.4517 53.0267 18.8034 53.3367L23.7824 57.7239C23.8412 57.7763 23.8839 57.8444 23.9056 57.9202C23.9272 57.9959 23.9269 58.0763 23.9047 58.1519C23.9047 58.1815 23.8869 58.2111 23.881 58.2407L22.6244 63.6438C19.1032 64.2715 15.6952 65.4203 12.5126 67.0526C12.1814 67.248 11.9394 67.5647 11.8377 67.9355C11.736 68.3063 11.7827 68.7022 11.9679 69.0392C12.153 69.3762 12.4621 69.6278 12.8297 69.7409C13.1972 69.8539 13.5943 69.8194 13.9368 69.6446C14.0158 69.6032 21.8275 65.3817 30.1738 66.2398C34.6024 66.6955 37.1451 68.3328 39.39 69.7788C41.0628 70.8558 42.6449 71.8737 44.657 72.1775C53.818 73.5584 57.071 74.5052 57.0848 77.1092C57.0972 77.2767 57.0653 77.4446 56.9922 77.596C56.9192 77.7473 56.8075 77.8767 56.6685 77.9712C56.0886 78.4091 54.035 79.3146 47.474 78.2789C45.0209 77.8806 42.591 77.3505 40.1949 76.6909C39.8184 76.5853 39.4155 76.6331 39.0741 76.8237C38.7327 77.0142 38.4806 77.3322 38.373 77.7081C38.2653 78.084 38.3108 78.4872 38.4996 78.8296C38.6883 79.172 39.0049 79.4258 39.3802 79.5355C41.8822 80.2275 44.4202 80.782 46.9828 81.1965C48.8674 81.5173 50.7741 81.6914 52.6857 81.7173C55.3232 81.7173 57.2229 81.2557 58.4518 80.3364C58.9577 79.9658 59.3667 79.4785 59.6439 78.9159C59.921 78.3534 60.0582 77.7322 60.0438 77.1052C60.0438 76.9612 60.0438 76.8251 60.026 76.689C63.344 75.6435 74.0319 72.2939 78.9891 70.8775C81.4806 70.1654 82.7865 70.7335 83.0568 71.2878C83.2895 71.7652 82.9976 72.6687 81.8061 73.5446C80.0603 74.813 73.1895 78.6242 65.7447 82.2736C57.2288 86.4457 50.936 88.9411 48.912 88.9471H48.8055C36.143 88.9471 13.8737 82.4235 13.6488 82.3584C13.2724 82.2475 12.8673 82.2906 12.5227 82.4784C12.1781 82.6661 11.9222 82.9831 11.8113 83.3595C11.7004 83.7359 11.7436 84.141 11.9313 84.4856C12.1191 84.8302 12.436 85.0861 12.8124 85.197C12.8696 85.2128 18.6081 86.9014 25.8655 88.5506C35.5868 90.7737 43.3038 91.9041 48.8036 91.9041H48.9219C54.9503 91.8863 79.9301 78.565 83.548 75.9256C85.7869 74.2981 86.6588 71.9073 85.7179 69.98C84.8598 68.2539 82.4314 66.8158 78.1705 68.0349ZM45.0969 69.2501C43.7161 69.043 42.5108 68.2638 40.9918 67.2912C38.5931 65.7467 35.6085 63.8233 30.4756 63.2966C28.9067 63.14 27.327 63.1228 25.755 63.2453L26.7532 58.9509C26.9255 58.3392 26.9218 57.6914 26.7424 57.0817C26.5631 56.4721 26.2154 55.9255 25.7392 55.5046L20.7583 51.1174C20.7156 51.079 20.6815 51.0319 20.6581 50.9794C20.6348 50.9269 20.6227 50.8701 20.6227 50.8127C20.6227 50.7552 20.6348 50.6984 20.6581 50.6459C20.6815 50.5934 20.7156 50.5464 20.7583 50.5079L25.5775 45.9629C26.0457 45.5199 26.3776 44.9524 26.5341 44.3272C26.6907 43.702 26.6654 43.0451 26.4612 42.4338L24.3406 36.1391C24.322 36.0847 24.3151 36.0271 24.3202 35.9699C24.3252 35.9127 24.3423 35.8572 24.3702 35.807C24.3981 35.7568 24.4362 35.713 24.4821 35.6784C24.528 35.6439 24.5806 35.6194 24.6365 35.6064L31.095 34.0796C31.7222 33.9303 32.2935 33.6046 32.7416 33.1411C33.1897 32.6777 33.4958 32.0957 33.624 31.4639L34.9318 24.9541C34.9434 24.898 34.9665 24.8449 34.9996 24.7982C35.0328 24.7514 35.0753 24.7121 35.1244 24.6826C35.1735 24.6531 35.2282 24.6342 35.2851 24.6269C35.3419 24.6196 35.3996 24.6243 35.4546 24.6404L41.8203 26.5519C42.438 26.7359 43.0954 26.7395 43.7151 26.5623C44.3347 26.3851 44.8908 26.0345 45.3179 25.5518L49.7031 20.5709C49.7406 20.527 49.7872 20.492 49.8397 20.4681C49.8921 20.4443 49.9492 20.4322 50.0069 20.4328C50.064 20.4314 50.1207 20.4422 50.1734 20.4643C50.2261 20.4864 50.2735 20.5193 50.3126 20.561L54.8636 25.3901C55.3061 25.8583 55.8732 26.1902 56.4981 26.3468C57.123 26.5034 57.7797 26.478 58.3907 26.2738L64.6795 24.1532C64.7339 24.1352 64.7913 24.1287 64.8483 24.1341C64.9053 24.1395 64.9606 24.1566 65.0107 24.1844C65.0607 24.2122 65.1044 24.2501 65.1391 24.2956C65.1738 24.3412 65.1986 24.3934 65.2121 24.4491L66.7389 30.9076C66.8883 31.5347 67.2139 32.106 67.6774 32.5541C68.1409 33.0022 68.7229 33.3084 69.3547 33.4365L75.8644 34.7464C75.9216 34.7572 75.9756 34.7804 76.0226 34.8145C76.0697 34.8486 76.1086 34.8927 76.1367 34.9436C76.1671 34.9922 76.1866 35.0469 76.1937 35.1038C76.2009 35.1607 76.1956 35.2184 76.1781 35.2731L74.2607 41.623C74.0767 42.2407 74.0731 42.8981 74.2503 43.5178C74.4275 44.1374 74.7781 44.6935 75.2608 45.1206L80.2418 49.5137C80.2851 49.5517 80.3199 49.5984 80.344 49.6507C80.3681 49.703 80.381 49.7598 80.3818 49.8175C80.3837 49.8748 80.373 49.9319 80.3505 49.9847C80.328 50.0375 80.2943 50.0848 80.2516 50.1232L75.4226 54.6741C74.9542 55.1174 74.6223 55.6852 74.4657 56.3108C74.3091 56.9363 74.3345 57.5936 74.5388 58.2052L76.6594 64.494C76.678 64.5482 76.685 64.6058 76.6799 64.6629C76.6748 64.72 76.6578 64.7754 76.6298 64.8254C76.5783 64.92 76.492 64.9907 76.3892 65.0227C75.896 65.1115 72.5642 65.7131 70.2739 66.3325C69.2674 66.6043 68.4067 67.2583 67.8752 68.1553L67.53 68.7352C67.0859 69.4809 66.893 70.3494 66.9796 71.2129C66.9796 71.2839 66.9934 71.351 67.0013 71.4101C63.5965 72.4655 60.5034 73.4361 59.0298 73.8996C56.8816 71.0156 51.51 70.2147 45.0969 69.2501Z" fill="#CA000F"/>
<path d="M49.9082 16.3731C50.3006 16.3731 50.6769 16.2172 50.9544 15.9397C51.2318 15.6623 51.3877 15.2859 51.3877 14.8936V10.5715C51.3877 10.1791 51.2318 9.80277 50.9544 9.52531C50.6769 9.24785 50.3006 9.09198 49.9082 9.09198C49.5158 9.09198 49.1395 9.24785 48.862 9.52531C48.5846 9.80277 48.4287 10.1791 48.4287 10.5715V14.8975C48.4298 15.2892 48.5861 15.6645 48.8634 15.9411C49.1408 16.2177 49.5165 16.3731 49.9082 16.3731Z" fill="#CA000F"/>
<path d="M40.5559 21.0384C40.6398 21.3531 40.8254 21.6312 41.0836 21.8295C41.3419 22.0279 41.6585 22.1353 41.9841 22.1352C42.1134 22.1345 42.242 22.1173 42.3668 22.0839C42.746 21.9822 43.0693 21.7341 43.2657 21.3942C43.4621 21.0543 43.5155 20.6503 43.4143 20.271L42.4082 16.523C42.3579 16.3353 42.271 16.1594 42.1526 16.0053C42.0343 15.8512 41.8867 15.7219 41.7183 15.6248C41.3784 15.4287 40.9744 15.3757 40.5954 15.4775C40.2163 15.5792 39.8932 15.8274 39.6972 16.1674C39.5011 16.5074 39.4481 16.9113 39.5499 17.2904L40.5559 21.0384Z" fill="#CA000F"/>
<path d="M27.3273 29.9114C27.4649 30.0488 27.6283 30.1578 27.8081 30.232C27.9879 30.3063 28.1806 30.3444 28.3751 30.3443C28.5697 30.3441 28.7623 30.3056 28.9419 30.231C29.1216 30.1563 29.2848 30.0471 29.4222 29.9094C29.5596 29.7717 29.6686 29.6083 29.7429 29.4285C29.8172 29.2487 29.8553 29.056 29.8551 28.8615C29.8549 28.667 29.8164 28.4744 29.7418 28.2947C29.6672 28.1151 29.5579 27.9519 29.4202 27.8144L26.6723 25.0724C26.5358 24.9312 26.3725 24.8186 26.1919 24.7411C26.0114 24.6637 25.8172 24.6229 25.6208 24.6213C25.4244 24.6197 25.2295 24.6572 25.0478 24.7317C24.866 24.8062 24.7008 24.9161 24.562 25.0551C24.4231 25.1941 24.3134 25.3593 24.2391 25.5412C24.1648 25.723 24.1274 25.9179 24.1292 26.1143C24.131 26.3108 24.1719 26.5049 24.2495 26.6853C24.3272 26.8658 24.4399 27.029 24.5813 27.1654L27.3273 29.9114Z" fill="#CA000F"/>
<path d="M15.5111 41.3923C15.4604 41.58 15.4472 41.7758 15.4724 41.9686C15.4975 42.1614 15.5604 42.3473 15.6576 42.5157C15.7547 42.6841 15.8841 42.8317 16.0384 42.95C16.1926 43.0683 16.3687 43.155 16.5566 43.2052L20.3046 44.2112C20.4296 44.244 20.5582 44.2605 20.6873 44.2605C21.0457 44.2597 21.3915 44.1288 21.6607 43.8922C21.9298 43.6556 22.1039 43.3294 22.1507 42.9741C22.1975 42.6188 22.1137 42.2586 21.9149 41.9604C21.7162 41.6623 21.416 41.4464 21.07 41.3528L17.322 40.3468C17.1344 40.2964 16.9388 40.2834 16.7462 40.3087C16.5537 40.334 16.368 40.397 16.1998 40.4941C16.0316 40.5912 15.8842 40.7205 15.766 40.8746C15.6478 41.0287 15.5612 41.2046 15.5111 41.3923Z" fill="#CA000F"/>
<path d="M15.1993 60.5724C15.2838 60.8867 15.4695 61.1644 15.7276 61.3627C15.9858 61.5609 16.302 61.6686 16.6275 61.6692C16.7574 61.6693 16.8868 61.6521 17.0122 61.6179L21.1548 60.5073C21.5338 60.4055 21.8569 60.1573 22.053 59.8174C22.249 59.4774 22.302 59.0734 22.2003 58.6944C22.0985 58.3153 21.8503 57.9922 21.5104 57.7962C21.1704 57.6001 20.7664 57.5471 20.3874 57.6489L16.2448 58.7615C16.0572 58.8116 15.8813 58.8982 15.7272 59.0164C15.573 59.1346 15.4437 59.282 15.3466 59.4502C15.2495 59.6183 15.1865 59.804 15.1613 59.9966C15.136 60.1891 15.1489 60.3848 15.1993 60.5724Z" fill="#CA000F"/>
<path d="M78.8807 57.1538C78.8303 57.3413 78.8174 57.537 78.8426 57.7295C78.8679 57.9221 78.9309 58.1078 79.028 58.276C79.1251 58.4442 79.2544 58.5916 79.4086 58.7097C79.5627 58.8279 79.7386 58.9145 79.9262 58.9647L83.6743 59.9707C83.7992 60.0035 83.9278 60.02 84.057 60.02C84.4153 60.0192 84.7612 59.8883 85.0303 59.6517C85.2994 59.4151 85.4736 59.0889 85.5203 58.7336C85.5671 58.3783 85.4833 58.0181 85.2846 57.72C85.0858 57.4218 84.7856 57.2059 84.4396 57.1123L80.6916 56.1063C80.5039 56.0559 80.3081 56.0431 80.1155 56.0685C79.9228 56.0939 79.7371 56.157 79.5688 56.2543C79.4006 56.3516 79.2533 56.4812 79.1352 56.6355C79.0171 56.7898 78.9306 56.966 78.8807 57.1538Z" fill="#CA000F"/>
<path d="M83.3724 39.2085L79.6243 40.2146C79.2784 40.3081 78.9782 40.524 78.7794 40.8222C78.5807 41.1204 78.4969 41.4805 78.5437 41.8358C78.5904 42.1911 78.7645 42.5174 79.0337 42.7539C79.3028 42.9905 79.6487 43.1214 80.007 43.1223C80.137 43.1225 80.2664 43.1053 80.3917 43.071L84.1397 42.0669C84.5188 41.9651 84.8419 41.717 85.038 41.377C85.234 41.037 85.287 40.6331 85.1853 40.254C85.0835 39.875 84.8353 39.5519 84.4954 39.3558C84.1554 39.1597 83.7514 39.1067 83.3724 39.2085Z" fill="#CA000F"/>
<path d="M70.7474 29.0789C71.0254 29.3556 71.4017 29.511 71.7939 29.511C72.1861 29.511 72.5624 29.3556 72.8404 29.0789L75.5863 26.331C75.8557 26.0519 76.0046 25.6781 76.0011 25.2902C75.9975 24.9022 75.8418 24.5312 75.5673 24.2571C75.2929 23.9829 74.9217 23.8275 74.5338 23.8243C74.1459 23.8211 73.7722 23.9704 73.4933 24.24L70.7474 26.986C70.6099 27.1234 70.5008 27.2865 70.4264 27.4661C70.352 27.6456 70.3137 27.8381 70.3137 28.0325C70.3137 28.2268 70.352 28.4193 70.4264 28.5988C70.5008 28.7784 70.6099 28.9416 70.7474 29.0789Z" fill="#CA000F"/>
<path d="M57.495 21.7781C57.6196 21.8125 57.7484 21.8297 57.8777 21.8294C58.2032 21.8289 58.5194 21.7211 58.7776 21.5229C59.0357 21.3247 59.2214 21.0469 59.3059 20.7326L60.3119 16.9846C60.4134 16.6055 60.3602 16.2017 60.164 15.8619C59.9677 15.5221 59.6445 15.2742 59.2655 15.1727C58.8864 15.0712 58.4826 15.1244 58.1428 15.3207C57.803 15.5169 57.5551 15.8401 57.4536 16.2192L56.4475 19.9672C56.3463 20.3463 56.3998 20.75 56.5963 21.0896C56.7927 21.4292 57.116 21.6768 57.495 21.7781Z" fill="#CA000F"/>
<path d="M31.0773 20.6557C31.207 20.8809 31.3939 21.0679 31.619 21.1977C31.8442 21.3276 32.0996 21.3958 32.3595 21.3955C32.6192 21.3968 32.8746 21.3287 33.0992 21.1982C33.4386 21.0018 33.6861 20.6788 33.7875 20.3C33.8888 19.9213 33.8357 19.5178 33.6397 19.1782L31.4698 15.4301C31.3727 15.2618 31.2433 15.1142 31.0891 14.9958C30.9349 14.8774 30.7589 14.7905 30.5712 14.7401C30.3834 14.6898 30.1876 14.6769 29.9948 14.7022C29.8021 14.7275 29.6162 14.7905 29.4478 14.8877C29.2795 14.9848 29.1319 15.1142 29.0135 15.2684C28.8951 15.4225 28.8082 15.5985 28.7578 15.7863C28.7075 15.9741 28.6946 16.1699 28.7199 16.3626C28.7452 16.5554 28.8082 16.7413 28.9054 16.9096L31.0773 20.6557Z" fill="#CA000F"/>
<path d="M15.1895 32.1543L18.9376 34.3242C19.106 34.4214 19.2918 34.4844 19.4846 34.5097C19.6773 34.535 19.8732 34.5221 20.0609 34.4718C20.2487 34.4214 20.4247 34.3345 20.5789 34.2161C20.7331 34.0978 20.8624 33.9502 20.9596 33.7818C21.0567 33.6134 21.1197 33.4275 21.145 33.2348C21.1704 33.042 21.1575 32.8462 21.1071 32.6584C21.0567 32.4707 20.9698 32.2947 20.8515 32.1405C20.7331 31.9863 20.5855 31.8569 20.4171 31.7598L16.669 29.5899C16.5006 29.4927 16.3148 29.4297 16.122 29.4044C15.9293 29.3791 15.7335 29.392 15.5457 29.4423C15.3579 29.4927 15.1819 29.5796 15.0278 29.698C14.8736 29.8164 14.7442 29.964 14.6471 30.1324C14.5499 30.3007 14.4869 30.4866 14.4616 30.6793C14.4363 30.8721 14.4492 31.0679 14.4995 31.2557C14.5499 31.4434 14.6368 31.6194 14.7552 31.7736C14.8736 31.9278 15.0212 32.0572 15.1895 32.1543Z" fill="#CA000F"/>
<path d="M16.7184 50.7485C16.7184 50.3562 16.5625 49.9798 16.285 49.7024C16.0076 49.4249 15.6313 49.269 15.2389 49.269H10.9128C10.5205 49.269 10.1441 49.4249 9.86668 49.7024C9.58922 49.9798 9.43335 50.3562 9.43335 50.7485C9.43335 51.1409 9.58922 51.5172 9.86668 51.7947C10.1441 52.0722 10.5205 52.228 10.9128 52.228H15.2389C15.6313 52.228 16.0076 52.0722 16.285 51.7947C16.5625 51.5172 16.7184 51.1409 16.7184 50.7485Z" fill="#CA000F"/>
<path d="M90.0873 48.0894H85.7612C85.3688 48.0894 84.9925 48.2453 84.7151 48.5228C84.4376 48.8002 84.2817 49.1765 84.2817 49.5689C84.2817 49.9613 84.4376 50.3376 84.7151 50.6151C84.9925 50.8925 85.3688 51.0484 85.7612 51.0484H90.0873C90.4797 51.0484 90.856 50.8925 91.1334 50.6151C91.4109 50.3376 91.5668 49.9613 91.5668 49.5689C91.5668 49.1765 91.4109 48.8002 91.1334 48.5228C90.856 48.2453 90.4797 48.0894 90.0873 48.0894Z" fill="#CA000F"/>
<path d="M80.7448 33.4977C81.0038 33.4978 81.2583 33.4297 81.4826 33.3004L85.2307 31.1305C85.399 31.0333 85.5466 30.904 85.665 30.7498C85.7834 30.5956 85.8703 30.4196 85.9207 30.2318C85.971 30.0441 85.9839 29.8482 85.9586 29.6555C85.9333 29.4627 85.8703 29.2769 85.7731 29.1085C85.676 28.9401 85.5466 28.7925 85.3925 28.6741C85.2383 28.5557 85.0623 28.4689 84.8745 28.4185C84.6868 28.3681 84.4909 28.3552 84.2982 28.3805C84.1054 28.4058 83.9196 28.4689 83.7512 28.566L80.0031 30.7359C79.7204 30.8986 79.4995 31.1502 79.3745 31.4515C79.2496 31.7528 79.2278 32.0869 79.3124 32.4019C79.397 32.7169 79.5833 32.9951 79.8423 33.1933C80.1014 33.3915 80.4187 33.4985 80.7448 33.4977Z" fill="#CA000F"/>
<path d="M66.873 20.6084C67.2128 20.8042 67.6165 20.857 67.9953 20.7553C68.374 20.6535 68.6969 20.4056 68.893 20.0659L71.0629 16.3178C71.16 16.1495 71.2231 15.9636 71.2484 15.7708C71.2737 15.5781 71.2608 15.3823 71.2104 15.1945C71.16 15.0067 71.0732 14.8307 70.9548 14.6766C70.8364 14.5224 70.6888 14.393 70.5204 14.2959C70.352 14.1987 70.1662 14.1357 69.9734 14.1104C69.7807 14.0851 69.5848 14.098 69.3971 14.1483C69.2093 14.1987 69.0333 14.2856 68.8791 14.404C68.7249 14.5224 68.5956 14.67 68.4984 14.8383L66.3285 18.5864C66.2313 18.7549 66.1683 18.9408 66.1431 19.1337C66.1179 19.3265 66.1309 19.5225 66.1815 19.7103C66.2321 19.8981 66.3192 20.0741 66.4378 20.2282C66.5565 20.3823 66.7043 20.5115 66.873 20.6084Z" fill="#CA000F"/>
</svg>
