<svg width="84" height="84" viewBox="0 0 84 84" fill="none" xmlns="http://www.w3.org/2000/svg">
<g clip-path="url(#clip0_2616_5153)">
<path d="M75.0374 16.0677H77.6328C78.5382 16.0677 79.2724 15.3336 79.2724 14.4282C79.2724 13.5228 78.5382 12.7886 77.6328 12.7886H71.4025C70.4972 12.7886 69.763 13.5228 69.763 14.4282V20.6585C69.763 21.5638 70.4972 22.298 71.4025 22.298C72.3079 22.298 73.0421 21.5638 73.0421 20.6585V18.8545C78.0168 25.5145 80.7209 33.5953 80.7209 42C80.7209 63.3509 63.3509 80.7209 42 80.7209C20.6491 80.7209 3.2791 63.3509 3.2791 42C3.2791 20.6491 20.6491 3.2791 42 3.2791C43.579 3.2791 45.1683 3.37501 46.7239 3.56405C47.6215 3.67259 48.4401 3.03333 48.5493 2.13436C48.6587 1.23556 48.0186 0.418085 47.1197 0.308891C45.4332 0.103947 43.7109 0 42 0C30.7814 0 20.2342 4.36874 12.3015 12.3015C4.36874 20.2342 0 30.7814 0 42C0 53.2186 4.36874 63.7658 12.3015 71.6985C20.2342 79.6313 30.7814 84 42 84C53.2186 84 63.7658 79.6313 71.6985 71.6985C79.6313 63.7658 84 53.2186 84 42C84 32.5331 80.8373 23.4447 75.0374 16.0677Z" fill="#CA000F"/>
<path d="M17.7837 24.7593C17.0185 24.275 16.0058 24.5029 15.5213 25.2676C11.7784 31.1791 10.1215 38.2886 10.8558 45.2863C11.601 52.3879 14.7973 59.0848 19.8559 64.1436C25.9608 70.2484 33.98 73.301 41.9994 73.301C50.0187 73.301 58.0378 70.2486 64.1428 64.1436C76.3527 51.9337 76.3527 32.0666 64.1428 19.8569C59.0918 14.8061 52.4059 11.611 45.3162 10.8601C38.3314 10.1198 31.2297 11.7638 25.3206 15.4883C24.5544 15.9712 24.325 16.9836 24.8077 17.7496C25.2906 18.5158 26.303 18.7451 27.069 18.2625C38.2077 11.2419 52.4992 12.8508 61.824 22.1756C72.7553 33.1069 72.7553 50.8934 61.824 61.8248C50.8928 72.7563 33.106 72.7563 22.1748 61.8248C12.9789 52.6289 11.3459 37.9921 18.292 27.0219C18.7761 26.2567 18.5487 25.2438 17.7837 24.7593Z" fill="#CA000F"/>
<path d="M63.3134 43.6663H65.3353C66.2406 43.6663 66.9748 42.9321 66.9748 42.0268C66.9748 41.1214 66.2406 40.3872 65.3353 40.3872H63.3134C62.408 40.3872 61.6738 41.1214 61.6738 42.0268C61.6738 42.9321 62.4079 43.6663 63.3134 43.6663Z" fill="#CA000F"/>
<path d="M17.0234 41.9735C17.0234 42.8789 17.7576 43.6131 18.663 43.6131H20.6849C21.5902 43.6131 22.3244 42.8789 22.3244 41.9735C22.3244 41.0682 21.5902 40.334 20.6849 40.334H18.663C17.7576 40.334 17.0234 41.068 17.0234 41.9735Z" fill="#CA000F"/>
<path d="M43.6658 20.6859V18.664C43.6658 17.7586 42.9316 17.0244 42.0263 17.0244C41.1209 17.0244 40.3867 17.7586 40.3867 18.664V20.6859C40.3867 21.5912 41.1209 22.3254 42.0263 22.3254C42.9316 22.3254 43.6658 21.5912 43.6658 20.6859Z" fill="#CA000F"/>
<path d="M40.334 63.3144V65.3362C40.334 66.2416 41.0682 66.9758 41.9735 66.9758C42.8789 66.9758 43.6131 66.2416 43.6131 65.3362V63.3144C43.6131 62.409 42.8789 61.6748 41.9735 61.6748C41.0682 61.6748 40.334 62.4088 40.334 63.3144Z" fill="#CA000F"/>
<path d="M33.7814 31.4633C33.141 30.8232 32.1032 30.8232 31.4626 31.4633C30.8224 32.1036 30.8224 33.1417 31.4626 33.7821L37.0192 39.3387C36.5934 40.1323 36.3512 41.0384 36.3512 42.0002C36.3512 45.1147 38.885 47.6485 41.9995 47.6485C45.114 47.6485 47.6477 45.1147 47.6477 42.0002C47.6477 41.0384 47.4054 40.1323 46.9798 39.3387L58.1915 28.127C58.8318 27.4868 58.8318 26.4486 58.1915 25.8082C57.5511 25.1681 56.5133 25.1681 55.8727 25.8082L44.661 37.0199C43.8674 36.5941 42.9613 36.352 41.9995 36.352C41.0377 36.352 40.1316 36.5943 39.338 37.0199L33.7814 31.4633ZM44.3686 42.0002C44.3686 43.3066 43.3059 44.3694 41.9995 44.3694C40.6931 44.3694 39.6303 43.3066 39.6303 42.0002C39.6303 40.6938 40.6931 39.6311 41.9995 39.6311C43.3059 39.6311 44.3686 40.6938 44.3686 42.0002Z" fill="#CA000F"/>
<path d="M22.1737 22.1747C22.4803 21.8697 22.6556 21.4467 22.6556 21.0155C22.6556 20.5843 22.4803 20.163 22.1737 19.8564C21.8688 19.5516 21.4472 19.376 21.0145 19.376C20.5833 19.376 20.1603 19.5514 19.8554 19.8564C19.5506 20.1613 19.375 20.5843 19.375 21.0155C19.375 21.4484 19.5504 21.8697 19.8554 22.1747C20.1603 22.4795 20.5833 22.6551 21.0145 22.6551C21.4472 22.6551 21.8688 22.4795 22.1737 22.1747Z" fill="#CA000F"/>
<path d="M53.3563 4.89873C53.7893 4.89873 54.2124 4.72477 54.5171 4.41834C54.8221 4.11338 54.9977 3.69185 54.9977 3.25918C54.9977 2.82798 54.8223 2.40497 54.5171 2.10002C54.2124 1.79522 53.7893 1.61963 53.3563 1.61963C52.9251 1.61963 52.5021 1.79506 52.1973 2.10002C51.8924 2.40497 51.7168 2.82798 51.7168 3.25918C51.7168 3.69202 51.8922 4.11338 52.1973 4.41834C52.5021 4.72477 52.9251 4.89873 53.3563 4.89873Z" fill="#CA000F"/>
</g>
<defs>
<clipPath id="clip0_2616_5153">
<rect width="84" height="84" fill="white"/>
</clipPath>
</defs>
</svg>
