<svg width="32" height="32" viewBox="0 0 32 32" fill="none" xmlns="http://www.w3.org/2000/svg">
<path d="M24 22C23.7663 22.0005 23.5399 21.9191 23.36 21.77L18.84 18H17C14.8783 18 12.8434 17.1571 11.3431 15.6569C9.84285 14.1566 9 12.1217 9 10C9 7.87827 9.84285 5.84344 11.3431 4.34315C12.8434 2.84285 14.8783 2 17 2H23C24.9431 2.00555 26.8178 2.71814 28.274 4.00472C29.7303 5.2913 30.6684 7.06391 30.9133 8.99156C31.1583 10.9192 30.6933 12.8701 29.6051 14.48C28.5169 16.0899 26.88 17.2487 25 17.74V21C25.0005 21.1913 24.9461 21.3787 24.8433 21.5399C24.7405 21.7012 24.5936 21.8297 24.42 21.91C24.2882 21.9701 24.1449 22.0008 24 22ZM17 4C15.4087 4 13.8826 4.63214 12.7574 5.75736C11.6321 6.88258 11 8.4087 11 10C11 11.5913 11.6321 13.1174 12.7574 14.2426C13.8826 15.3679 15.4087 16 17 16H19.2C19.4337 15.9995 19.6601 16.0809 19.84 16.23L23 18.86V16.92C22.9976 16.6773 23.0835 16.4421 23.2418 16.2581C23.4 16.0741 23.6197 15.954 23.86 15.92C25.3378 15.6778 26.6716 14.8918 27.5994 13.7163C28.5272 12.5408 28.9819 11.0609 28.8741 9.56722C28.7663 8.07359 28.1039 6.67425 27.017 5.64412C25.9301 4.61399 24.4973 4.02754 23 4H17Z" fill="#2B88DE"/>
<path d="M21 9H19V11H21V9Z" fill="#2B88DE"/>
<path d="M16 9H14V11H16V9Z" fill="#2B88DE"/>
<path d="M26 9H24V11H26V9Z" fill="#2B88DE"/>
<path d="M8.00007 30.0001C7.8552 30.0009 7.7119 29.9701 7.58007 29.9101C7.40649 29.8297 7.25959 29.7013 7.15679 29.54C7.05399 29.3787 6.9996 29.1913 7.00007 29.0001V25.7401C5.40894 25.3162 3.98738 24.4116 2.9294 23.1498C1.87141 21.8881 1.22855 20.3306 1.08855 18.6899C0.948542 17.0492 1.31822 15.4053 2.14712 13.9826C2.97602 12.5598 4.22377 11.4274 5.72007 10.7401C5.84084 10.6764 5.97336 10.6382 6.10947 10.6277C6.24559 10.6172 6.3824 10.6347 6.51149 10.6791C6.64059 10.7235 6.75922 10.7939 6.86009 10.8859C6.96096 10.9778 7.04193 11.0895 7.09801 11.214C7.15408 11.3384 7.18408 11.4731 7.18616 11.6096C7.18823 11.7461 7.16233 11.8815 7.11006 12.0077C7.05779 12.1338 6.98026 12.2478 6.88223 12.3428C6.7842 12.4378 6.66775 12.5118 6.54007 12.5601C5.36 13.0951 4.38484 13.9978 3.76042 15.1331C3.136 16.2685 2.89588 17.5754 3.07597 18.8585C3.25606 20.1417 3.84668 21.332 4.7595 22.2516C5.67232 23.1712 6.8583 23.7705 8.14007 23.9601C8.38035 23.994 8.60008 24.1142 8.7583 24.2982C8.91653 24.4822 9.00246 24.7174 9.00007 24.9601V26.9001L12.1601 24.2701C12.3343 24.1065 12.5613 24.0107 12.8001 24.0001H15.0001C15.8009 24.0016 16.5938 23.8411 17.331 23.5283C18.0682 23.2156 18.7346 22.757 19.2901 22.1801C19.4757 21.9891 19.7296 21.8797 19.9959 21.876C20.1278 21.8741 20.2587 21.8983 20.3813 21.947C20.5038 21.9958 20.6155 22.0682 20.7101 22.1601C20.8046 22.252 20.8801 22.3617 20.9323 22.4828C20.9845 22.6039 21.0123 22.7341 21.0142 22.8659C21.016 22.9978 20.9919 23.1287 20.9431 23.2513C20.8944 23.3738 20.822 23.4855 20.7301 23.5801C19.9849 24.3456 19.094 24.9541 18.1099 25.3698C17.1258 25.7854 16.0684 25.9997 15.0001 26.0001H13.1601L8.64007 29.7701C8.46016 29.9192 8.23372 30.0005 8.00007 30.0001Z" fill="#2B88DE"/>
</svg>
