<svg width="32" height="32" viewBox="0 0 32 32" fill="none" xmlns="http://www.w3.org/2000/svg">
<g clip-path="url(#clip0_2211_2123)">
<path d="M9.27211 8.22764C9.3711 8.22657 9.46889 8.20592 9.55986 8.16687C9.65082 8.12782 9.73316 8.07116 9.80211 8.00014L15.2496 2.56014V22.7501C15.2496 22.949 15.3286 23.1398 15.4693 23.2805C15.6099 23.4211 15.8007 23.5001 15.9996 23.5001C16.1985 23.5001 16.3893 23.4211 16.5299 23.2805C16.6706 23.1398 16.7496 22.949 16.7496 22.7501V2.56014L22.1971 8.00014C22.3414 8.11242 22.5217 8.16812 22.7042 8.15678C22.8867 8.14544 23.0588 8.06784 23.188 7.93856C23.3173 7.80928 23.3949 7.63722 23.4063 7.45474C23.4176 7.27226 23.3619 7.09193 23.2496 6.94764L16.5296 0.220135C16.4945 0.184726 16.456 0.152902 16.4146 0.125135L16.3571 0.0951355C16.3336 0.0813287 16.3094 0.0688102 16.2846 0.0576355C16.2593 0.0479048 16.2334 0.0395592 16.2071 0.0326355L16.1471 0.0151355C16.0497 -0.00439412 15.9495 -0.00439412 15.8521 0.0151355L15.7896 0.0351355C15.7633 0.0420253 15.7375 0.0503715 15.7121 0.0601355C15.6873 0.0713102 15.6631 0.0838287 15.6396 0.0976355L15.5846 0.125135C15.5432 0.152902 15.5047 0.184726 15.4696 0.220135L8.74961 6.94764C8.64486 7.05252 8.57353 7.1861 8.54465 7.3315C8.51576 7.4769 8.53062 7.6276 8.58733 7.76456C8.64404 7.90152 8.74007 8.01861 8.86328 8.10103C8.9865 8.18345 9.13137 8.2275 9.27961 8.22764H9.27211Z" fill="#2B88DE"/>
<path d="M31.25 22C31.0511 22 30.8603 22.079 30.7197 22.2197C30.579 22.3603 30.5 22.5511 30.5 22.75V28.25C30.5 28.8467 30.2629 29.419 29.841 29.841C29.419 30.2629 28.8467 30.5 28.25 30.5H3.75C3.15326 30.5 2.58097 30.2629 2.15901 29.841C1.73705 29.419 1.5 28.8467 1.5 28.25V22.75C1.5 22.5511 1.42098 22.3603 1.28033 22.2197C1.13968 22.079 0.948912 22 0.75 22C0.551088 22 0.360322 22.079 0.21967 22.2197C0.0790176 22.3603 0 22.5511 0 22.75L0 28.25C0 29.2446 0.395088 30.1984 1.09835 30.9017C1.80161 31.6049 2.75544 32 3.75 32H28.25C29.2446 32 30.1984 31.6049 30.9017 30.9017C31.6049 30.1984 32 29.2446 32 28.25V22.75C32 22.5511 31.921 22.3603 31.7803 22.2197C31.6397 22.079 31.4489 22 31.25 22Z" fill="#2B88DE"/>
</g>
<defs>
<clipPath id="clip0_2211_2123">
<rect width="32" height="32" fill="white"/>
</clipPath>
</defs>
</svg>
