<svg width="26" height="20" viewBox="0 0 26 20" fill="none" xmlns="http://www.w3.org/2000/svg">
<path d="M25.4922 6.94922C24.3242 7.86328 22.8516 8.98047 17.6719 12.7383C16.6562 13.5 14.7773 15.1758 13 15.1758C11.1719 15.1758 9.34375 13.5 8.27734 12.7383C3.09766 8.98047 1.625 7.86328 0.457031 6.94922C0.253906 6.79688 0 6.94922 0 7.20312V17.5625C0 18.9336 1.06641 20 2.4375 20H23.5625C24.8828 20 26 18.9336 26 17.5625V7.20312C26 6.94922 25.6953 6.79688 25.4922 6.94922ZM13 13.5C14.168 13.5508 15.8438 12.0273 16.707 11.418C23.4609 6.54297 23.9688 6.08594 25.4922 4.86719C25.7969 4.66406 26 4.30859 26 3.90234V2.9375C26 1.61719 24.8828 0.5 23.5625 0.5H2.4375C1.06641 0.5 0 1.61719 0 2.9375V3.90234C0 4.30859 0.152344 4.66406 0.457031 4.86719C1.98047 6.08594 2.48828 6.54297 9.24219 11.418C10.1055 12.0273 11.7812 13.5508 13 13.5Z" fill="#FCFCFC"/>
<path d="M25.4922 6.94922L24.8922 6.14922L24.884 6.15538L24.8759 6.16171L25.4922 6.94922ZM17.6719 12.7383L17.0846 11.9289L17.0782 11.9335L17.0719 11.9383L17.6719 12.7383ZM8.27734 12.7383L7.6901 13.5477L7.69611 13.552L8.27734 12.7383ZM0.457031 6.94922L1.07334 6.16171L1.06525 6.15538L1.05703 6.14922L0.457031 6.94922ZM13 13.5L13.0434 12.5009L13.0009 12.4991L12.9584 12.5009L13 13.5ZM16.707 11.418L17.2837 12.235L17.2923 12.2288L16.707 11.418ZM25.4922 4.86719L24.9375 4.03514L24.9014 4.05921L24.8675 4.08632L25.4922 4.86719ZM0.457031 4.86719L1.08173 4.08632L1.04784 4.05921L1.01173 4.03514L0.457031 4.86719ZM9.24219 11.418L8.65689 12.2289L8.6655 12.2349L9.24219 11.418ZM24.8759 6.16171C23.7232 7.06379 22.2631 8.17194 17.0846 11.9289L18.2591 13.5477C23.44 9.789 24.9252 8.66277 26.1085 7.73672L24.8759 6.16171ZM17.0719 11.9383C16.5028 12.3651 15.8627 12.9105 15.0898 13.3958C14.3159 13.8817 13.6002 14.1758 13 14.1758V16.1758C14.1771 16.1758 15.2895 15.632 16.1534 15.0896C17.0182 14.5465 17.8253 13.8732 18.2719 13.5383L17.0719 11.9383ZM13 14.1758C12.372 14.1758 11.6551 13.8794 10.8848 13.3958C10.0863 12.8944 9.49441 12.3787 8.85858 11.9245L7.69611 13.552C8.12669 13.8596 8.9821 14.5627 9.82126 15.0896C10.6887 15.6342 11.7998 16.1758 13 16.1758V14.1758ZM8.86457 11.9289C3.68611 8.17194 2.22599 7.06379 1.07334 6.16171L-0.159277 7.73672C1.02401 8.66277 2.5092 9.789 7.69012 13.5477L8.86457 11.9289ZM1.05703 6.14922C0.634295 5.83217 0.0890842 5.80823 -0.343795 6.05558C-0.75787 6.2922 -1 6.7333 -1 7.20312H1C1 7.41905 0.884823 7.65702 0.648483 7.79207C0.393338 7.93787 0.0766422 7.91393 -0.142969 7.74922L1.05703 6.14922ZM-1 7.20312V17.5625H1V7.20312H-1ZM-1 17.5625C-1 19.4859 0.514121 21 2.4375 21V19C1.61869 19 1 18.3813 1 17.5625H-1ZM2.4375 21H23.5625V19H2.4375V21ZM23.5625 21C25.4215 21 27 19.4994 27 17.5625H25C25 18.3678 24.3441 19 23.5625 19V21ZM27 17.5625V7.20312H25V17.5625H27ZM27 7.20312C27 6.12517 25.7545 5.50245 24.8922 6.14922L26.0922 7.74922C25.8488 7.93178 25.5627 7.91207 25.3751 7.81826C25.1874 7.72445 25 7.50739 25 7.20312H27ZM12.9566 14.4991C13.4622 14.521 13.946 14.3737 14.3484 14.1992C14.7605 14.0205 15.1624 13.7798 15.5243 13.5374C15.8886 13.2933 16.2365 13.0312 16.5366 12.8008C16.8501 12.5603 17.0895 12.372 17.2837 12.2349L16.1303 10.601C15.8929 10.7686 15.5991 10.9993 15.3191 11.2142C15.0257 11.4393 14.7198 11.6691 14.4113 11.8757C14.1003 12.084 13.8103 12.2527 13.5527 12.3643C13.2854 12.4803 13.1218 12.5044 13.0434 12.5009L12.9566 14.4991ZM17.2923 12.2288C24.0551 7.34739 24.5768 6.88008 26.1169 5.64806L24.8675 4.08632C23.3607 5.29179 22.8668 5.73855 16.1218 10.6071L17.2923 12.2288ZM26.0469 5.69924C26.6266 5.31279 27 4.64679 27 3.90234H25C25 3.9704 24.9672 4.01534 24.9375 4.03514L26.0469 5.69924ZM27 3.90234V2.9375H25V3.90234H27ZM27 2.9375C27 1.0649 25.4351 -0.5 23.5625 -0.5V1.5C24.3305 1.5 25 2.16947 25 2.9375H27ZM23.5625 -0.5H2.4375V1.5H23.5625V-0.5ZM2.4375 -0.5C0.500605 -0.5 -1 1.07852 -1 2.9375H1C1 2.15586 1.63221 1.5 2.4375 1.5V-0.5ZM-1 2.9375V3.90234H1V2.9375H-1ZM-1 3.90234C-1 4.54888 -0.750648 5.26392 -0.0976689 5.69924L1.01173 4.03514C1.01637 4.03823 1.02081 4.04232 1.02384 4.04593C1.02662 4.04925 1.02544 4.04886 1.02222 4.04188C1.01526 4.02681 1 3.98275 1 3.90234H-1ZM-0.167664 5.64806C1.37237 6.88008 1.89412 7.34739 8.65692 12.2288L9.82746 10.6071C3.08244 5.73855 2.58857 5.29179 1.08173 4.08632L-0.167664 5.64806ZM8.6655 12.2349C8.86035 12.3725 9.09889 12.5602 9.41439 12.8016C9.71597 13.0324 10.0662 13.2951 10.4349 13.5398C10.8012 13.7829 11.2089 14.0238 11.6293 14.2023C12.0418 14.3774 12.5308 14.5204 13.0416 14.4991L12.9584 12.5009C12.8599 12.505 12.6823 12.4766 12.4109 12.3613C12.1473 12.2494 11.8535 12.0809 11.5407 11.8733C11.2302 11.6673 10.9234 11.438 10.6299 11.2134C10.3503 10.9994 10.0557 10.7682 9.81887 10.601L8.6655 12.2349Z" fill="#453B3B"/>
</svg>
