<svg width="53" height="29" viewBox="0 0 53 29" fill="none" xmlns="http://www.w3.org/2000/svg">
<path d="M51 0H2C0.895431 0 0 0.89543 0 2V27C0 28.1046 0.895429 29 2 29H51C52.1046 29 53 28.1046 53 27V2C53 0.895431 52.1046 0 51 0Z" fill="#B22234"/>
<path d="M0 3.3457H53H0ZM53 7.80848H0H53ZM0 12.2686H53H0ZM53 16.7314H0H53ZM0 21.1915H53H0ZM53 25.6542H0H53Z" fill="black"/>
<path d="M53 26.7687H0V24.5373H53V26.7687ZM53 22.3086H0V20.0772H53V22.3086ZM53 17.8458H0V15.6144H53V17.8458ZM53 13.3857H0V11.1543H53V13.3857ZM53 8.92293H0V6.69154H53V8.92293ZM53 4.46283H0V2.23145H53V4.46283Z" fill="white"/>
<path d="M22.6575 0H2C0.895431 0 0 0.895431 0 2V15.6144H22.6575V0Z" fill="#3C3B6E"/>
<path d="M1.88953 0.668457L2.43057 2.28225L1.01172 1.28605H2.75354L1.34573 2.28494L1.88953 0.668457Z" fill="white"/>
<path d="M1.89068 3.7915L2.43172 5.4053L1.01562 4.40641H2.75745L1.34411 5.4053L1.89068 3.7915Z" fill="white"/>
<path d="M1.89182 6.91431L2.43286 8.5281L1.01953 7.52921H2.76135L1.34802 8.5281L1.89182 6.91431Z" fill="white"/>
<path d="M1.89182 10.0374L2.43286 11.6538L1.01953 10.6549H2.76135L1.34802 11.6538L1.89182 10.0374Z" fill="white"/>
<path d="M1.89182 13.1628L2.43286 14.7766L1.01953 13.7777H2.76135L1.34802 14.7766L1.89182 13.1628Z" fill="white"/>
<path d="M3.77187 2.23145L4.31292 3.84524L2.90234 2.84635H4.64417L3.23635 3.84524L3.77187 2.23145Z" fill="white"/>
<path d="M3.77463 5.35425L4.31568 6.96804L2.90234 5.96916H4.64416L3.23083 6.96804L3.77463 5.35425Z" fill="white"/>
<path d="M3.77463 8.47729L4.31568 10.0911L2.90234 9.0922H4.64416L3.23083 10.0911L3.77463 8.47729Z" fill="white"/>
<path d="M3.77463 11.6001L4.31568 13.2139L2.90234 12.215H4.64416L3.23083 13.2139L3.77463 11.6001Z" fill="white"/>
<path d="M5.66526 0.668457L6.2063 2.28225L4.79297 1.28336H6.53479L5.12146 2.28225L5.66526 0.668457Z" fill="white"/>
<path d="M5.66526 3.7915L6.2063 5.4053L4.79297 4.40641H6.53479L5.12146 5.4053L5.66526 3.7915Z" fill="white"/>
<path d="M5.66526 6.91431L6.2063 8.5281L4.79297 7.52921H6.53479L5.12146 8.5281L5.66526 6.91431Z" fill="white"/>
<path d="M5.66526 10.0374L6.2063 11.6512L4.79297 10.6523H6.53479L5.12422 11.6538L5.66526 10.0374Z" fill="white"/>
<path d="M5.66526 13.1628L6.2063 14.7766L4.79297 13.7777H6.53479L5.12146 14.7766L5.66526 13.1628Z" fill="white"/>
<path d="M7.55589 2.23145L8.09693 3.84524L6.68359 2.84635H8.42542L7.01208 3.84524L7.55589 2.23145Z" fill="white"/>
<path d="M7.55589 5.35425L8.09693 6.96804L6.68359 5.96916H8.42542L7.01208 6.96804L7.55589 5.35425Z" fill="white"/>
<path d="M7.55589 8.47729L8.09693 10.0911L6.68359 9.0922H8.42542L7.01208 10.0911L7.55589 8.47729Z" fill="white"/>
<path d="M7.55589 11.6001L8.09693 13.2139L6.68359 12.215H8.42542L7.01208 13.2139L7.55589 11.6001Z" fill="white"/>
<path d="M9.4387 0.668457L9.97974 2.28225L8.56641 1.28336H10.3082L8.8949 2.28225L9.4387 0.668457Z" fill="white"/>
<path d="M9.4387 3.7915L9.97974 5.4053L8.56641 4.40641H10.3082L8.8949 5.4053L9.4387 3.7915Z" fill="white"/>
<path d="M9.4387 6.91431L9.97974 8.5281L8.56641 7.52921H10.3082L8.8949 8.5281L9.4387 6.91431Z" fill="white"/>
<path d="M9.4387 10.0374L9.97974 11.6512L8.56641 10.6523H10.3082L8.89766 11.6538L9.4387 10.0374Z" fill="white"/>
<path d="M9.4387 13.1628L9.97974 14.7766L8.56641 13.7777H10.3082L8.8949 14.7766L9.4387 13.1628Z" fill="white"/>
<path d="M11.3293 2.23145L11.8704 3.84524L10.457 2.84635H12.2016L10.7883 3.84524L11.3293 2.23145Z" fill="white"/>
<path d="M11.3293 5.35425L11.8704 6.96804L10.457 5.96916H12.2016L10.7883 6.96804L11.3293 5.35425Z" fill="white"/>
<path d="M11.3293 8.47729L11.8704 10.0911L10.457 9.0922H12.2016L10.7883 10.0911L11.3293 8.47729Z" fill="white"/>
<path d="M11.3293 11.6001L11.8704 13.2139L10.457 12.215H12.2016L10.7883 13.2139L11.3293 11.6001Z" fill="white"/>
<path d="M13.22 0.668457L13.761 2.28225L12.3477 1.28336H14.0895L12.6761 2.28225L13.22 0.668457Z" fill="white"/>
<path d="M13.22 3.7915L13.761 5.4053L12.3477 4.40641H14.0895L12.6761 5.4053L13.22 3.7915Z" fill="white"/>
<path d="M13.22 6.91431L13.761 8.5281L12.3477 7.52921H14.0895L12.6761 8.5281L13.22 6.91431Z" fill="white"/>
<path d="M13.22 10.0374L13.761 11.6512L12.3477 10.6523H14.0895L12.6761 11.6538L13.22 10.0374Z" fill="white"/>
<path d="M13.22 13.1628L13.761 14.7766L12.3477 13.7777H14.0895L12.6761 14.7766L13.22 13.1628Z" fill="white"/>
<path d="M15.1039 2.23145L15.645 3.84524L14.2344 2.84635H15.9762L14.5629 3.84524L15.1039 2.23145Z" fill="white"/>
<path d="M15.1028 5.35425L15.6438 6.96804L14.2305 5.96916H15.9723L14.559 6.96804L15.1028 5.35425Z" fill="white"/>
<path d="M15.1028 8.47729L15.6438 10.0911L14.2305 9.0922H15.9723L14.559 10.0911L15.1028 8.47729Z" fill="white"/>
<path d="M15.1028 11.6001L15.6438 13.2139L14.2305 12.215H15.9723L14.559 13.2139L15.1028 11.6001Z" fill="white"/>
<path d="M16.9934 0.668457L17.5344 2.28225L16.1211 1.28605H17.8629L16.4523 2.28494L16.9934 0.668457Z" fill="white"/>
<path d="M16.9934 3.7915L17.5344 5.4053L16.1211 4.4091H17.8629L16.4523 5.40799L16.9934 3.7915Z" fill="white"/>
<path d="M16.9934 6.91431L17.5344 8.52811L16.1211 7.5319H17.8629L16.4523 8.53079L16.9934 6.91431Z" fill="white"/>
<path d="M16.9934 10.0374L17.5344 11.6512L16.1211 10.6549H17.8629L16.4523 11.6538L16.9934 10.0374Z" fill="white"/>
<path d="M16.9934 13.1628L17.5344 14.7766L16.1211 13.7777H17.8629L16.4523 14.7766L16.9934 13.1628Z" fill="white"/>
<path d="M18.884 2.23145L19.4251 3.84524L18.0117 2.84635H19.7535L18.3402 3.84524L18.884 2.23145Z" fill="white"/>
<path d="M18.884 5.35425L19.4251 6.96804L18.0117 5.96916H19.7535L18.3402 6.96804L18.884 5.35425Z" fill="white"/>
<path d="M18.884 8.47729L19.4251 10.0911L18.0117 9.0922H19.7535L18.3402 10.0911L18.884 8.47729Z" fill="white"/>
<path d="M18.884 11.6001L19.4251 13.2139L18.0117 12.215H19.7535L18.3402 13.2139L18.884 11.6001Z" fill="white"/>
<path d="M20.768 0.668457L21.3118 2.28494L19.8984 1.28605H21.6403L20.2269 2.28494L20.768 0.668457Z" fill="white"/>
<path d="M20.7668 3.7915L21.3079 5.4053L19.8945 4.40641H21.6364L20.223 5.4053L20.7668 3.7915Z" fill="white"/>
<path d="M20.7668 6.91431L21.3079 8.5281L19.8945 7.52921H21.6364L20.223 8.5281L20.7668 6.91431Z" fill="white"/>
<path d="M20.768 10.0374L21.3118 11.6538L19.8984 10.6549H21.6403L20.2269 11.6538L20.768 10.0374Z" fill="white"/>
<path d="M20.7668 13.1628L21.3079 14.7766L19.8945 13.7777H21.6364L20.223 14.7766L20.7668 13.1628Z" fill="white"/>
</svg>
