<svg width="32" height="40" viewBox="0 0 32 40" fill="none" xmlns="http://www.w3.org/2000/svg">
<path d="M28 40.0003H4C2.93913 40.0003 1.92172 39.5789 1.17157 38.8288C0.421427 38.0786 0 37.0612 0 36.0004V21.3339C0 20.2731 0.421427 19.2557 1.17157 18.5055C1.92172 17.7554 2.93913 17.334 4 17.334H28C29.0609 17.334 30.0783 17.7554 30.8284 18.5055C31.5786 19.2557 32 20.2731 32 21.3339V36.0004C32 37.0612 31.5786 38.0786 30.8284 38.8288C30.0783 39.5789 29.0609 40.0003 28 40.0003ZM4 20.0006C3.64638 20.0006 3.30724 20.1411 3.05719 20.3911C2.80714 20.6412 2.66667 20.9803 2.66667 21.3339V36.0004C2.66667 36.354 2.80714 36.6931 3.05719 36.9432C3.30724 37.1932 3.64638 37.3337 4 37.3337H28C28.3536 37.3337 28.6928 37.1932 28.9428 36.9432C29.1929 36.6931 29.3333 36.354 29.3333 36.0004V21.3339C29.3333 20.9803 29.1929 20.6412 28.9428 20.3911C28.6928 20.1411 28.3536 20.0006 28 20.0006H4Z" fill="#02111F"/>
<path d="M26.6667 19.9997H5.33333C4.97971 19.9997 4.64057 19.8592 4.39052 19.6092C4.14048 19.3591 4 19.02 4 18.6664V10.6665C4 7.83757 5.12381 5.12451 7.12419 3.12415C9.12458 1.12379 11.8377 0 14.6667 0H17.3333C20.1623 0 22.8754 1.12379 24.8758 3.12415C26.8762 5.12451 28 7.83757 28 10.6665V18.6664C28 19.02 27.8595 19.3591 27.6095 19.6092C27.3594 19.8592 27.0203 19.9997 26.6667 19.9997ZM6.66667 17.3331H25.3333V10.6665C25.3333 8.54481 24.4905 6.51001 22.9902 5.00974C21.4899 3.50947 19.4551 2.66663 17.3333 2.66663H14.6667C12.5449 2.66663 10.5101 3.50947 9.00981 5.00974C7.50952 6.51001 6.66667 8.54481 6.66667 10.6665V17.3331Z" fill="#02111F"/>
<path d="M16.0007 29.3333C15.4732 29.3333 14.9577 29.1769 14.5191 28.8838C14.0806 28.5908 13.7388 28.1744 13.537 27.6871C13.3351 27.1998 13.2823 26.6637 13.3852 26.1464C13.4881 25.6291 13.7421 25.154 14.115 24.781C14.488 24.4081 14.9631 24.1541 15.4804 24.0512C15.9977 23.9483 16.5339 24.0012 17.0211 24.203C17.5084 24.4048 17.9249 24.7466 18.2179 25.1851C18.5109 25.6237 18.6673 26.1392 18.6673 26.6666C18.6673 27.3739 18.3864 28.0521 17.8863 28.5522C17.3862 29.0523 16.7079 29.3333 16.0007 29.3333Z" fill="#02111F"/>
<path d="M17.3327 28H14.666V33.3333H17.3327V28Z" fill="#02111F"/>
</svg>
