<svg width="28" height="20" viewBox="0 0 28 20" fill="none" xmlns="http://www.w3.org/2000/svg">
<path d="M26.8533 10.5909L24.4534 17.6453C24.0996 18.681 22.957 19.4046 21.6736 19.4046H8.68295C8.14975 19.4046 7.71875 19.0424 7.71875 18.5961V7.27674C7.71875 7.10291 7.78528 6.93312 7.90966 6.79405L13.1086 0.940317C13.6852 0.33473 14.5164 0 15.4073 0C17.0165 0 18.325 1.09717 18.325 2.4466V6.46821H23.1479C24.3676 6.46821 25.488 6.93635 26.2218 7.75296C26.9584 8.57119 27.1879 9.6053 26.8533 10.5909Z" fill="#888888"/>
<path d="M4.82101 6.4668H0.964202C0.430998 6.4668 0 6.82902 0 7.27532V18.5947C0 19.041 0.430998 19.4032 0.964202 19.4032H4.82101C5.35421 19.4032 5.78521 19.041 5.78521 18.5947V7.27532C5.78521 6.82902 5.35421 6.4668 4.82101 6.4668ZM2.8926 17.3819C2.09425 17.3819 1.4463 16.8386 1.4463 16.1691C1.4463 15.4997 2.09425 14.9563 2.8926 14.9563C3.69096 14.9563 4.33891 15.4997 4.33891 16.1691C4.33891 16.8386 3.69096 17.3819 2.8926 17.3819Z" fill="#888888"/>
</svg>
