<svg width="28" height="30" viewBox="0 0 28 30" fill="none" xmlns="http://www.w3.org/2000/svg">
<path d="M25.9686 9.20248L20.516 11.9124L16.987 8.37982V6.12152L20.516 2.58891L25.9686 5.29886C26.5441 5.58921 27.2105 5.31499 27.4832 4.71815C27.7558 4.10519 27.4983 3.39544 26.9379 3.10509L21.0007 0.153173C20.7191 0.0116837 20.4033 -0.0332692 20.0967 0.0245154C19.7902 0.0823 19.508 0.239974 19.2892 0.475786L16.6538 3.05669C16.5178 2.8584 16.3401 2.69675 16.135 2.58471C15.9298 2.47267 15.7029 2.41334 15.4724 2.41147C14.6393 2.41147 13.9578 3.13735 13.9578 4.02454V5.6376H9.14134C8.41433 3.45996 6.35448 1.97594 3.96141 2.52438C2.20447 2.92765 0.705018 4.54072 0.386952 6.44414C0.0537399 8.57339 1.08367 10.4284 2.62856 11.4124L6.50594 24.9944H1.84097V29.8336H21.5308V24.9944H16.0479L8.52036 10.1058C8.77784 9.71867 8.98988 9.3154 9.14134 8.86374H13.9578V10.4768C13.9578 11.364 14.6393 12.0899 15.4724 12.0899C15.957 12.0899 16.3811 11.8318 16.6538 11.4446L19.2892 14.0256C19.7435 14.5095 20.4251 14.6385 21.0007 14.3482L26.9379 11.3963C27.5134 11.1059 27.7558 10.3962 27.4832 9.78319C27.3542 9.49271 27.1223 9.26852 26.8385 9.15968C26.5546 9.05084 26.2418 9.06623 25.9686 9.20248ZM4.87017 8.86374C4.03714 8.86374 3.35557 8.13786 3.35557 7.25067C3.35557 6.36348 4.03714 5.6376 4.87017 5.6376C5.7032 5.6376 6.38477 6.36348 6.38477 7.25067C6.38477 8.13786 5.7032 8.86374 4.87017 8.86374Z" fill="#FCC314"/>
</svg>
