<svg width="43" height="30" viewBox="0 0 43 30" fill="none" xmlns="http://www.w3.org/2000/svg">
<rect x="1" y="0.5" width="41.5" height="29" rx="3.5" fill="white" stroke="#B2BCCA"/>
<path fill-rule="evenodd" clip-rule="evenodd" d="M21.9737 21.0369C20.4937 22.2845 18.5738 23.0376 16.4759 23.0376C11.7948 23.0376 8 19.288 8 14.6626C8 10.0372 11.7948 6.2876 16.4759 6.2876C18.5738 6.2876 20.4937 7.04072 21.9737 8.28827C23.4538 7.04072 25.3737 6.2876 27.4716 6.2876C32.1527 6.2876 35.9474 10.0372 35.9474 14.6626C35.9474 19.288 32.1527 23.0376 27.4716 23.0376C25.3737 23.0376 23.4538 22.2845 21.9737 21.0369Z" fill="#ED0006"/>
<path fill-rule="evenodd" clip-rule="evenodd" d="M21.9746 21.037C23.7971 19.5008 24.9527 17.2151 24.9527 14.6626C24.9527 12.1101 23.7971 9.82435 21.9746 8.28822C23.4547 7.0407 25.3745 6.2876 27.4724 6.2876C32.1535 6.2876 35.9483 10.0372 35.9483 14.6626C35.9483 19.288 32.1535 23.0376 27.4724 23.0376C25.3745 23.0376 23.4547 22.2845 21.9746 21.037Z" fill="#F9A000"/>
<path fill-rule="evenodd" clip-rule="evenodd" d="M21.9741 21.0369C23.7965 19.5008 24.9521 17.2151 24.9521 14.6626C24.9521 12.1102 23.7965 9.82446 21.9741 8.28833C20.1517 9.82446 18.9961 12.1102 18.9961 14.6626C18.9961 17.2151 20.1517 19.5008 21.9741 21.0369Z" fill="#FD6020"/>
</svg>
