<svg width="18" height="12" viewBox="0 0 18 12" fill="none" xmlns="http://www.w3.org/2000/svg">
<path d="M17.4356 5.80723L17.4353 5.80686C17.3669 5.7135 15.6279 3.35179 13.2456 1.74759L13.2453 1.74736C12.0594 0.947334 10.5508 0.5 8.99966 0.5C7.44961 0.5 5.94082 0.947257 4.75188 1.74759L17.4356 5.80723ZM17.4356 5.80723C17.5215 5.92433 17.5215 6.07567 17.4356 6.19277L17.4353 6.19314C17.3669 6.2865 15.6279 8.64821 13.2456 10.2524L13.2453 10.2526M17.4356 5.80723L13.2453 10.2526M13.2453 10.2526C12.0594 11.0527 10.5508 11.5 8.99966 11.5C7.44969 11.5 5.94089 11.0528 4.75188 10.2533L13.2453 10.2526ZM0.564474 5.80627C0.478503 5.92461 0.478509 6.07628 0.564492 6.19462C0.639794 6.29739 2.37455 8.65231 4.75163 10.2531L0.564474 5.80627ZM0.564474 5.80627C0.639543 5.70381 2.37447 3.34854 4.75182 1.74763L0.564474 5.80627ZM5.34962 6C5.34962 7.95278 7.00579 9.5 8.99966 9.5C10.9896 9.5 12.6497 7.95314 12.6497 6C12.6497 4.04307 10.9892 2.5 8.99966 2.5C7.00617 2.5 5.34962 4.04343 5.34962 6Z" stroke="#888888"/>
<path d="M10.3032 5.99749C10.3032 6.6432 9.74209 7.21177 9.00315 7.21177C8.262 7.21177 7.70312 6.64368 7.70312 5.99749C7.70312 5.3492 8.2615 4.7832 9.00315 4.7832C9.74259 4.7832 10.3032 5.34968 10.3032 5.99749Z" stroke="#888888"/>
</svg>
