<svg width="26" height="26" viewBox="0 0 26 26" fill="none" xmlns="http://www.w3.org/2000/svg">
<path d="M11.7053 1.31078C12.1014 1.10696 12.547 1 13 1C13.453 1 13.8986 1.10696 14.2947 1.31078L24.3147 6.4681C24.5224 6.57515 24.6955 6.73172 24.816 6.92159C24.9365 7.11146 25 7.32773 25 7.548V17.723C24.9999 18.1637 24.8726 18.5963 24.6314 18.976C24.3902 19.3558 24.0437 19.6689 23.628 19.8828L14.2947 24.6892C13.8986 24.893 13.453 25 13 25C12.547 25 12.1014 24.893 11.7053 24.6892L2.372 19.8828C1.95647 19.669 1.61018 19.3561 1.36895 18.9766C1.12773 18.5971 1.00035 18.1647 1 17.7242V7.548C0.99999 7.32773 1.06352 7.11146 1.18402 6.92159C1.30452 6.73172 1.4776 6.57515 1.68533 6.4681L11.7067 1.31078H11.7053Z" stroke="#888888" stroke-width="1.5" stroke-linecap="round" stroke-linejoin="round"/>
<path d="M13 12.9982V24.7362M1 6.82031L13 12.9982L1 6.82031ZM13 12.9982L25 6.82031L13 12.9982Z" stroke="#888888" stroke-width="1.5" stroke-linejoin="round"/>
<path d="M7 9.91034L19 3.73242" stroke="#888888" stroke-width="1.5" stroke-linecap="round" stroke-linejoin="round"/>
<path d="M5 13.4043L9 15.4691" stroke="#888888" stroke-width="1.5" stroke-linecap="round" stroke-linejoin="round"/>
</svg>
