<svg width="38" height="38" viewBox="0 0 38 38" fill="none" xmlns="http://www.w3.org/2000/svg">
<circle cx="19.0002" cy="18.9999" r="12.6667" fill="white"/>
<path d="M19 0C8.50759 0 0 8.50759 0 19C0 29.4924 8.50759 38 19 38C29.4924 38 38 29.4924 38 19C38 8.50759 29.4924 0 19 0ZM25.1114 19.2926L15.8489 26.0317C15.7981 26.0682 15.7382 26.09 15.6759 26.0947C15.6135 26.0993 15.5511 26.0867 15.4954 26.0583C15.4398 26.0298 15.393 25.9865 15.3604 25.9332C15.3277 25.8799 15.3104 25.8186 15.3103 25.756V12.2864C15.3101 12.2237 15.3272 12.1622 15.3598 12.1087C15.3924 12.0552 15.4392 12.0118 15.495 11.9832C15.5507 11.9547 15.6133 11.9422 15.6758 11.947C15.7383 11.9519 15.7982 11.9739 15.8489 12.0107L25.1114 18.7455C25.1551 18.7765 25.1908 18.8175 25.2155 18.8651C25.2401 18.9127 25.253 18.9655 25.253 19.0191C25.253 19.0727 25.2401 19.1255 25.2155 19.1731C25.1908 19.2207 25.1551 19.2617 25.1114 19.2926Z" fill="#C0C0C0"/>
</svg>
