<svg width="19" height="19" viewBox="0 0 19 19" fill="none" xmlns="http://www.w3.org/2000/svg">
<path d="M7.51991 13.4742C7.41025 13.4181 7.31819 13.3328 7.25384 13.2278C7.18949 13.1228 7.15533 13.002 7.15513 12.8788L7.15513 12.878L7.15513 6.14364V6.14319H7.65513L7.51991 13.4742ZM7.51991 13.4742C7.62957 13.5303 7.75258 13.5552 7.87542 13.5459C7.99826 13.5367 8.11618 13.4938 8.21622 13.4219L8.21622 13.4219L8.21861 13.4202L12.8481 10.0519C12.9336 9.99057 13.0034 9.90987 13.0518 9.81639C13.1009 9.72155 13.1265 9.61632 13.1265 9.50954C13.1265 9.40277 13.1009 9.29754 13.0518 9.2027C13.0034 9.10916 12.9335 9.02841 12.8479 8.96705L7.51991 13.4742ZM0.5 9.5C0.5 4.52994 4.52994 0.5 9.5 0.5C14.4701 0.5 18.5 4.52994 18.5 9.5C18.5 14.4701 14.4701 18.5 9.5 18.5C4.52994 18.5 0.5 14.4701 0.5 9.5Z" stroke="#888888"/>
</svg>
