<svg width="20" height="27" viewBox="0 0 20 27" fill="none" xmlns="http://www.w3.org/2000/svg">
<path d="M8.65 14.0807L10 13.0066L11.3375 14.0676C11.825 14.4474 12.4875 13.9628 12.3125 13.3472L11.7875 11.5658L13.2875 10.3215C13.75 9.9547 13.4875 9.1688 12.8875 9.1688H11.1375L10.6 7.41363C10.5589 7.2826 10.4794 7.16852 10.3728 7.08764C10.2661 7.00676 10.1379 6.96321 10.0063 6.96321C9.87463 6.96321 9.74636 7.00676 9.63974 7.08764C9.53313 7.16852 9.4536 7.2826 9.4125 7.41363L8.8625 9.1688H7.1C6.5125 9.1688 6.25 9.9547 6.7125 10.3346L8.2 11.5789L7.675 13.3603C7.5 13.9759 8.1625 14.4605 8.65 14.0807ZM2.5 25.6857C2.5 26.5764 3.3375 27.2051 4.15 26.9301L10 24.8868L15.85 26.9301C16.0383 26.9974 16.2392 27.0164 16.436 26.9858C16.6328 26.9551 16.8198 26.8756 16.9812 26.7538C17.1427 26.632 17.2741 26.4715 17.3643 26.2857C17.4545 26.0999 17.5011 25.8942 17.5 25.6857V17.3945C19.1118 15.4868 20.0011 13.0266 20 10.4786C20 4.68919 15.525 0 10 0C4.475 0 0 4.68919 0 10.4786C0 13.1376 0.95 15.5477 2.5 17.3945V25.6857ZM10 2.61966C14.1375 2.61966 17.5 6.1431 17.5 10.4786C17.5 14.8142 14.1375 18.3376 10 18.3376C5.8625 18.3376 2.5 14.8142 2.5 10.4786C2.5 6.1431 5.8625 2.61966 10 2.61966Z" fill="#E65353"/>
</svg>
