<svg width="27" height="27" viewBox="0 0 27 27" fill="none" xmlns="http://www.w3.org/2000/svg">
<path d="M15.9495 7.4999L16.3678 7.61205L16.6741 7.30581L20.8581 3.12176C21.392 2.58791 22.4028 2.02479 23.4393 1.75383C23.9504 1.62023 24.4263 1.56904 24.8192 1.6072C25.2114 1.64529 25.4705 1.76588 25.6315 1.92682C25.7924 2.08776 25.913 2.34691 25.9511 2.73907C25.9893 3.132 25.9381 3.60788 25.8045 4.11896C25.5335 5.15548 24.9704 6.16634 24.4365 6.70018L20.2525 10.8842L19.9463 11.1905L20.0584 11.6088L22.8768 22.1228C22.8768 22.1228 22.8768 22.1228 22.8768 22.1228C22.8833 22.147 22.8768 22.1772 22.8546 22.1994L20.4567 24.5973C20.4136 24.6404 20.3589 24.6207 20.3413 24.5888L15.9169 16.5746L15.435 15.7017L14.73 16.4067L10.9644 20.1723L10.7008 20.4359L10.7518 20.8051L11.2578 24.4743L11.2579 24.4745C11.2609 24.4965 11.2537 24.5222 11.2338 24.542L9.76982 26.006C9.7294 26.0464 9.67942 26.0318 9.65897 26.0048L6.90495 20.9529L6.79928 20.759L6.60542 20.6533L1.5535 17.8993C1.5265 17.8789 1.51188 17.8289 1.55231 17.7885L3.01631 16.3245C3.03595 16.3048 3.06205 16.2974 3.08376 16.3004L3.08405 16.3005L6.75315 16.8065L7.1224 16.8575L7.38596 16.5939L11.1516 12.8283L11.8566 12.1233L10.9837 11.6414L2.96915 7.21669L2.60666 7.87328L2.96914 7.21669C2.93772 7.19934 2.91758 7.14504 2.96105 7.10157L5.35895 4.70367L5.35898 4.70363C5.36986 4.69275 5.38311 4.68523 5.39694 4.68148C5.41072 4.67776 5.42414 4.678 5.43587 4.68114L15.9495 7.4999Z" stroke="#2B88DE" stroke-width="1.5"/>
</svg>
