<svg width="26" height="25" viewBox="0 0 26 25" fill="none" xmlns="http://www.w3.org/2000/svg">
<path d="M26 0H0V7.89474H1.3V22.3684C1.3 23.0664 1.57393 23.7357 2.06152 24.2292C2.54912 24.7227 3.21044 25 3.9 25H22.1C22.7896 25 23.4509 24.7227 23.9385 24.2292C24.4261 23.7357 24.7 23.0664 24.7 22.3684V7.89474H26V0ZM2.6 2.63158H23.4V5.26316H2.6V2.63158ZM22.1 22.3684H3.9V7.89474H22.1V22.3684ZM9.1 10.5263H16.9C16.9 11.2243 16.6261 11.8936 16.1385 12.3871C15.6509 12.8806 14.9896 13.1579 14.3 13.1579H11.7C11.0104 13.1579 10.3491 12.8806 9.86152 12.3871C9.37393 11.8936 9.1 11.2243 9.1 10.5263Z" fill="#FF9900"/>
</svg>
