<svg width="28" height="28" viewBox="0 0 28 28" fill="none" xmlns="http://www.w3.org/2000/svg">
<path d="M28 13H25.9492C25.7097 10.1764 24.4792 7.52842 22.4754 5.52463C20.4716 3.52084 17.8236 2.29033 15 2.0508V0H13V2.0508C10.1764 2.29033 7.52842 3.52084 5.52463 5.52463C3.52084 7.52842 2.29033 10.1764 2.0508 13H0V15H2.0508C2.29033 17.8236 3.52084 20.4716 5.52463 22.4754C7.52842 24.4792 10.1764 25.7097 13 25.9492V28H15V25.9492C17.8236 25.7097 20.4716 24.4792 22.4754 22.4754C24.4792 20.4716 25.7097 17.8236 25.9492 15H28V13ZM15 23.9492V21H13V23.9492C10.7062 23.7154 8.56332 22.6974 6.93296 21.067C5.3026 19.4367 4.28461 17.2938 4.0508 15H7V13H4.0508C4.28461 10.7062 5.3026 8.56332 6.93296 6.93296C8.56332 5.3026 10.7062 4.28461 13 4.0508V7H15V4.0508C17.2938 4.28461 19.4367 5.3026 21.067 6.93296C22.6974 8.56332 23.7154 10.7062 23.9492 13H21V15H23.949C23.7152 17.2938 22.6973 19.4366 21.0669 21.067C19.4366 22.6974 17.2938 23.7154 15 23.9492V23.9492Z" fill="#FF9900"/>
</svg>
