<svg width="28" height="28" viewBox="0 0 28 28" fill="none" xmlns="http://www.w3.org/2000/svg">
<path d="M0 22.2753H16.9167V28L20.4167 25.8897L23.9167 28V22.2753H28V0H0V22.2753ZM22.9046 18.2974C22.8521 18.3507 22.7961 18.4 22.7407 18.4498C22.7092 18.4779 22.68 18.5078 22.6473 18.5348C22.6112 18.5653 22.5727 18.591 22.5353 18.6198C22.0436 18.9979 21.4509 19.2493 20.804 19.3214C20.7935 19.3226 20.783 19.325 20.7719 19.3261C20.6547 19.3379 20.5357 19.3443 20.4155 19.3443C20.2953 19.3443 20.1763 19.3379 20.0591 19.3261C20.0486 19.325 20.0381 19.3226 20.027 19.3214C19.3801 19.2493 18.788 18.9979 18.2957 18.6198C18.2583 18.591 18.2198 18.5647 18.1837 18.5348C18.1516 18.5078 18.1218 18.4779 18.0903 18.4498C18.0349 18.4 17.9795 18.3507 17.9264 18.2974C17.3017 17.6619 16.9143 16.7897 16.9143 15.8272C16.9143 13.8875 18.4841 12.31 20.4143 12.31C22.3446 12.31 23.9143 13.8875 23.9143 15.8272C23.9167 16.7891 23.5299 17.6614 22.9046 18.2974ZM22.75 25.9296L20.4167 24.5227L18.0833 25.9296V22.2753V19.8895C18.1032 19.9012 18.1253 19.9088 18.1457 19.9199C18.3003 20.0067 18.4596 20.0864 18.6241 20.1556C18.6311 20.1585 18.6387 20.1609 18.6462 20.1638C19.1928 20.3901 19.7902 20.5167 20.4172 20.5167C21.0443 20.5167 21.6417 20.3901 22.1882 20.1638C22.1952 20.1609 22.2028 20.1585 22.2104 20.1556C22.3749 20.0864 22.5342 20.0073 22.6887 19.9199C22.7092 19.9088 22.7313 19.9012 22.7512 19.8895V22.2753V25.9296H22.75ZM1.16667 1.17238H26.8333V21.1029H23.9167V18.9187C24.6406 18.0922 25.0833 17.0119 25.0833 15.8272C25.0833 13.2415 22.9897 11.1376 20.4167 11.1376C17.8436 11.1376 15.75 13.2415 15.75 15.8272C15.75 17.0119 16.1927 18.0922 16.9167 18.9187V21.1029H1.16667V1.17238Z" fill="#FF9900"/>
<path d="M21.5846 3.5166H6.41797V4.68898H21.5846V3.5166Z" fill="#FF9900"/>
<path d="M18.6654 7.03418H9.33203V8.20656H18.6654V7.03418Z" fill="#FF9900"/>
<path d="M9.91667 17.5859H3.5V18.7583H9.91667V17.5859Z" fill="#FF9900"/>
</svg>
