<svg width="36" height="28" viewBox="0 0 36 28" fill="none" xmlns="http://www.w3.org/2000/svg">
<path d="M33.6926 0H2.30706C1.69535 0.000755605 1.10891 0.258761 0.676399 0.717409C0.243888 1.17606 0.000631009 1.79789 0 2.44647V25.5535C0.000631009 26.2021 0.243888 26.8239 0.676399 27.2826C1.10891 27.7412 1.69535 27.9992 2.30706 28H33.6926C34.3044 27.9993 34.8909 27.7413 35.3235 27.2827C35.756 26.824 35.9994 26.2022 36 25.5535V2.44647C35.9994 1.79784 35.756 1.17597 35.3235 0.717314C34.8909 0.25866 34.3044 0.000686899 33.6926 0ZM2.30706 1.33931H33.6926C33.9695 1.33959 34.2349 1.45633 34.4307 1.6639C34.6265 1.87147 34.7366 2.15292 34.7368 2.44647V5.35725H1.26316V2.44647C1.26341 2.15297 1.37346 1.87156 1.56916 1.664C1.76487 1.45643 2.03024 1.33966 2.30706 1.33931V1.33931ZM34.7368 10.7145H1.26316V6.69656H34.7368V10.7145ZM33.6926 26.6607H2.30706C2.03024 26.6603 1.76487 26.5436 1.56916 26.336C1.37346 26.1284 1.26341 25.847 1.26316 25.5535V12.0538H34.7368V25.5535C34.7366 25.8471 34.6265 26.1285 34.4307 26.3361C34.2349 26.5437 33.9695 26.6604 33.6926 26.6607V26.6607Z" fill="#FF9900"/>
<path d="M7.03279 19.9639H4.73314C4.56564 19.9639 4.40499 20.0344 4.28655 20.16C4.1681 20.2856 4.10156 20.4559 4.10156 20.6335C4.10156 20.8111 4.1681 20.9815 4.28655 21.107C4.40499 21.2326 4.56564 21.3032 4.73314 21.3032H7.03279C7.2003 21.3032 7.36094 21.2326 7.47938 21.107C7.59783 20.9815 7.66437 20.8111 7.66437 20.6335C7.66437 20.4559 7.59783 20.2856 7.47938 20.16C7.36094 20.0344 7.2003 19.9639 7.03279 19.9639Z" fill="#FF9900"/>
<path d="M13.1461 19.9639H10.8464C10.6789 19.9639 10.5183 20.0344 10.3998 20.16C10.2814 20.2856 10.2148 20.4559 10.2148 20.6335C10.2148 20.8111 10.2814 20.9815 10.3998 21.107C10.5183 21.2326 10.6789 21.3032 10.8464 21.3032H13.1461C13.3136 21.3032 13.4743 21.2326 13.5927 21.107C13.7111 20.9815 13.7777 20.8111 13.7777 20.6335C13.7777 20.4559 13.7111 20.2856 13.5927 20.16C13.4743 20.0344 13.3136 19.9639 13.1461 19.9639Z" fill="#FF9900"/>
<path d="M19.2594 19.9639H16.9597C16.7922 19.9639 16.6316 20.0344 16.5131 20.16C16.3947 20.2856 16.3281 20.4559 16.3281 20.6335C16.3281 20.8111 16.3947 20.9815 16.5131 21.107C16.6316 21.2326 16.7922 21.3032 16.9597 21.3032H19.2594C19.4269 21.3032 19.5875 21.2326 19.7059 21.107C19.8244 20.9815 19.8909 20.8111 19.8909 20.6335C19.8909 20.4559 19.8244 20.2856 19.7059 20.16C19.5875 20.0344 19.4269 19.9639 19.2594 19.9639Z" fill="#FF9900"/>
<path d="M29.125 17.2853C28.4748 17.2842 27.8404 17.4982 27.3103 17.8974C26.8374 17.5437 26.282 17.3346 25.7047 17.2929C25.1274 17.2512 24.5504 17.3784 24.0367 17.6608C23.523 17.9431 23.0923 18.3697 22.7917 18.8939C22.491 19.4182 22.332 20.0199 22.332 20.6334C22.332 21.247 22.491 21.8487 22.7916 22.3729C23.0922 22.8972 23.5229 23.3238 24.0366 23.6061C24.5503 23.8885 25.1273 24.0158 25.7046 23.9741C26.2819 23.9324 26.8373 23.7233 27.3102 23.3697C27.8403 23.7689 28.4747 23.9829 29.125 23.9818C29.9625 23.9818 30.7657 23.6291 31.358 23.0011C31.9502 22.3732 32.2829 21.5216 32.2829 20.6335C32.2829 19.7455 31.9502 18.8939 31.358 18.266C30.7657 17.638 29.9625 17.2853 29.125 17.2853V17.2853ZM23.6061 20.6335C23.6061 20.2362 23.7172 19.8478 23.9254 19.5174C24.1336 19.1871 24.4295 18.9296 24.7757 18.7775C25.1219 18.6254 25.5029 18.5857 25.8705 18.6632C26.238 18.7407 26.5756 18.932 26.8406 19.213C27.1056 19.494 27.286 19.8519 27.3591 20.2416C27.4322 20.6313 27.3947 21.0353 27.2513 21.4023C27.1079 21.7694 26.8651 22.0832 26.5535 22.3039C26.2419 22.5247 25.8756 22.6425 25.5008 22.6425C24.9985 22.6419 24.5168 22.4301 24.1616 22.0535C23.8064 21.6768 23.6066 21.1662 23.606 20.6335H23.6061ZM29.125 22.6425C28.7953 22.6406 28.472 22.5465 28.1875 22.3698C28.4954 21.8496 28.6587 21.2478 28.6587 20.6336C28.6587 20.0195 28.4954 19.4177 28.1876 18.8974C28.472 18.7206 28.7953 18.6265 29.125 18.6246C29.6275 18.6246 30.1094 18.8362 30.4648 19.213C30.8201 19.5897 31.0197 20.1007 31.0197 20.6335C31.0197 21.1663 30.8201 21.6773 30.4648 22.0541C30.1094 22.4308 29.6275 22.6425 29.125 22.6425V22.6425Z" fill="#FF9900"/>
</svg>
