<svg width="24" height="24" viewBox="0 0 24 24" fill="none" xmlns="http://www.w3.org/2000/svg">
<path d="M11.9998 0.35376C9.69641 0.35376 7.44472 1.0368 5.52949 2.31652C3.61426 3.59623 2.12153 5.41514 1.24004 7.54322C0.358562 9.67131 0.127926 12.013 0.577302 14.2722C1.02668 16.5313 2.13588 18.6065 3.76465 20.2353C5.39341 21.864 7.46859 22.9732 9.72775 23.4226C11.9869 23.872 14.3286 23.6413 16.4567 22.7599C18.5848 21.8784 20.4037 20.3856 21.6834 18.4704C22.9631 16.5552 23.6462 14.3035 23.6462 12.0001C23.6426 8.91236 22.4145 5.95211 20.2311 3.76876C18.0478 1.58542 15.0876 0.35727 11.9998 0.35376Z" fill="#CBCBCB"/>
</svg>
