<svg width="25" height="20" viewBox="0 0 25 20" fill="none" xmlns="http://www.w3.org/2000/svg">
<path d="M24.375 13.75H23.75V9.52734C23.75 9.03125 23.5508 8.55469 23.1992 8.20312L19.2969 4.30078C18.9453 3.94922 18.4688 3.75 17.9727 3.75H16.25V1.875C16.25 0.839844 15.4102 0 14.375 0H4.375C3.33984 0 2.5 0.839844 2.5 1.875V3.75H0.3125C0.140625 3.75 0 3.89062 0 4.0625V4.6875C0 4.85938 0.140625 5 0.3125 5H10.9375C11.1094 5 11.25 5.14062 11.25 5.3125V5.9375C11.25 6.10938 11.1094 6.25 10.9375 6.25H1.5625C1.39062 6.25 1.25 6.39062 1.25 6.5625V7.1875C1.25 7.35938 1.39062 7.5 1.5625 7.5H9.6875C9.85938 7.5 10 7.64062 10 7.8125V8.4375C10 8.60938 9.85938 8.75 9.6875 8.75H0.3125C0.140625 8.75 0 8.89062 0 9.0625V9.6875C0 9.85938 0.140625 10 0.3125 10H8.4375C8.60938 10 8.75 10.1406 8.75 10.3125V10.9375C8.75 11.1094 8.60938 11.25 8.4375 11.25H2.5V16.25C2.5 18.3203 4.17969 20 6.25 20C8.32031 20 10 18.3203 10 16.25H15C15 18.3203 16.6797 20 18.75 20C20.8203 20 22.5 18.3203 22.5 16.25H24.375C24.7188 16.25 25 15.9688 25 15.625V14.375C25 14.0312 24.7188 13.75 24.375 13.75ZM6.25 18.125C5.21484 18.125 4.375 17.2852 4.375 16.25C4.375 15.2148 5.21484 14.375 6.25 14.375C7.28516 14.375 8.125 15.2148 8.125 16.25C8.125 17.2852 7.28516 18.125 6.25 18.125ZM18.75 18.125C17.7148 18.125 16.875 17.2852 16.875 16.25C16.875 15.2148 17.7148 14.375 18.75 14.375C19.7852 14.375 20.625 15.2148 20.625 16.25C20.625 17.2852 19.7852 18.125 18.75 18.125ZM21.875 10H16.25V5.625H17.9727L21.875 9.52734V10Z" fill="#FCC314"/>
</svg>
