<svg width="30" height="29" viewBox="0 0 30 29" fill="none" xmlns="http://www.w3.org/2000/svg">
<path d="M28.2107 8.94534L22.2125 11.5796L18.3303 8.14567V5.95047L22.2125 2.51657L28.2107 5.1508C28.8439 5.43304 29.577 5.16648 29.8769 4.58632C30.1768 3.99048 29.8936 3.30056 29.2771 3.01832L22.7457 0.148893C22.436 0.0113572 22.0885 -0.0323396 21.7513 0.0238304C21.4141 0.0800003 21.1037 0.233269 20.8629 0.462492L17.9638 2.97128C17.8142 2.77853 17.6187 2.6214 17.3931 2.51249C17.1674 2.40358 16.9178 2.3459 16.6641 2.34409C15.7477 2.34409 14.998 3.04968 14.998 3.91208V5.48008H9.69952C8.89975 3.36328 6.63375 1.92073 4.00119 2.45385C2.06842 2.84584 0.418909 4.41384 0.0690113 6.26407C-0.297548 8.33383 0.835453 10.137 2.53495 11.0935L6.80037 24.296H1.66854V29H23.3288V24.296H17.2973L9.01638 9.82342C9.29963 9.4471 9.5329 9.0551 9.69952 8.61607H14.998V10.1841C14.998 11.0465 15.7477 11.7521 16.6641 11.7521C17.1973 11.7521 17.6638 11.5012 17.9638 11.1249L20.8629 13.6336C21.3628 14.104 22.1125 14.2295 22.7457 13.9472L29.2771 11.0778C29.9102 10.7956 30.1768 10.1057 29.8769 9.50982C29.735 9.22747 29.48 9.00953 29.1677 8.90373C28.8554 8.79794 28.5113 8.8129 28.2107 8.94534V8.94534ZM5.0009 8.61607C4.0845 8.61607 3.33472 7.91047 3.33472 7.04807C3.33472 6.18567 4.0845 5.48008 5.0009 5.48008C5.91729 5.48008 6.66707 6.18567 6.66707 7.04807C6.66707 7.91047 5.91729 8.61607 5.0009 8.61607Z" fill="#FCC314"/>
</svg>
