<svg width="30" height="28" viewBox="0 0 30 28" fill="none" xmlns="http://www.w3.org/2000/svg">
<path d="M25.6484 5.66768C24.3043 4.13573 22.6219 2.97354 20.737 2.33104C23.9067 0.552285 26.4363 0.242485 27.5879 1.52319C28.3732 2.39774 28.5004 4.02604 27.9549 6.1346L27.4421 4.87762L26.8353 5.18371L27.8198 7.59763L30.0011 6.49703L29.726 5.82184L28.579 6.40068C29.2231 3.96082 29.046 2.09758 28.0588 0.999196C26.5888 -0.636515 23.5743 -0.249637 19.7785 2.05459C19.1258 1.89887 18.4524 1.80408 17.7651 1.77666C17.7058 1.77147 17.6472 1.76702 17.5879 1.76702C17.5633 1.76702 17.5387 1.76851 17.5146 1.76999C17.4574 1.76851 17.4 1.76702 17.3421 1.76702C17.2442 1.76702 17.1469 1.76851 17.0497 1.77221C16.9138 1.77592 16.7786 1.78259 16.6441 1.79148H9.03648V2.53263H13.4044C11.7393 3.20263 10.25 4.28396 9.03648 5.66694C8.87663 5.84926 8.72144 6.03603 8.57158 6.22873C8.30716 6.56743 8.05806 6.92096 7.82628 7.28931H2.26078V8.03046H7.39201C7.14624 8.48404 6.92445 8.95534 6.7293 9.44234H4.26492V10.1835H6.45622C5.98465 11.588 5.72689 13.1073 5.72689 14.6926C5.72689 15.5449 5.80216 16.378 5.94402 17.1851C5.87809 17.3126 5.81348 17.4394 5.7502 17.5661H0.164062V18.3072H5.39254C5.14344 18.8445 4.92164 19.3708 4.72849 19.8821H2.02433V20.6233H4.4654C4.19898 21.4268 4.00782 22.1864 3.90059 22.8868C3.62351 24.6922 3.89793 26.1137 4.69319 26.9986C5.29196 27.6649 6.13518 28.0007 7.20752 28C7.43464 28 7.67242 27.9851 7.92019 27.9548C9.18901 27.7998 10.663 27.2551 12.3021 26.3369C13.6202 27.0461 15.0762 27.4864 16.6128 27.5924C16.6141 27.5931 16.6154 27.5931 16.6174 27.5931C16.7586 27.6027 16.9004 27.6101 17.043 27.6138C17.1422 27.6168 17.2421 27.6183 17.342 27.6183C17.4046 27.6183 17.4666 27.6168 17.5293 27.6161C17.5486 27.6168 17.5679 27.6183 17.5879 27.6183C17.6425 27.6183 17.6977 27.6145 17.7524 27.6094C19.9883 27.5234 22.129 26.7335 23.9673 25.311C24.6307 24.7974 25.2388 24.215 25.785 23.5724C25.8443 23.5034 25.9015 23.4345 25.9582 23.364C26.9006 22.2072 27.6486 20.8665 28.1654 19.3937L27.5454 19.1239C27.1617 20.2171 26.6508 21.2199 26.0368 22.116C24.8666 21.4342 23.4252 20.9086 21.8273 20.567C22.135 18.8839 22.3129 16.9805 22.3262 14.9483H28.288C28.27 15.9296 28.1481 16.9013 27.9231 17.841L28.5665 18.0322C28.8262 16.9487 28.9581 15.8251 28.9581 14.6926C28.9581 11.4582 27.8844 8.49731 26.1134 6.22791C25.9635 6.03596 25.8089 5.84919 25.6484 5.66768ZM13.3312 20.4714C13.1147 20.512 12.9002 20.5558 12.6891 20.6032C11.1638 20.9449 9.78779 21.454 8.66083 22.1085C7.69773 20.7159 6.99904 19.0861 6.6487 17.3133C7.06365 16.5314 7.52589 15.7406 8.03208 14.9483H12.8489C12.8489 14.9609 12.8489 14.9743 12.8496 14.9869C12.8503 15.0966 12.8516 15.2062 12.8536 15.3153C12.8529 15.3198 12.8536 15.3241 12.8536 15.3286C12.8549 15.425 12.8569 15.5206 12.8596 15.6154C12.8623 15.7214 12.8649 15.8274 12.8689 15.9334C12.8689 15.9534 12.8703 15.9734 12.8709 15.9935C12.8762 16.1372 12.8822 16.281 12.8896 16.4233C12.8942 16.5285 12.8996 16.633 12.9062 16.7368C12.9796 18.0634 13.1241 19.3189 13.3312 20.4714ZM20.3933 5.95006C20.6151 6.58077 20.8089 7.26856 20.9755 8.00155C19.8219 8.20166 18.5963 8.30691 17.3421 8.30691C16.2578 8.30691 15.1955 8.22834 14.183 8.07797C14.2323 7.8571 14.2836 7.64069 14.3382 7.42798C14.3575 7.35238 14.3769 7.27753 14.3968 7.20341C15.7935 5.85082 17.2162 4.66128 18.6189 3.67481C18.7642 3.57179 18.9093 3.47174 19.0538 3.37391C19.5435 3.96156 20.0017 4.83389 20.3933 5.95006ZM21.6142 12.8412C21.6195 12.9449 21.6241 13.0494 21.6288 13.1539C21.6336 13.2584 21.6375 13.3629 21.6408 13.4682C21.6408 13.477 21.6416 13.4852 21.6422 13.4934C21.6495 13.7297 21.6548 13.9677 21.6582 14.2071H13.5171C13.5431 12.289 13.7209 10.4495 14.034 8.80266C15.0951 8.96349 16.208 9.04798 17.3422 9.04798C18.4159 9.04798 19.4703 8.97238 20.48 8.82719C20.6978 8.79606 20.9136 8.76197 21.1267 8.72417C21.3731 9.99746 21.5382 11.3878 21.6142 12.8412ZM21.1685 20.4372C20.9554 20.3994 20.7397 20.3646 20.5211 20.3335C19.5001 20.1853 18.4318 20.1074 17.3421 20.1074C16.1912 20.1074 15.0649 20.1942 13.9919 20.3587C13.6928 18.7037 13.5283 16.8627 13.515 14.9483H21.6601C21.6601 14.9594 21.6601 14.9706 21.6594 14.9817C21.6588 15.0921 21.6574 15.2025 21.6554 15.3122C21.6534 15.433 21.6508 15.5538 21.6481 15.6739C21.6454 15.7792 21.6421 15.8844 21.6381 15.9889C21.5816 17.5579 21.4216 19.0632 21.1685 20.4372ZM18.1587 3.12177C17.0504 3.90894 15.9321 4.81751 14.8244 5.83066C15.5031 3.95185 16.3717 2.78751 17.2569 2.55331C17.3455 2.52959 17.4333 2.51551 17.5219 2.51106C17.5885 2.5118 17.6551 2.51403 17.7211 2.51625C17.9922 2.5459 18.2632 2.663 18.529 2.86229C18.4058 2.94686 18.2819 3.03364 18.1587 3.12177ZM12.9149 12.5103C12.9072 12.6355 12.9 12.761 12.8936 12.8871C12.8862 13.0346 12.8789 13.1821 12.8736 13.3311C12.8723 13.3466 12.8716 13.3622 12.8716 13.3785C12.8696 13.44 12.8669 13.5015 12.8656 13.5638C12.8623 13.6417 12.8603 13.7202 12.8589 13.7995C12.8576 13.8374 12.8569 13.8759 12.8563 13.9144C12.8536 14.0116 12.8523 14.1093 12.8509 14.2073H8.51963C9.60995 12.5863 10.8714 10.9692 12.2628 9.42159C12.3914 9.27855 12.5206 9.13625 12.6498 8.99617C12.767 8.8687 12.8842 8.74344 13.0021 8.61819C13.1247 8.64331 13.2479 8.66785 13.3718 8.69075C13.1517 9.86428 12.9961 11.1488 12.9149 12.5103ZM14.7819 23.4353C14.5961 22.9068 14.4295 22.3383 14.283 21.7365C14.2311 21.523 14.1818 21.3052 14.1345 21.0843C15.1602 20.9294 16.2393 20.8486 17.3422 20.8486C18.617 20.8486 19.8585 20.956 21.0241 21.1614C20.8482 21.9782 20.6371 22.7414 20.3933 23.4353C19.6573 25.5319 18.6876 26.7704 17.7138 26.8697C17.6545 26.8719 17.5946 26.8734 17.5353 26.8749C17.4427 26.8712 17.3502 26.8563 17.2576 26.8319C16.3531 26.5932 15.4658 25.3851 14.7819 23.4353ZM19.8777 2.83872C21.8519 3.36197 23.6196 4.48036 25.0196 6.01454C25.1722 6.18204 25.3207 6.35398 25.4646 6.53112C24.3829 7.11744 23.0754 7.57243 21.6354 7.87482C21.5862 7.65321 21.5342 7.4368 21.4796 7.22483C21.0148 5.4068 20.3813 3.94303 19.6354 2.99214C19.716 2.94019 19.7971 2.88905 19.8777 2.83872ZM15.0502 2.77787C15.3174 2.71414 15.5884 2.66152 15.8621 2.62001C15.0396 3.47233 14.3336 4.9235 13.812 6.78822C13.4704 7.12248 13.13 7.46637 12.7923 7.81916C11.4529 7.51751 10.2367 7.08246 9.21965 6.53104C9.36351 6.35391 9.51138 6.18204 9.66457 6.01446C11.1219 4.41737 12.9782 3.27074 15.0502 2.77787ZM8.77613 7.11292C9.75921 7.66656 10.9261 8.11347 12.2109 8.43735C12.0704 8.58928 11.9312 8.7427 11.792 8.8976C10.2521 10.6111 8.86671 12.4092 7.69247 14.2072H6.40233C6.49691 11.5324 7.36943 9.07696 8.77613 7.11292ZM7.21957 14.9483C6.95915 15.3678 6.71204 15.7858 6.47693 16.2031C6.43097 15.791 6.40366 15.3723 6.39567 14.9483H7.21957ZM5.16482 26.4746C4.52807 25.7668 4.31827 24.5691 4.55671 23.0113C4.76785 21.6356 5.32334 20.0022 6.17321 18.2472C6.66542 20.1593 7.5446 21.8914 8.70952 23.3308L8.90667 23.5686C9.68595 24.4854 10.5844 25.2755 11.5735 25.9084C8.58424 27.4893 6.26646 27.7012 5.16482 26.4746ZM9.5247 23.2136C9.3755 23.0453 9.23164 22.8726 9.09243 22.6948C10.3026 22.0159 11.8052 21.5052 13.471 21.1955C14.0032 23.736 14.8431 25.7098 15.8621 26.7652C15.5884 26.7236 15.318 26.671 15.0509 26.6072C12.9116 26.0981 11.0013 24.8923 9.5247 23.2136ZM19.4082 26.6628C20.2834 25.6964 21.0201 24.0466 21.5343 21.9425C21.5862 21.7298 21.6362 21.5118 21.6835 21.2895C23.1694 21.6052 24.5095 22.0848 25.6071 22.7036C25.4686 22.8815 25.3247 23.0549 25.1776 23.2232C23.6317 24.9886 21.6275 26.1967 19.4082 26.6628ZM28.2819 14.2072H22.3242C22.2976 12.172 22.107 10.2709 21.7853 8.59669C23.3419 8.26688 24.7526 7.76365 25.9081 7.11292C27.3149 9.07696 28.1874 11.5324 28.2819 14.2072Z" fill="#FF9900"/>
</svg>
