<svg width="28" height="32" viewBox="0 0 28 32" fill="none" xmlns="http://www.w3.org/2000/svg">
<path fill-rule="evenodd" clip-rule="evenodd" d="M13.9853 29.9371C14.0531 29.9265 14.12 29.9103 14.1851 29.8888C14.3369 29.8443 14.5327 29.7709 14.7724 29.6607C15.2519 29.4422 15.8653 29.1 16.5566 28.6302C18.2939 27.4201 19.834 25.9649 21.1257 24.3131C24.1765 20.4522 26.7338 14.5865 25.627 6.5496C25.6019 6.37706 25.5272 6.21484 25.4113 6.0815C25.2954 5.94816 25.143 5.84908 24.9717 5.7956C23.6711 5.3838 21.4754 4.71293 19.3037 4.1426C17.086 3.56067 15.0461 2.06287 13.9853 2.06287V29.9371ZM8.13543 2.14933C10.3031 1.579 12.6067 0 13.9853 0C15.3638 0 17.6674 1.579 19.8351 2.14933C22.0528 2.72933 24.2884 3.41567 25.603 3.83133C26.1527 4.00698 26.6399 4.3291 27.0089 4.76069C27.3779 5.19228 27.6135 5.71583 27.6888 6.2712C28.8796 14.9267 26.1165 21.3415 22.764 25.5852C21.3424 27.4006 19.6473 28.9992 17.7353 30.3277C17.0742 30.7874 16.3737 31.1916 15.6415 31.536C15.0821 31.7912 14.4807 32 13.9853 32C13.4898 32 12.8904 31.7912 12.329 31.536C11.5968 31.1916 10.8963 30.7874 10.2352 30.3277C8.32329 28.9991 6.62819 27.4005 5.20652 25.5852C1.85406 21.3415 -0.909031 14.9267 0.281714 6.2712C0.357009 5.71583 0.592672 5.19228 0.961631 4.76069C1.33059 4.3291 1.81788 4.00698 2.36751 3.83133C4.27589 3.22583 6.19909 2.665 8.13543 2.14933Z" fill="#888888"/>
</svg>
