<svg width="19" height="22" viewBox="0 0 19 22" fill="none" xmlns="http://www.w3.org/2000/svg">
<path d="M5.36445 22C0.708049 19.4596 -0.517883 17.0551 0.183017 13.771C0.700454 11.3461 2.39477 9.37314 2.55723 6.95282C3.28099 8.2278 3.58341 9.14716 3.66428 10.4795C5.9662 7.74941 7.48735 3.97001 7.57743 0C7.57743 0 13.5731 3.41018 13.9665 8.5613C14.4827 7.49956 14.7425 5.81328 14.2263 4.72039C15.7747 5.81333 24.8378 15.5158 12.9987 22C15.2246 17.8046 13.573 12.1438 9.70827 9.52934C9.96637 10.6535 9.51386 14.8464 7.80409 16.6888C8.27783 13.6103 7.35334 12.3086 7.35334 12.3086C7.35334 12.3086 7.03603 14.0329 5.80491 15.7748C4.68069 17.3654 3.90172 19.0537 5.36445 22Z" fill="#FCC314"/>
</svg>
