<svg width="30" height="40" viewBox="0 0 30 40" fill="none" xmlns="http://www.w3.org/2000/svg">
<path d="M15 38.9058C14.97 38.8734 14.9388 38.8397 14.9066 38.8048C14.5008 38.3652 13.9199 37.7243 13.2222 36.9219C11.8261 35.3164 9.96611 33.0688 8.10782 30.4981C6.24785 27.9252 4.40006 25.043 3.01989 22.1676C1.63447 19.2813 0.75 16.4625 0.75 14C0.75 6.73211 7.08249 0.75 15 0.75C22.9175 0.75 29.25 6.73211 29.25 14C29.25 16.4625 28.3655 19.2813 26.9801 22.1676C25.5999 25.043 23.7521 27.9252 21.8922 30.4981C20.0339 33.0688 18.1739 35.3164 16.7778 36.9219C16.0801 37.7243 15.4992 38.3652 15.0934 38.8048C15.0612 38.8397 15.03 38.8734 15 38.9058ZM8.89286 14C8.89286 17.2221 11.6782 19.75 15 19.75C18.3218 19.75 21.1071 17.2221 21.1071 14C21.1071 10.7779 18.3218 8.25 15 8.25C11.6782 8.25 8.89286 10.7779 8.89286 14Z" stroke="#888888" stroke-width="1.5"/>
</svg>
