<svg width="38" height="32" viewBox="0 0 38 32" fill="none" xmlns="http://www.w3.org/2000/svg">
<rect x="20.6353" y="10.5596" width="2.38182" height="8" rx="1.19091" fill="#888888"/>
<rect x="20.6353" y="18.8799" width="2.4" height="7.57701" rx="1.2" transform="rotate(-90 20.6353 18.8799)" fill="#888888"/>
<rect width="3.1825" height="9.58033" rx="1.59125" transform="matrix(0.70561 -0.710994 0.699086 0.712672 0.248535 14.0332)" fill="#888888"/>
<rect width="3.19624" height="9.53901" rx="1.59812" transform="matrix(0.592371 0.803789 -0.799167 0.603636 13.5503 12.9766)" fill="#888888"/>
<path fill-rule="evenodd" clip-rule="evenodd" d="M35.9991 16C35.9991 23.7575 29.8018 30 22.2137 30C18.0351 30 14.2782 28.107 11.7458 25.1105C11.2274 25.4752 10.7331 25.9223 10.2695 26.4614C13.164 29.8536 17.4415 32 22.2137 32C30.9317 32 37.9991 24.8366 37.9991 16C37.9991 7.16344 30.9317 0 22.2137 0C13.4956 0 6.42822 7.16344 6.42822 16C6.42822 16.6825 6.47039 17.3551 6.55222 18.0152C7.25429 18.2729 7.95915 18.4587 8.65673 18.5542C8.50668 17.7265 8.42822 16.8728 8.42822 16C8.42822 8.24247 14.6255 2 22.2137 2C29.8018 2 35.9991 8.24247 35.9991 16Z" fill="#888888"/>
</svg>
