<svg width="45" height="32" viewBox="0 0 45 32" fill="none" xmlns="http://www.w3.org/2000/svg">
<path d="M41.7857 0H3.21429C2.3618 0 1.54424 0.337142 0.941442 0.937258C0.338647 1.53737 0 2.35131 0 3.2V28.8C0 29.6487 0.338647 30.4626 0.941442 31.0627C1.54424 31.6629 2.3618 32 3.21429 32H41.7857C42.6382 32 43.4558 31.6629 44.0586 31.0627C44.6614 30.4626 45 29.6487 45 28.8V3.2C45 2.35131 44.6614 1.53737 44.0586 0.937258C43.4558 0.337142 42.6382 0 41.7857 0V0ZM41.7857 28.8H3.21429V3.2H41.7857V28.8Z" fill="#888888"/>
<path d="M25.7141 12.8006H36.9641C37.3903 12.8006 37.7991 12.632 38.1005 12.332C38.4019 12.0319 38.5712 11.6249 38.5712 11.2006C38.5712 10.7762 38.4019 10.3693 38.1005 10.0692C37.7991 9.76916 37.3903 9.60059 36.9641 9.60059H25.7141C25.2878 9.60059 24.8791 9.76916 24.5777 10.0692C24.2763 10.3693 24.1069 10.7762 24.1069 11.2006C24.1069 11.6249 24.2763 12.0319 24.5777 12.332C24.8791 12.632 25.2878 12.8006 25.7141 12.8006Z" fill="#888888"/>
<path d="M25.7141 19.2H32.1426C32.5689 19.2 32.9777 19.0314 33.2791 18.7314C33.5805 18.4313 33.7498 18.0243 33.7498 17.6C33.7498 17.1757 33.5805 16.7687 33.2791 16.4686C32.9777 16.1686 32.5689 16 32.1426 16H25.7141C25.2878 16 24.8791 16.1686 24.5777 16.4686C24.2763 16.7687 24.1069 17.1757 24.1069 17.6C24.1069 18.0243 24.2763 18.4313 24.5777 18.7314C24.8791 19.0314 25.2878 19.2 25.7141 19.2Z" fill="#888888"/>
<path d="M8.03634 24C8.46258 24 8.87137 23.8314 9.17276 23.5314C9.47416 23.2313 9.64349 22.8243 9.64349 22.4C9.64349 21.952 11.0578 20.976 11.7006 20.8H11.8774C12.5411 20.6581 13.1528 20.3371 13.6453 19.872C14.1739 19.9948 14.7238 19.9948 15.2524 19.872C15.7449 20.3371 16.3566 20.6581 17.0203 20.8H17.1328C17.8238 21.056 19.1899 22.032 19.2542 22.48C19.2542 22.9043 19.4235 23.3113 19.7249 23.6114C20.0263 23.9114 20.4351 24.08 20.8613 24.08C21.2876 24.08 21.6964 23.9114 21.9978 23.6114C22.2992 23.3113 22.4685 22.9043 22.4685 22.48C22.4685 19.648 18.6596 17.904 18.0971 17.68C19.0093 16.2226 19.4263 14.5116 19.2863 12.8C19.2241 11.547 18.6961 10.3618 17.8051 9.47469C16.914 8.5876 15.7235 8.06199 14.4649 8C13.2063 8.06199 12.0158 8.5876 11.1248 9.47469C10.2337 10.3618 9.70575 11.547 9.64349 12.8C9.52092 14.4849 9.93724 16.1651 10.8328 17.6V17.6C10.2381 17.824 6.4292 19.568 6.4292 22.4C6.4292 22.8243 6.59852 23.2313 6.89992 23.5314C7.20132 23.8314 7.6101 24 8.03634 24ZM14.4649 11.2C14.8715 11.2556 15.2486 11.442 15.5388 11.7309C15.829 12.0198 16.0162 12.3952 16.0721 12.8C16.1794 13.457 16.1322 14.1298 15.9342 14.7656C15.7362 15.4013 15.3928 15.9827 14.931 16.464C14.8698 16.525 14.7971 16.5733 14.7172 16.6063C14.6372 16.6393 14.5515 16.6563 14.4649 16.6563C14.3784 16.6563 14.2926 16.6393 14.2127 16.6063C14.1327 16.5733 14.06 16.525 13.9988 16.464C13.536 15.9834 13.1919 15.4021 12.9938 14.7661C12.7957 14.1301 12.7492 13.457 12.8578 12.8C12.9136 12.3952 13.1009 12.0198 13.391 11.7309C13.6812 11.442 14.0584 11.2556 14.4649 11.2Z" fill="#888888"/>
</svg>
