<svg width="32" height="32" viewBox="0 0 32 32" fill="none" xmlns="http://www.w3.org/2000/svg">
<path d="M16.0019 32H16.0006C7.17828 32 0.000638353 24.8226 0 16.0002C0 7.1774 7.17732 0 16 0C24.8227 0 32 7.17771 32 16.0002C32 24.8223 24.8233 32 16.0019 32ZM16 1.2764C7.88143 1.2764 1.27671 7.88118 1.27671 15.9998C1.27734 24.1185 7.88238 30.7233 16.0006 30.7233H16.0019C24.1195 30.7233 30.7233 24.1185 30.7233 15.9998C30.7233 7.88118 24.1186 1.2764 16 1.2764Z" fill="#888888"/>
<path d="M16.1548 25.1212C13.2985 25.1212 10.9746 22.9348 10.9746 20.2479C10.9746 19.8956 11.2606 19.6096 11.613 19.6096C11.9653 19.6096 12.2513 19.8956 12.2513 20.2479C12.2513 22.231 14.0023 23.8445 16.1548 23.8445C18.3071 23.8445 20.0581 22.231 20.0581 20.2479C20.0581 18.2649 18.3074 16.6514 16.1548 16.6514C13.2985 16.6514 10.9746 14.4654 10.9746 11.7782C10.9746 9.09133 13.2985 6.90527 16.1548 6.90527C17.6904 6.90527 19.1366 7.5398 20.1235 8.6464C20.3581 8.90972 20.3351 9.31316 20.0721 9.54776C19.8091 9.78236 19.405 9.75906 19.1711 9.49637C18.4261 8.66108 17.3269 8.18199 16.1552 8.18199C14.0026 8.18199 12.2516 9.79513 12.2516 11.7782C12.2516 13.7613 14.0026 15.3747 16.1552 15.3747C19.0112 15.3747 21.3351 17.5611 21.3351 20.2479C21.3351 22.9348 19.0108 25.1212 16.1548 25.1212Z" fill="#888888"/>
<path d="M16.0114 27.4389C15.659 27.4389 15.373 27.153 15.373 26.8006V5.22723C15.373 4.87485 15.659 4.58887 16.0114 4.58887C16.3638 4.58887 16.6498 4.87485 16.6498 5.22723V26.8006C16.6498 27.153 16.3641 27.4389 16.0114 27.4389Z" fill="#888888"/>
</svg>
