<svg width="48" height="32" viewBox="0 0 48 32" fill="none" xmlns="http://www.w3.org/2000/svg">
<path d="M44.5 0H3.5C1.57031 0 0 1.58307 0 3.52843V28.4716C0 30.4169 1.57031 32 3.5 32H44.5C46.4297 32 48 30.4169 48 28.4716V3.52843C48 1.58307 46.4297 0 44.5 0ZM3.5 3.02437H44.5C44.7754 3.02437 45 3.2508 45 3.52843V7.82968H3V3.52843C3 3.2508 3.22461 3.02437 3.5 3.02437ZM44.5 28.9756H3.5C3.22461 28.9756 3 28.7492 3 28.4716V13.8814H45V28.4716C45 28.7492 44.7754 28.9756 44.5 28.9756Z" fill="#888888"/>
</svg>
