<svg width="26" height="26" viewBox="0 0 26 26" fill="none" xmlns="http://www.w3.org/2000/svg">
<path d="M9.72766 25.0006C10.3302 25.0006 10.8186 24.4889 10.8186 23.8577C10.8186 23.2265 10.3302 22.7148 9.72766 22.7148C9.12515 22.7148 8.63672 23.2265 8.63672 23.8577C8.63672 24.4889 9.12515 25.0006 9.72766 25.0006Z" stroke="#888888" stroke-width="1.5" stroke-linecap="round" stroke-linejoin="round"/>
<path d="M21.7276 25.0006C22.3301 25.0006 22.8185 24.4889 22.8185 23.8577C22.8185 23.2265 22.3301 22.7148 21.7276 22.7148C21.1251 22.7148 20.6367 23.2265 20.6367 23.8577C20.6367 24.4889 21.1251 25.0006 21.7276 25.0006Z" stroke="#888888" stroke-width="1.5" stroke-linecap="round" stroke-linejoin="round"/>
<path d="M1 1H5.36364L8.28727 16.3031C8.38703 16.8292 8.66026 17.3019 9.05914 17.6383C9.45802 17.9747 9.95713 18.1534 10.4691 18.1431H21.0727C21.5847 18.1534 22.0838 17.9747 22.4827 17.6383C22.8816 17.3019 23.1548 16.8292 23.2545 16.3031L25 6.71437H6.45455" stroke="#888888" stroke-width="1.5" stroke-linecap="round" stroke-linejoin="round"/>
</svg>
