<svg width="32" height="32" viewBox="0 0 32 32" fill="none" xmlns="http://www.w3.org/2000/svg">
<path d="M24 22C23.7663 22.0005 23.5399 21.9191 23.36 21.77L18.84 18H17C14.8783 18 12.8434 17.1571 11.3431 15.6569C9.84285 14.1566 9 12.1217 9 10C9 7.87827 9.84285 5.84344 11.3431 4.34315C12.8434 2.84285 14.8783 2 17 2H23C24.9431 2.00555 26.8178 2.71814 28.274 4.00472C29.7303 5.2913 30.6684 7.06391 30.9133 8.99156C31.1583 10.9192 30.6933 12.8701 29.6051 14.48C28.5169 16.0899 26.88 17.2487 25 17.74V21C25.0005 21.1913 24.9461 21.3787 24.8433 21.5399C24.7405 21.7012 24.5936 21.8297 24.42 21.91C24.2882 21.9701 24.1449 22.0008 24 22ZM17 4C15.4087 4 13.8826 4.63214 12.7574 5.75736C11.6321 6.88258 11 8.4087 11 10C11 11.5913 11.6321 13.1174 12.7574 14.2426C13.8826 15.3679 15.4087 16 17 16H19.2C19.4337 15.9995 19.6601 16.0809 19.84 16.23L23 18.86V16.92C22.9976 16.6773 23.0835 16.4421 23.2418 16.2581C23.4 16.0741 23.6197 15.954 23.86 15.92C25.3378 15.6778 26.6716 14.8918 27.5994 13.7163C28.5272 12.5408 28.9819 11.0609 28.8741 9.56722C28.7663 8.07359 28.1039 6.67425 27.017 5.64412C25.9301 4.61399 24.4973 4.02754 23 4H17Z" fill="#2B88DE"/>
<path d="M21 9H19V11H21V9Z" fill="#2B88DE"/>
<path d="M16 9H14V11H16V9Z" fill="#2B88DE"/>
<path d="M26 9H24V11H26V9Z" fill="#2B88DE"/>
<path d="M7.99909 30.0001C7.85423 30.0009 7.71092 29.9701 7.57909 29.9101C7.40551 29.8297 7.25861 29.7013 7.15581 29.54C7.05301 29.3787 6.99862 29.1913 6.99909 29.0001V25.7401C5.40797 25.3162 3.9864 24.4116 2.92842 23.1498C1.87043 21.8881 1.22757 20.3306 1.08757 18.6899C0.947565 17.0492 1.31724 15.4053 2.14614 13.9826C2.97505 12.5598 4.22279 11.4274 5.71909 10.7401C5.83986 10.6764 5.97239 10.6382 6.1085 10.6277C6.24461 10.6172 6.38143 10.6347 6.51052 10.6791C6.63961 10.7235 6.75825 10.7939 6.85912 10.8859C6.95999 10.9778 7.04095 11.0895 7.09703 11.214C7.15311 11.3384 7.18311 11.4731 7.18518 11.6096C7.18725 11.7461 7.16136 11.8815 7.10909 12.0077C7.05682 12.1338 6.97928 12.2478 6.88125 12.3428C6.78322 12.4378 6.66678 12.5118 6.53909 12.5601C5.35902 13.0951 4.38386 13.9978 3.75944 15.1331C3.13502 16.2685 2.89491 17.5754 3.07499 18.8585C3.25508 20.1417 3.8457 21.332 4.75852 22.2516C5.67135 23.1712 6.85732 23.7705 8.13909 23.9601C8.37937 23.994 8.5991 24.1142 8.75733 24.2982C8.91555 24.4822 9.00148 24.7174 8.99909 24.9601V26.9001L12.1591 24.2701C12.3333 24.1065 12.5604 24.0107 12.7991 24.0001H14.9991C15.7999 24.0016 16.5928 23.8411 17.33 23.5283C18.0673 23.2156 18.7336 22.757 19.2891 22.1801C19.4747 21.9891 19.7286 21.8797 19.995 21.876C20.1268 21.8741 20.2577 21.8983 20.3803 21.947C20.5028 21.9958 20.6145 22.0682 20.7091 22.1601C20.8036 22.252 20.8792 22.3617 20.9313 22.4828C20.9835 22.6039 21.0113 22.7341 21.0132 22.8659C21.015 22.9978 20.9909 23.1287 20.9422 23.2513C20.8934 23.3738 20.821 23.4855 20.7291 23.5801C19.984 24.3456 19.093 24.9541 18.1089 25.3698C17.1248 25.7854 16.0674 25.9997 14.9991 26.0001H13.1591L8.63909 29.7701C8.45918 29.9192 8.23275 30.0005 7.99909 30.0001Z" fill="#2B88DE"/>
</svg>
