<svg width="38" height="41" viewBox="0 0 38 41" fill="none" xmlns="http://www.w3.org/2000/svg">
<path d="M37.9983 36.5782C37.9983 39.019 35.9906 41 33.5167 41C31.0429 41 29.0352 39.019 29.0352 36.5782C29.0352 34.1374 31.0429 32.1565 33.5167 32.1565C35.9906 32.1565 37.9983 34.1374 37.9983 36.5782Z" fill="#CBCBCB"/>
<path d="M11.1116 36.5782C11.1116 39.019 9.10384 41 6.63001 41C4.15618 41 2.14844 39.019 2.14844 36.5782C2.14844 34.1374 4.15618 32.1565 6.63001 32.1565C9.10384 32.1565 11.1116 34.1374 11.1116 36.5782Z" fill="#CBCBCB"/>
<path d="M5.9661 3.00255L4.92973 0H0V1.59511H3.89337L9.26192 21.609C6.23686 22.6693 3.66929 25.1651 3.16511 28.468C2.98772 29.5658 2.98772 30.0255 2.98772 30.0255H35.8526V28.4586H4.78968C5.22851 25.4936 8.41229 23.0071 11.7081 22.5942C15.0039 22.1814 34.4241 19.3852 34.4241 19.3852L35.8526 3.00255H5.9661Z" fill="#CBCBCB"/>
<path d="M22.6723 5.73063V10.8786C22.6723 11.4246 22.6453 11.9616 22.5913 12.4896C22.5373 13.0116 22.4683 13.5666 22.3843 14.1546H20.8723C20.7883 13.5666 20.7193 13.0116 20.6653 12.4896C20.6113 11.9616 20.5843 11.4246 20.5843 10.8786V5.73063H22.6723ZM20.2333 17.5206C20.2333 17.3346 20.2663 17.1576 20.3323 16.9896C20.4043 16.8216 20.5003 16.6776 20.6203 16.5576C20.7463 16.4376 20.8933 16.3416 21.0613 16.2696C21.2293 16.1976 21.4093 16.1616 21.6013 16.1616C21.7873 16.1616 21.9643 16.1976 22.1323 16.2696C22.3003 16.3416 22.4443 16.4376 22.5643 16.5576C22.6903 16.6776 22.7893 16.8216 22.8613 16.9896C22.9333 17.1576 22.9693 17.3346 22.9693 17.5206C22.9693 17.7126 22.9333 17.8926 22.8613 18.0606C22.7893 18.2226 22.6903 18.3636 22.5643 18.4836C22.4443 18.6036 22.3003 18.6966 22.1323 18.7626C21.9643 18.8346 21.7873 18.8706 21.6013 18.8706C21.4093 18.8706 21.2293 18.8346 21.0613 18.7626C20.8933 18.6966 20.7463 18.6036 20.6203 18.4836C20.5003 18.3636 20.4043 18.2226 20.3323 18.0606C20.2663 17.8926 20.2333 17.7126 20.2333 17.5206Z" fill="white"/>
</svg>
