<svg width="24" height="24" viewBox="0 0 24 24" fill="none" xmlns="http://www.w3.org/2000/svg">
<path d="M11.1141 4.31899L11.9929 5.99747L12.8828 4.32488C13.8486 2.50982 15.3595 1.43555 17.2689 1.43555C20.4184 1.43555 23 4.02173 23 8.00127C23 12.7971 19.085 17.7805 12.3457 22.251C12.2487 22.3096 12.1451 22.3638 12.0551 22.4009C12.0339 22.4097 12.0156 22.4166 12.0004 22.4219C11.986 22.4168 11.9691 22.4104 11.9496 22.4022C11.8608 22.3653 11.7611 22.3115 11.6752 22.2569C4.91835 17.7849 1 12.799 1 8.00127C1 4.02173 3.58164 1.43555 6.73112 1.43555C8.64317 1.43555 10.1747 2.52485 11.1141 4.31899Z" fill="#D2D2D2" stroke="white" stroke-width="2"/>
</svg>
