<svg width="38" height="36" viewBox="0 0 38 36" fill="none" xmlns="http://www.w3.org/2000/svg">
<path d="M30.6931 36H7.30844C6.14557 36 5.03033 35.5259 4.20805 34.682C3.38578 33.8381 2.92383 32.6935 2.92383 31.5V16.5C2.92383 16.1022 3.07781 15.7206 3.3519 15.4393C3.62599 15.158 3.99774 15 4.38537 15C4.77299 15 5.14474 15.158 5.41883 15.4393C5.69292 15.7206 5.8469 16.1022 5.8469 16.5V31.5C5.8469 31.8978 6.00089 32.2794 6.27498 32.5607C6.54907 32.842 6.92082 33 7.30844 33H30.6931C31.0807 33 31.4524 32.842 31.7265 32.5607C32.0006 32.2794 32.1546 31.8978 32.1546 31.5V16.5C32.1546 16.1022 32.3086 15.7206 32.5827 15.4393C32.8568 15.158 33.2285 15 33.6161 15C34.0038 15 34.3755 15.158 34.6496 15.4393C34.9237 15.7206 35.0777 16.1022 35.0777 16.5V31.5C35.0777 32.6935 34.6157 33.8381 33.7934 34.682C32.9712 35.5259 31.8559 36 30.6931 36Z" fill="#2B88DE"/>
<path d="M17.5388 36H10.2311C9.84345 36 9.4717 35.842 9.19761 35.5607C8.92351 35.2794 8.76953 34.8978 8.76953 34.5V25.5C8.76953 24.3065 9.23148 23.1619 10.0538 22.318C10.876 21.4741 11.9913 21 13.1541 21H14.6157C15.7786 21 16.8938 21.4741 17.7161 22.318C18.5384 23.1619 19.0003 24.3065 19.0003 25.5V34.5C19.0003 34.8978 18.8463 35.2794 18.5722 35.5607C18.2981 35.842 17.9264 36 17.5388 36ZM11.6926 33H16.0772V25.5C16.0772 25.1022 15.9232 24.7206 15.6491 24.4393C15.3751 24.158 15.0033 24 14.6157 24H13.1541C12.7665 24 12.3948 24.158 12.1207 24.4393C11.8466 24.7206 11.6926 25.1022 11.6926 25.5V33Z" fill="#2B88DE"/>
<path d="M32.1538 18C30.6033 18 29.1164 17.3679 28.02 16.2426C26.9236 15.1174 26.3077 13.5913 26.3077 12C26.3077 11.6022 26.4617 11.2206 26.7358 10.9393C27.0099 10.658 27.3816 10.5 27.7692 10.5C28.1569 10.5 28.5286 10.658 28.8027 10.9393C29.0768 11.2206 29.2308 11.6022 29.2308 12C29.2308 12.7956 29.5387 13.5587 30.0869 14.1213C30.6351 14.6839 31.3786 15 32.1538 15C32.9291 15 33.6726 14.6839 34.2208 14.1213C34.769 13.5587 35.0769 12.7956 35.0769 12V10.86L31.2477 3H6.75231L2.92308 10.86V12C2.92308 12.7956 3.23104 13.5587 3.77923 14.1213C4.32741 14.6839 5.07091 15 5.84615 15C6.6214 15 7.3649 14.6839 7.91308 14.1213C8.46126 13.5587 8.76923 12.7956 8.76923 12C8.76923 11.6022 8.92321 11.2206 9.19731 10.9393C9.4714 10.658 9.84315 10.5 10.2308 10.5C10.6184 10.5 10.9901 10.658 11.2642 10.9393C11.5383 11.2206 11.6923 11.6022 11.6923 12C11.6923 13.5913 11.0764 15.1174 9.98001 16.2426C8.88364 17.3679 7.39665 18 5.84615 18C4.29566 18 2.80867 17.3679 1.7123 16.2426C0.615932 15.1174 0 13.5913 0 12V10.5C0.00137177 10.2652 0.0564388 10.034 0.160769 9.825L4.54538 0.825C4.66684 0.577629 4.85266 0.369604 5.08226 0.223984C5.31185 0.0783653 5.57626 0.000839558 5.84615 0H32.1538C32.4237 0.000839558 32.6881 0.0783653 32.9177 0.223984C33.1473 0.369604 33.3332 0.577629 33.4546 0.825L37.8392 9.825C37.9436 10.034 37.9986 10.2652 38 10.5V12C38 13.5913 37.3841 15.1174 36.2877 16.2426C35.1913 17.3679 33.7043 18 32.1538 18Z" fill="#2B88DE"/>
<path d="M14.6157 18C13.0652 18 11.5782 17.3679 10.4818 16.2426C9.38546 15.1174 8.76953 13.5913 8.76953 12C8.76953 11.6022 8.92351 11.2206 9.19761 10.9393C9.4717 10.658 9.84345 10.5 10.2311 10.5C10.6187 10.5 10.9904 10.658 11.2645 10.9393C11.5386 11.2206 11.6926 11.6022 11.6926 12C11.6926 12.7956 12.0006 13.5587 12.5488 14.1213C13.0969 14.6839 13.8404 15 14.6157 15C15.3909 15 16.1344 14.6839 16.6826 14.1213C17.2308 13.5587 17.5388 12.7956 17.5388 12C17.5388 11.6022 17.6927 11.2206 17.9668 10.9393C18.2409 10.658 18.6127 10.5 19.0003 10.5C19.3879 10.5 19.7597 10.658 20.0338 10.9393C20.3079 11.2206 20.4618 11.6022 20.4618 12C20.4618 13.5913 19.8459 15.1174 18.7495 16.2426C17.6532 17.3679 16.1662 18 14.6157 18Z" fill="#2B88DE"/>
<path d="M23.3852 18C21.8347 18 20.3477 17.3679 19.2514 16.2426C18.155 15.1174 17.5391 13.5913 17.5391 12C17.5391 11.6022 17.693 11.2206 17.9671 10.9393C18.2412 10.658 18.613 10.5 19.0006 10.5C19.3882 10.5 19.76 10.658 20.0341 10.9393C20.3082 11.2206 20.4621 11.6022 20.4621 12C20.4621 12.7956 20.7701 13.5587 21.3183 14.1213C21.8665 14.6839 22.61 15 23.3852 15C24.1605 15 24.904 14.6839 25.4521 14.1213C26.0003 13.5587 26.3083 12.7956 26.3083 12C26.3083 11.6022 26.4623 11.2206 26.7364 10.9393C27.0105 10.658 27.3822 10.5 27.7698 10.5C28.1575 10.5 28.5292 10.658 28.8033 10.9393C29.0774 11.2206 29.2314 11.6022 29.2314 12C29.2314 13.5913 28.6154 15.1174 27.5191 16.2426C26.4227 17.3679 24.9357 18 23.3852 18Z" fill="#2B88DE"/>
<path d="M27.77 25.5H23.3854C22.9977 25.5 22.626 25.342 22.3519 25.0607C22.0778 24.7794 21.9238 24.3978 21.9238 24C21.9238 23.6022 22.0778 23.2206 22.3519 22.9393C22.626 22.658 22.9977 22.5 23.3854 22.5H27.77C28.1576 22.5 28.5294 22.658 28.8034 22.9393C29.0775 23.2206 29.2315 23.6022 29.2315 24C29.2315 24.3978 29.0775 24.7794 28.8034 25.0607C28.5294 25.342 28.1576 25.5 27.77 25.5Z" fill="#2B88DE"/>
</svg>
