<svg width="53" height="36" viewBox="0 0 53 36" fill="none" xmlns="http://www.w3.org/2000/svg">
<path fill-rule="evenodd" clip-rule="evenodd" d="M34.2849 11.6111C34.65 10.6541 34.8505 9.61365 34.8505 8.52641C34.8505 7.23504 34.5677 6.00973 34.0621 4.91164C35.1687 2.79433 37.3531 1.3501 39.8609 1.3501C43.4828 1.3501 46.4302 4.36266 46.4302 8.06457C46.4302 11.7665 43.4828 14.779 39.8609 14.779C37.5118 14.779 35.4465 13.5118 34.2849 11.6111ZM42.4644 29.7001C42.224 29.0052 41.9284 28.3367 41.5829 27.7001H50.9849C50.7274 23.2455 47.1055 19.7633 42.7806 19.7633H36.9412C35.3435 19.7633 33.8421 20.2382 32.5707 21.0616C31.8053 20.9175 31.0166 20.8422 30.2111 20.8422H29.7031C31.5547 18.9415 34.1158 17.7633 36.9412 17.7633H42.7806C48.2476 17.7633 52.7275 22.1769 52.9876 27.7001C52.9955 27.8684 52.9996 28.0377 52.9996 28.208V29.7001H51.5397H50.9996H42.4644ZM39.8609 12.779C37.3846 12.779 35.2916 10.7033 35.2916 8.06457C35.2916 5.4258 37.3846 3.3501 39.8609 3.3501C42.3372 3.3501 44.4302 5.4258 44.4302 8.06457C44.4302 10.7033 42.3372 12.779 39.8609 12.779Z" fill="#2B88DE"/>
<path fill-rule="evenodd" clip-rule="evenodd" d="M18.7147 11.6111C18.3496 10.654 18.1491 9.61364 18.1491 8.52641C18.1491 7.23505 18.4319 6.00975 18.9375 4.91167C17.8309 2.79434 15.6464 1.3501 13.1387 1.3501C9.51677 1.3501 6.56933 4.36266 6.56933 8.06457C6.56933 11.7665 9.51677 14.779 13.1387 14.779C15.4878 14.779 17.5531 13.5118 18.7147 11.6111ZM23.2959 20.8422C21.4441 18.9415 18.883 17.7633 16.0584 17.7633H10.219C4.75056 17.7633 0.272015 22.1769 0.0119332 27.7001C0.0040082 27.8684 0 28.0377 0 28.208V29.7001H2H10.535C10.7754 29.0052 11.0709 28.3367 11.4163 27.7001H2.01463C2.27203 23.2454 5.89278 19.7633 10.219 19.7633H16.0584C17.6556 19.7633 19.1569 20.2382 20.4282 21.0616C21.1938 20.9175 21.9827 20.8422 22.7885 20.8422H23.2959ZM13.1387 12.779C10.6623 12.779 8.56933 10.7033 8.56933 8.06457C8.56933 5.4258 10.6623 3.3501 13.1387 3.3501C15.615 3.3501 17.708 5.4258 17.708 8.06457C17.708 10.7033 15.615 12.779 13.1387 12.779Z" fill="#2B88DE"/>
<path d="M26.5005 15.5526C22.7541 15.5526 19.6497 12.4283 19.6497 8.52632C19.6497 4.62434 22.7541 1.5 26.5005 1.5C30.2469 1.5 33.3514 4.62434 33.3514 8.52632C33.3514 12.4283 30.2469 15.5526 26.5005 15.5526ZM41.7022 34.1053V34.5H41.3465H11.2988V34.1053C11.2988 27.5922 16.4837 22.3421 22.789 22.3421H30.212C36.5156 22.3421 41.7022 27.5923 41.7022 34.1053Z" stroke="#2B88DE" stroke-width="3"/>
</svg>
