<svg width="36" height="36" viewBox="0 0 36 36" fill="none" xmlns="http://www.w3.org/2000/svg">
<path d="M18 0C17.9913 0 17.9913 0 17.9827 0C17.9827 0 17.9827 0 17.974 0C17.9654 0 17.9567 0 17.9567 0C8.03077 0.0259615 0 8.07404 0 18C0 27.926 8.03077 35.974 17.9567 36C17.9654 36 17.974 36 17.974 36H17.9827C17.9913 36 17.9913 36 18 36C27.9433 36 36 27.9433 36 18C36 8.05673 27.9433 0 18 0ZM18.7183 10.774C20.6308 10.7221 22.4827 10.4712 24.274 10.0385C24.8106 12.1587 25.1481 14.6077 25.2 17.2904H18.7183V10.774ZM18.7183 9.32885V1.55769C20.6567 2.09423 22.6298 4.68173 23.876 8.65385C22.2144 9.05192 20.4923 9.27692 18.7183 9.32885ZM17.2817 1.54038V9.3375C15.4904 9.28558 13.751 9.05192 12.0808 8.64519C13.3442 4.64711 15.326 2.04231 17.2817 1.54038ZM17.2817 10.774V17.2817H10.7567C10.8087 14.599 11.1462 12.15 11.6827 10.0298C13.4827 10.4625 15.3606 10.7221 17.2817 10.774ZM9.30289 17.2817H1.4625C1.61827 13.5779 3.00288 10.1856 5.20962 7.50288C6.81058 8.38558 8.51538 9.1125 10.2981 9.64904C9.70962 11.9423 9.36346 14.5298 9.30289 17.2817ZM9.30289 18.7183C9.35481 21.4615 9.70096 24.0577 10.2894 26.351C8.50673 26.8962 6.81058 27.6144 5.20096 28.4971C2.99423 25.8144 1.61827 22.4221 1.45385 18.7183H9.30289ZM10.7567 18.7183H17.2817V25.2173C15.3606 25.2692 13.4827 25.5288 11.6827 25.9702C11.1462 23.85 10.8087 21.401 10.7567 18.7183ZM17.2817 26.6625V34.4683C15.326 33.9577 13.3442 31.3615 12.0808 27.3635C13.751 26.9481 15.4904 26.7144 17.2817 26.6625ZM18.7183 34.4423V26.6538C20.4923 26.7058 22.2144 26.9394 23.8846 27.3375C22.6298 31.3183 20.6654 33.9058 18.7183 34.4423ZM18.7183 25.2173V18.7183H25.2C25.1481 21.3923 24.8106 23.8413 24.274 25.9615C22.4827 25.5288 20.6308 25.2692 18.7183 25.2173ZM26.6452 18.7183H34.5375C34.3817 22.4221 32.9971 25.8058 30.7904 28.4971C29.1721 27.6058 27.4587 26.8788 25.6587 26.3337C26.2471 24.0404 26.5933 21.4615 26.6452 18.7183ZM26.6452 17.2817C26.5933 14.5385 26.2471 11.951 25.6673 9.65769C27.4673 9.1125 29.1808 8.38558 30.7904 7.50288C32.9971 10.1856 34.3817 13.5779 34.5375 17.2904H26.6452V17.2817ZM29.8038 6.39519C28.3673 7.15673 26.8615 7.78846 25.2779 8.26442C24.4385 5.55577 23.2529 3.34904 21.8596 1.89519C24.9231 2.63077 27.6577 4.22308 29.8038 6.39519ZM14.0885 1.9125C12.6952 3.35769 11.5183 5.56442 10.6875 8.25577C9.12115 7.77981 7.62404 7.15673 6.20481 6.39519C8.325 4.23173 11.0423 2.64808 14.0885 1.9125ZM6.19615 29.5962C7.61538 28.8346 9.12115 28.2115 10.6788 27.7356C11.5183 30.4356 12.6952 32.6337 14.0885 34.0875C11.0423 33.3519 8.325 31.7683 6.19615 29.5962ZM21.8596 34.1048C23.2615 32.651 24.4385 30.4442 25.2865 27.7269C26.8702 28.2029 28.376 28.8346 29.8125 29.5962C27.6663 31.7769 24.9231 33.3692 21.8596 34.1048Z" fill="#2B88DE"/>
</svg>
