<svg width="20" height="16" viewBox="0 0 20 16" fill="none" xmlns="http://www.w3.org/2000/svg">
<rect x="10.3164" y="5.2793" width="1.19082" height="4" rx="0.595411" fill="#888888"/>
<rect x="10.3164" y="9.43945" width="1.2" height="3.78822" rx="0.6" transform="rotate(-90 10.3164 9.43945)" fill="#888888"/>
<rect width="1.59118" height="4.79004" rx="0.795589" transform="matrix(0.70559 -0.711027 0.699052 0.712692 0.125 7.01758)" fill="#888888"/>
<rect width="1.59809" height="4.76924" rx="0.799045" transform="matrix(0.592337 0.803804 -0.799152 0.60367 6.77734 6.48828)" fill="#888888"/>
<path fill-rule="evenodd" clip-rule="evenodd" d="M12.824 13.7417C12.2808 13.9098 11.7054 14 11.1109 14C9.41644 14 7.87766 13.2672 6.79785 12.088C6.19634 12.2906 5.63282 12.6561 5.13876 13.2301C6.58592 14.9266 8.72473 16 11.1109 16C15.4696 16 19.003 12.4183 19.003 8C19.003 3.58172 15.4696 0 11.1109 0C6.75217 0 3.21875 3.58172 3.21875 8C3.21875 8.34163 3.23988 8.67826 3.28087 9.00862C3.97901 9.26472 4.68262 9.3785 5.35214 9.27761C5.2648 8.86648 5.21875 8.43911 5.21875 8C5.21875 4.66061 7.88226 2 11.1109 2C14.3395 2 17.003 4.66061 17.003 8C17.003 10.5716 15.4235 12.7407 13.2227 13.6021L13.4459 14.2303C13.2522 14.0673 13.0441 13.9032 12.824 13.7417Z" fill="#888888"/>
</svg>
