<svg width="20" height="18" viewBox="0 0 20 18" fill="none" xmlns="http://www.w3.org/2000/svg">
<path d="M16.1544 18H3.84676C3.23472 18 2.64775 17.7629 2.21497 17.341C1.78219 16.919 1.53906 16.3467 1.53906 15.75V8.25C1.53906 8.05109 1.62011 7.86032 1.76437 7.71967C1.90862 7.57902 2.10428 7.5 2.30829 7.5C2.51231 7.5 2.70796 7.57902 2.85222 7.71967C2.99648 7.86032 3.07752 8.05109 3.07752 8.25V15.75C3.07752 15.9489 3.15857 16.1397 3.30283 16.2803C3.44709 16.421 3.64274 16.5 3.84676 16.5H16.1544C16.3585 16.5 16.5541 16.421 16.6984 16.2803C16.8426 16.1397 16.9237 15.9489 16.9237 15.75V8.25C16.9237 8.05109 17.0047 7.86032 17.149 7.71967C17.2932 7.57902 17.4889 7.5 17.6929 7.5C17.8969 7.5 18.0926 7.57902 18.2368 7.71967C18.3811 7.86032 18.4621 8.05109 18.4621 8.25V15.75C18.4621 16.3467 18.219 16.919 17.7862 17.341C17.3535 17.7629 16.7665 18 16.1544 18Z" fill="#818181"/>
<path d="M9.23062 18H5.38447C5.18045 18 4.9848 17.921 4.84054 17.7803C4.69628 17.6397 4.61523 17.4489 4.61523 17.25V12.75C4.61523 12.1533 4.85837 11.581 5.29114 11.159C5.72392 10.7371 6.31089 10.5 6.92293 10.5H7.69216C8.3042 10.5 8.89117 10.7371 9.32394 11.159C9.75672 11.581 9.99985 12.1533 9.99985 12.75V17.25C9.99985 17.4489 9.91881 17.6397 9.77455 17.7803C9.63029 17.921 9.43463 18 9.23062 18ZM6.1537 16.5H8.46139V12.75C8.46139 12.5511 8.38034 12.3603 8.23609 12.2197C8.09183 12.079 7.89617 12 7.69216 12H6.92293C6.71891 12 6.52326 12.079 6.379 12.2197C6.23474 12.3603 6.1537 12.5511 6.1537 12.75V16.5Z" fill="#818181"/>
<path d="M16.9231 9C16.107 9 15.3244 8.68393 14.7474 8.12132C14.1703 7.55871 13.8462 6.79565 13.8462 6C13.8462 5.80109 13.9272 5.61032 14.0715 5.46967C14.2157 5.32902 14.4114 5.25 14.6154 5.25C14.8194 5.25 15.0151 5.32902 15.1593 5.46967C15.3036 5.61032 15.3846 5.80109 15.3846 6C15.3846 6.39782 15.5467 6.77936 15.8352 7.06066C16.1237 7.34196 16.5151 7.5 16.9231 7.5C17.3311 7.5 17.7224 7.34196 18.0109 7.06066C18.2995 6.77936 18.4615 6.39782 18.4615 6V5.43L16.4462 1.5H3.55385L1.53846 5.43V6C1.53846 6.39782 1.70055 6.77936 1.98907 7.06066C2.27758 7.34196 2.6689 7.5 3.07692 7.5C3.48495 7.5 3.87626 7.34196 4.16478 7.06066C4.4533 6.77936 4.61538 6.39782 4.61538 6C4.61538 5.80109 4.69643 5.61032 4.84069 5.46967C4.98495 5.32902 5.1806 5.25 5.38462 5.25C5.58863 5.25 5.78429 5.32902 5.92854 5.46967C6.0728 5.61032 6.15385 5.80109 6.15385 6C6.15385 6.79565 5.82967 7.55871 5.25264 8.12132C4.6756 8.68393 3.89297 9 3.07692 9C2.26087 9 1.47824 8.68393 0.90121 8.12132C0.324175 7.55871 0 6.79565 0 6V5.25C0.000721987 5.13259 0.0297046 5.01699 0.0846153 4.9125L2.39231 0.4125C2.45623 0.288814 2.55403 0.184802 2.67487 0.111992C2.79571 0.0391827 2.93487 0.000419779 3.07692 0H16.9231C17.0651 0.000419779 17.2043 0.0391827 17.3251 0.111992C17.446 0.184802 17.5438 0.288814 17.6077 0.4125L19.9154 4.9125C19.9703 5.01699 19.9993 5.13259 20 5.25V6C20 6.79565 19.6758 7.55871 19.0988 8.12132C18.5218 8.68393 17.7391 9 16.9231 9Z" fill="#818181"/>
<path d="M7.69216 9C6.87611 9 6.09348 8.68393 5.51644 8.12132C4.93941 7.55871 4.61523 6.79565 4.61523 6C4.61523 5.80109 4.69628 5.61032 4.84054 5.46967C4.9848 5.32902 5.18045 5.25 5.38447 5.25C5.58848 5.25 5.78413 5.32902 5.92839 5.46967C6.07265 5.61032 6.1537 5.80109 6.1537 6C6.1537 6.39782 6.31578 6.77936 6.6043 7.06066C6.89282 7.34196 7.28413 7.5 7.69216 7.5C8.10018 7.5 8.4915 7.34196 8.78001 7.06066C9.06853 6.77936 9.23062 6.39782 9.23062 6C9.23062 5.80109 9.31166 5.61032 9.45592 5.46967C9.60018 5.32902 9.79584 5.25 9.99985 5.25C10.2039 5.25 10.3995 5.32902 10.5438 5.46967C10.688 5.61032 10.7691 5.80109 10.7691 6C10.7691 6.79565 10.4449 7.55871 9.86787 8.12132C9.29084 8.68393 8.50821 9 7.69216 9Z" fill="#818181"/>
<path d="M12.3074 9C11.4913 9 10.7087 8.68393 10.1317 8.12132C9.55464 7.55871 9.23047 6.79565 9.23047 6C9.23047 5.80109 9.31151 5.61032 9.45577 5.46967C9.60003 5.32902 9.79569 5.25 9.9997 5.25C10.2037 5.25 10.3994 5.32902 10.5436 5.46967C10.6879 5.61032 10.7689 5.80109 10.7689 6C10.7689 6.39782 10.931 6.77936 11.2195 7.06066C11.5081 7.34196 11.8994 7.5 12.3074 7.5C12.7154 7.5 13.1067 7.34196 13.3952 7.06066C13.6838 6.77936 13.8459 6.39782 13.8459 6C13.8459 5.80109 13.9269 5.61032 14.0712 5.46967C14.2154 5.32902 14.4111 5.25 14.6151 5.25C14.8191 5.25 15.0148 5.32902 15.159 5.46967C15.3033 5.61032 15.3843 5.80109 15.3843 6C15.3843 6.79565 15.0601 7.55871 14.4831 8.12132C13.9061 8.68393 13.1234 9 12.3074 9Z" fill="#818181"/>
<path d="M14.616 12.75H12.3083C12.1043 12.75 11.9086 12.671 11.7644 12.5303C11.6201 12.3897 11.5391 12.1989 11.5391 12C11.5391 11.8011 11.6201 11.6103 11.7644 11.4697C11.9086 11.329 12.1043 11.25 12.3083 11.25H14.616C14.82 11.25 15.0157 11.329 15.1599 11.4697C15.3042 11.6103 15.3852 11.8011 15.3852 12C15.3852 12.1989 15.3042 12.3897 15.1599 12.5303C15.0157 12.671 14.82 12.75 14.616 12.75Z" fill="#818181"/>
</svg>
