<svg width="43" height="30" viewBox="0 0 43 30" fill="none" xmlns="http://www.w3.org/2000/svg">
<rect x="0.5" y="0.5" width="41.5" height="29" rx="3.5" fill="white" stroke="#B2BCCA"/>
<path d="M24.072 14.6322C24.072 19.2616 20.3622 23.0144 15.786 23.0144C11.2098 23.0144 7.5 19.2616 7.5 14.6322C7.5 10.0028 11.2098 6.25 15.786 6.25C20.3622 6.25 24.072 10.0028 24.072 14.6322Z" fill="#ED0006"/>
<path d="M34.822 14.6322C34.822 19.2616 31.1122 23.0144 26.536 23.0144C21.9598 23.0144 18.25 19.2616 18.25 14.6322C18.25 10.0028 21.9598 6.25 26.536 6.25C31.1122 6.25 34.822 10.0028 34.822 14.6322Z" fill="#2F80ED"/>
<path fill-rule="evenodd" clip-rule="evenodd" d="M21.1612 8.25244C22.9428 9.78989 24.0725 12.0776 24.0725 14.6322C24.0725 17.1868 22.9428 19.4745 21.1612 21.012C19.3797 19.4745 18.25 17.1868 18.25 14.6322C18.25 12.0776 19.3797 9.78989 21.1612 8.25244Z" fill="#6C6BBD"/>
</svg>
