<svg width="24" height="24" viewBox="0 0 24 24" fill="none" xmlns="http://www.w3.org/2000/svg">
<path d="M3 24V18.5445H1.5C0.673 18.5445 0 17.7644 0 16.8059V1.73854C0 0.780026 0.673 0 1.5 0H22.5C23.327 0 24 0.780026 24 1.73854V16.8059C24 17.7644 23.327 18.5445 22.5 18.5445H7.707L3 24ZM1.5 1.15903C1.224 1.15903 1 1.41865 1 1.73854V16.8059C1 17.1258 1.224 17.3854 1.5 17.3854H4V21.2021L7.293 17.3854H22.5C22.776 17.3854 23 17.1258 23 16.8059V1.73854C23 1.41865 22.776 1.15903 22.5 1.15903H1.5Z" fill="#888888"/>
<path d="M8 10.4294C8.55228 10.4294 9 9.91047 9 9.27036C9 8.63024 8.55228 8.11133 8 8.11133C7.44772 8.11133 7 8.63024 7 9.27036C7 9.91047 7.44772 10.4294 8 10.4294Z" fill="#888888"/>
<path d="M16 10.4294C16.5523 10.4294 17 9.91047 17 9.27036C17 8.63024 16.5523 8.11133 16 8.11133C15.4477 8.11133 15 8.63024 15 9.27036C15 9.91047 15.4477 10.4294 16 10.4294Z" fill="#888888"/>
<path d="M12 10.4294C12.5523 10.4294 13 9.91047 13 9.27036C13 8.63024 12.5523 8.11133 12 8.11133C11.4477 8.11133 11 8.63024 11 9.27036C11 9.91047 11.4477 10.4294 12 10.4294Z" fill="#888888"/>
</svg>
