<svg width="37" height="12" viewBox="0 0 37 12" fill="none" xmlns="http://www.w3.org/2000/svg">
<path d="M0 2C0 0.895431 0.89543 0 2 0H35C36.1046 0 37 0.895431 37 2V10C37 11.1046 36.1046 12 35 12H2C0.895432 12 0 11.1046 0 10V2Z" fill="#CA000F"/>
<path d="M15.2834 4.549C15.2834 4.955 15.1434 5.29333 14.8634 5.564C14.5881 5.83 14.1658 5.963 13.5964 5.963H12.6584V8H12.0214V3.121H13.5964C14.1471 3.121 14.5648 3.254 14.8494 3.52C15.1388 3.786 15.2834 4.129 15.2834 4.549ZM13.5964 5.438C13.9511 5.438 14.2124 5.361 14.3804 5.207C14.5484 5.053 14.6324 4.83367 14.6324 4.549C14.6324 3.947 14.2871 3.646 13.5964 3.646H12.6584V5.438H13.5964ZM16.5931 4.787C16.7051 4.56767 16.8638 4.39733 17.0691 4.276C17.2791 4.15467 17.5335 4.094 17.8321 4.094V4.752H17.6641C16.9501 4.752 16.5931 5.13933 16.5931 5.914V8H15.9561V4.164H16.5931V4.787ZM18.7775 3.541C18.6561 3.541 18.5535 3.499 18.4695 3.415C18.3855 3.331 18.3435 3.22833 18.3435 3.107C18.3435 2.98567 18.3855 2.883 18.4695 2.799C18.5535 2.715 18.6561 2.673 18.7775 2.673C18.8941 2.673 18.9921 2.715 19.0715 2.799C19.1555 2.883 19.1975 2.98567 19.1975 3.107C19.1975 3.22833 19.1555 3.331 19.0715 3.415C18.9921 3.499 18.8941 3.541 18.7775 3.541ZM19.0855 4.164V8H18.4485V4.164H19.0855ZM24.6651 4.094C24.9638 4.094 25.2298 4.157 25.4631 4.283C25.6965 4.40433 25.8808 4.58867 26.0161 4.836C26.1515 5.08333 26.2191 5.38433 26.2191 5.739V8H25.5891V5.83C25.5891 5.44733 25.4935 5.15567 25.3021 4.955C25.1155 4.74967 24.8611 4.647 24.5391 4.647C24.2078 4.647 23.9441 4.75433 23.7481 4.969C23.5521 5.179 23.4541 5.48467 23.4541 5.886V8H22.8241V5.83C22.8241 5.44733 22.7285 5.15567 22.5371 4.955C22.3505 4.74967 22.0961 4.647 21.7741 4.647C21.4428 4.647 21.1791 4.75433 20.9831 4.969C20.7871 5.179 20.6891 5.48467 20.6891 5.886V8H20.0521V4.164H20.6891V4.717C20.8151 4.51633 20.9831 4.36233 21.1931 4.255C21.4078 4.14767 21.6435 4.094 21.9001 4.094C22.2221 4.094 22.5068 4.16633 22.7541 4.311C23.0015 4.45567 23.1858 4.668 23.3071 4.948C23.4145 4.67733 23.5918 4.46733 23.8391 4.318C24.0865 4.16867 24.3618 4.094 24.6651 4.094ZM30.645 5.935C30.645 6.05633 30.638 6.18467 30.624 6.32H27.558C27.5814 6.698 27.7097 6.99433 27.943 7.209C28.181 7.419 28.468 7.524 28.804 7.524C29.0794 7.524 29.308 7.461 29.49 7.335C29.6767 7.20433 29.8074 7.03167 29.882 6.817H30.568C30.4654 7.18567 30.26 7.48667 29.952 7.72C29.644 7.94867 29.2614 8.063 28.804 8.063C28.44 8.063 28.1134 7.98133 27.824 7.818C27.5394 7.65467 27.3154 7.42367 27.152 7.125C26.9887 6.82167 26.907 6.47167 26.907 6.075C26.907 5.67833 26.9864 5.33067 27.145 5.032C27.3037 4.73333 27.5254 4.50467 27.81 4.346C28.0994 4.18267 28.4307 4.101 28.804 4.101C29.168 4.101 29.49 4.18033 29.77 4.339C30.05 4.49767 30.2647 4.717 30.414 4.997C30.568 5.27233 30.645 5.585 30.645 5.935ZM29.987 5.802C29.987 5.55933 29.9334 5.35167 29.826 5.179C29.7187 5.00167 29.5717 4.86867 29.385 4.78C29.203 4.68667 29 4.64 28.776 4.64C28.454 4.64 28.1787 4.74267 27.95 4.948C27.726 5.15333 27.5977 5.438 27.565 5.802H29.987Z" fill="white"/>
<path d="M2.20012 5.1187L4.91676 8.1705L3.60859 5.1187H2.20012ZM5.74091 8.66154L7.26275 5.1187H4.21907L5.74091 8.66154ZM3.62167 4.53129L4.51123 2.76905H3.36876L2.11291 4.53129H3.62167ZM6.56506 8.1705L9.28169 5.1187H7.87323L6.56506 8.1705ZM4.25395 4.53129H7.22786L6.33831 2.76905H5.14351L4.25395 4.53129ZM7.86015 4.53129H9.3689L8.11306 2.76905H6.97059L7.86015 4.53129ZM8.47499 2.30096L10.1494 4.65061C10.1901 4.70568 10.209 4.76916 10.2061 4.84106C10.2032 4.91296 10.1785 4.97491 10.132 5.02692L5.94585 9.72622C5.89353 9.78741 5.82521 9.818 5.74091 9.818C5.6566 9.818 5.58829 9.78741 5.53596 9.72622L1.34981 5.02692C1.3033 4.97491 1.27859 4.91296 1.27568 4.84106C1.27277 4.76916 1.29167 4.70568 1.33237 4.65061L3.00683 2.30096C3.05916 2.22141 3.13329 2.18164 3.22922 2.18164H8.2526C8.34853 2.18164 8.42266 2.22141 8.47499 2.30096Z" fill="white"/>
</svg>
