<svg width="17" height="17" viewBox="0 0 17 17" fill="none" xmlns="http://www.w3.org/2000/svg">
<path d="M7.58789 1.40234L6.69343 0.955112L6.68945 0.963255L7.58789 1.40234ZM5.68359 5.29883L5.82502 6.28878L6.34943 6.21386L6.58204 5.73792L5.68359 5.29883ZM1.37695 5.91406L1.23552 4.92406L1.2249 4.92569L1.37695 5.91406ZM0.878906 7.52539L0.171767 8.23253L0.178631 8.23926L0.878906 7.52539ZM3.95508 10.543L4.94054 10.7129L5.02962 10.1962L4.65535 9.8291L3.95508 10.543ZM3.22266 14.791L2.2372 14.6211L2.23566 14.63L2.23428 14.639L3.22266 14.791ZM4.59961 15.7871L5.06218 16.6737L5.06563 16.6719L4.59961 15.7871ZM8.4375 13.7656L8.90632 12.8823L8.43929 12.6344L7.97148 12.8809L8.4375 13.7656ZM12.2461 15.7871L11.7773 16.6704L11.7835 16.6737L12.2461 15.7871ZM13.623 14.791L14.6114 14.639L14.61 14.63L14.6085 14.6211L13.623 14.791ZM12.8906 10.543L12.1903 9.8291L11.8161 10.1962L11.9052 10.7129L12.8906 10.543ZM15.9668 7.52539L16.6671 8.2393L16.6739 8.2325L15.9668 7.52539ZM15.4688 5.91406L15.6208 4.92564L15.6111 4.92425L15.4688 5.91406ZM11.1914 5.29883L10.2956 5.74335L10.5291 6.21386L11.049 6.28864L11.1914 5.29883ZM9.25781 1.40234L8.35568 1.8338L8.35881 1.84035L8.36204 1.84686L9.25781 1.40234ZM6.68945 0.963255L4.78515 4.85974L6.58204 5.73792L8.48633 1.84143L6.68945 0.963255ZM5.54217 4.30888L1.23553 4.92411L1.51837 6.90401L5.82502 6.28878L5.54217 4.30888ZM1.2249 4.92569C-0.391276 5.17433 -0.931674 7.12902 0.171799 8.2325L1.58601 6.81828C1.58202 6.81429 1.58242 6.81372 1.5843 6.81711C1.58608 6.82033 1.58785 6.8247 1.58899 6.82963C1.59112 6.83885 1.59028 6.84594 1.58861 6.85133C1.58695 6.85669 1.58194 6.86819 1.56772 6.88096C1.56042 6.88752 1.55196 6.89317 1.54328 6.8973C1.5344 6.90152 1.52881 6.90246 1.52901 6.90243L1.2249 4.92569ZM0.178631 8.23926L3.2548 11.2568L4.65535 9.8291L1.57918 6.81152L0.178631 8.23926ZM2.96962 10.3731L2.2372 14.6211L4.20812 14.9609L4.94054 10.7129L2.96962 10.3731ZM2.23428 14.639C1.99372 16.2026 3.65465 17.4081 5.06218 16.6737L4.13704 14.9005C4.14096 14.8985 4.14869 14.8953 4.15918 14.8934C4.16933 14.8915 4.17849 14.8914 4.1856 14.8921C4.19853 14.8934 4.2014 14.8969 4.19881 14.895C4.19629 14.8932 4.19978 14.8944 4.20443 14.9046C4.20701 14.9103 4.20939 14.9178 4.2106 14.9263C4.21186 14.9351 4.2113 14.9413 4.21103 14.9431L2.23428 14.639ZM5.06563 16.6719L8.90352 14.6504L7.97148 12.8809L4.13358 14.9023L5.06563 16.6719ZM7.96868 14.6489L11.7773 16.6704L12.7149 14.9038L8.90632 12.8823L7.96868 14.6489ZM11.7835 16.6737C13.1911 17.4081 14.852 16.2026 14.6114 14.639L12.6347 14.9431C12.6344 14.9413 12.6338 14.9351 12.6351 14.9263C12.6363 14.9178 12.6387 14.9103 12.6413 14.9046C12.6459 14.8944 12.6494 14.8932 12.6469 14.895C12.6443 14.8969 12.6472 14.8934 12.6601 14.8921C12.6672 14.8914 12.6764 14.8915 12.6865 14.8934C12.697 14.8953 12.7047 14.8985 12.7087 14.9005L11.7835 16.6737ZM14.6085 14.6211L13.8761 10.3731L11.9052 10.7129L12.6376 14.9609L14.6085 14.6211ZM13.5909 11.2568L16.6671 8.23926L15.2665 6.81152L12.1903 9.8291L13.5909 11.2568ZM16.6739 8.2325C17.7774 7.12902 17.237 5.17433 15.6208 4.92569L15.3167 6.90243C15.3169 6.90246 15.3113 6.90152 15.3024 6.8973C15.2937 6.89317 15.2853 6.88752 15.278 6.88096C15.2638 6.86819 15.2588 6.85669 15.2571 6.85133C15.2554 6.84594 15.2546 6.83885 15.2567 6.82963C15.2579 6.8247 15.2596 6.82033 15.2614 6.81711C15.2633 6.81372 15.2637 6.81429 15.2597 6.81828L16.6739 8.2325ZM15.6111 4.92425L11.3338 4.30901L11.049 6.28864L15.3264 6.90388L15.6111 4.92425ZM12.0872 4.85431L10.1536 0.957826L8.36204 1.84686L10.2956 5.74335L12.0872 4.85431ZM10.1599 0.970888C9.48155 -0.447575 7.42018 -0.498307 6.69346 0.95513L8.48232 1.84956C8.48304 1.84812 8.481 1.85244 8.47461 1.85921C8.46839 1.8658 8.46082 1.87177 8.45285 1.87638C8.43758 1.88522 8.42685 1.88597 8.42285 1.88593C8.41927 1.88589 8.41004 1.88519 8.39587 1.87669C8.37814 1.86605 8.36284 1.84878 8.35568 1.8338L10.1599 0.970888Z" fill="#888888"/>
</svg>
