<svg width="71" height="40" viewBox="0 0 71 40" fill="none" xmlns="http://www.w3.org/2000/svg">
<path d="M0 12C0 5.37258 5.37258 0 12 0H51C62.0457 0 71 8.9543 71 20C71 31.0457 62.0457 40 51 40H0V12Z" fill="url(#paint0_linear_2211_4411)"/>
<path d="M18.5682 15.392V13.3636H28.125V15.392H24.5625V25H22.1307V15.392H18.5682ZM39.8608 19.1818C39.8608 20.4508 39.6203 21.5303 39.1392 22.4205C38.6619 23.3106 38.0104 23.9905 37.1847 24.4602C36.3627 24.9261 35.4384 25.1591 34.4119 25.1591C33.3778 25.1591 32.4498 24.9242 31.6278 24.4545C30.8059 23.9848 30.1563 23.3049 29.679 22.4148C29.2017 21.5246 28.9631 20.447 28.9631 19.1818C28.9631 17.9129 29.2017 16.8333 29.679 15.9432C30.1563 15.053 30.8059 14.375 31.6278 13.9091C32.4498 13.4394 33.3778 13.2045 34.4119 13.2045C35.4384 13.2045 36.3627 13.4394 37.1847 13.9091C38.0104 14.375 38.6619 15.053 39.1392 15.9432C39.6203 16.8333 39.8608 17.9129 39.8608 19.1818ZM37.3665 19.1818C37.3665 18.3598 37.2434 17.6667 36.9972 17.1023C36.7547 16.5379 36.4119 16.1098 35.9688 15.8182C35.5256 15.5265 35.0066 15.3807 34.4119 15.3807C33.8172 15.3807 33.2983 15.5265 32.8551 15.8182C32.4119 16.1098 32.0672 16.5379 31.821 17.1023C31.5786 17.6667 31.4574 18.3598 31.4574 19.1818C31.4574 20.0038 31.5786 20.697 31.821 21.2614C32.0672 21.8258 32.4119 22.2538 32.8551 22.5455C33.2983 22.8371 33.8172 22.983 34.4119 22.983C35.0066 22.983 35.5256 22.8371 35.9688 22.5455C36.4119 22.2538 36.7547 21.8258 36.9972 21.2614C37.2434 20.697 37.3665 20.0038 37.3665 19.1818ZM41.6832 25V13.3636H46.2741C47.1567 13.3636 47.9086 13.5322 48.5298 13.8693C49.151 14.2027 49.6245 14.6667 49.9503 15.2614C50.2798 15.8523 50.4446 16.5341 50.4446 17.3068C50.4446 18.0795 50.2779 18.7614 49.9446 19.3523C49.6113 19.9432 49.1283 20.4034 48.4957 20.733C47.867 21.0625 47.1056 21.2273 46.2116 21.2273H43.2855V19.2557H45.8139C46.2874 19.2557 46.6776 19.1742 46.9844 19.0114C47.295 18.8447 47.526 18.6155 47.6776 18.3239C47.8329 18.0284 47.9105 17.6894 47.9105 17.3068C47.9105 16.9205 47.8329 16.5833 47.6776 16.2955C47.526 16.0038 47.295 15.7784 46.9844 15.6193C46.6738 15.4564 46.2798 15.375 45.8026 15.375H44.1435V25H41.6832Z" fill="white"/>
<defs>
<linearGradient id="paint0_linear_2211_4411" x1="54.5" y1="12.5" x2="-11.5" y2="11.5" gradientUnits="userSpaceOnUse">
<stop offset="0.25786" stop-color="#D63639"/>
<stop offset="0.9999" stop-color="#FFA300" stop-opacity="0.5"/>
<stop offset="1" stop-color="#D63639" stop-opacity="0"/>
</linearGradient>
</defs>
</svg>
