<svg width="129" height="23" viewBox="0 0 129 23" fill="none" xmlns="http://www.w3.org/2000/svg">
<path d="M0 12C0 5.37258 5.37258 0 12 0H117.5C123.851 0 129 5.14873 129 11.5C129 17.8513 123.851 23 117.5 23H0V12Z" fill="url(#paint0_linear_3428_4699)"/>
<path d="M21.4972 8.56081V6.78595H29.8594V8.56081H26.7422V16.9678H24.6143V8.56081H21.4972ZM40.1282 11.8769C40.1282 12.9872 39.9177 13.9318 39.4968 14.7107C39.0792 15.4896 38.5091 16.0845 37.7866 16.4955C37.0674 16.9031 36.2586 17.107 35.3604 17.107C34.4556 17.107 33.6436 16.9015 32.9244 16.4905C32.2051 16.0795 31.6367 15.4846 31.2191 14.7057C30.8015 13.9268 30.5927 12.9839 30.5927 11.8769C30.5927 10.7665 30.8015 9.82194 31.2191 9.04306C31.6367 8.26417 32.2051 7.6709 32.9244 7.26323C33.6436 6.85224 34.4556 6.64675 35.3604 6.64675C36.2586 6.64675 37.0674 6.85224 37.7866 7.26323C38.5091 7.6709 39.0792 8.26417 39.4968 9.04306C39.9177 9.82194 40.1282 10.7665 40.1282 11.8769ZM37.9457 11.8769C37.9457 11.1576 37.838 10.5511 37.6225 10.0573C37.4104 9.56342 37.1104 9.18889 36.7227 8.93368C36.3349 8.67847 35.8808 8.55087 35.3604 8.55087C34.8401 8.55087 34.386 8.67847 33.9982 8.93368C33.6104 9.18889 33.3088 9.56342 33.0934 10.0573C32.8813 10.5511 32.7752 11.1576 32.7752 11.8769C32.7752 12.5961 32.8813 13.2026 33.0934 13.6965C33.3088 14.1903 33.6104 14.5648 33.9982 14.82C34.386 15.0753 34.8401 15.2029 35.3604 15.2029C35.8808 15.2029 36.3349 15.0753 36.7227 14.82C37.1104 14.5648 37.4104 14.1903 37.6225 13.6965C37.838 13.2026 37.9457 12.5961 37.9457 11.8769ZM41.7228 16.9678V6.78595H45.7399C46.5121 6.78595 47.17 6.93345 47.7136 7.22843C48.2572 7.52009 48.6715 7.92611 48.9565 8.44647C49.2449 8.96351 49.389 9.5601 49.389 10.2362C49.389 10.9124 49.2432 11.509 48.9515 12.026C48.6599 12.5431 48.2373 12.9458 47.6838 13.2341C47.1336 13.5225 46.4674 13.6666 45.6852 13.6666H43.1248V11.9415H45.3372C45.7515 11.9415 46.0929 11.8702 46.3613 11.7277C46.6331 11.5819 46.8353 11.3814 46.9679 11.1262C47.1038 10.8676 47.1717 10.571 47.1717 10.2362C47.1717 9.89817 47.1038 9.60319 46.9679 9.3513C46.8353 9.09609 46.6331 8.89888 46.3613 8.75968C46.0895 8.61716 45.7449 8.5459 45.3272 8.5459H43.8755V16.9678H41.7228ZM54.0275 16.9678V6.78595H58.0446C58.8135 6.78595 59.4698 6.9235 60.0133 7.1986C60.5602 7.47038 60.9761 7.8565 61.2612 8.35698C61.5495 8.85414 61.6937 9.43913 61.6937 10.1119C61.6937 10.7881 61.5479 11.3698 61.2562 11.857C60.9645 12.3409 60.542 12.7121 59.9885 12.9706C59.4383 13.2291 58.7721 13.3584 57.9899 13.3584H55.3002V11.6283H57.6419C58.0529 11.6283 58.3942 11.5719 58.666 11.4593C58.9378 11.3466 59.14 11.1775 59.2725 10.9521C59.4084 10.7268 59.4764 10.4467 59.4764 10.1119C59.4764 9.77388 59.4084 9.48884 59.2725 9.25684C59.14 9.02483 58.9361 8.84917 58.661 8.72985C58.3893 8.60721 58.0462 8.5459 57.6319 8.5459H56.1802V16.9678H54.0275ZM59.5261 12.3343L62.0566 16.9678H59.6802L57.2044 12.3343H59.5261ZM64.97 16.9678H62.6632L66.1781 6.78595H68.9522L72.4622 16.9678H70.1554L67.6049 9.11266H67.5254L64.97 16.9678ZM64.8258 12.9656H70.2747V14.646H64.8258V12.9656ZM82.204 6.78595V16.9678H80.3446L75.915 10.5594H75.8404V16.9678H73.6877V6.78595H75.5769L79.9718 13.1894H80.0613V6.78595H82.204ZM83.9826 16.9678V6.78595H86.1353V11.2753H86.2695L89.9336 6.78595H92.5138L88.7354 11.3449L92.5586 16.9678H89.9833L87.1942 12.7817L86.1353 14.0743V16.9678H83.9826ZM95.7876 6.78595V16.9678H93.6349V6.78595H95.7876ZM106.075 6.78595V16.9678H104.216L99.786 10.5594H99.7115V16.9678H97.5588V6.78595H99.448L103.843 13.1894H103.932V6.78595H106.075ZM114.605 10.0771C114.536 9.8352 114.438 9.62142 114.312 9.43581C114.186 9.24689 114.032 9.0878 113.849 8.95854C113.67 8.82596 113.465 8.72488 113.233 8.65527C113.004 8.58567 112.751 8.55087 112.472 8.55087C111.952 8.55087 111.495 8.68013 111.1 8.93865C110.709 9.19718 110.404 9.57336 110.185 10.0672C109.967 10.5577 109.857 11.1576 109.857 11.8669C109.857 12.5762 109.965 13.1794 110.18 13.6766C110.396 14.1737 110.701 14.5532 111.095 14.8151C111.49 15.0736 111.955 15.2029 112.492 15.2029C112.979 15.2029 113.395 15.1167 113.74 14.9443C114.088 14.7687 114.353 14.5218 114.536 14.2036C114.721 13.8854 114.814 13.5092 114.814 13.075L115.251 13.1396H112.626V11.5189H116.887V12.8016C116.887 13.6965 116.698 14.4654 116.32 15.1084C115.942 15.7481 115.422 16.2419 114.759 16.5899C114.096 16.9346 113.337 17.107 112.482 17.107C111.528 17.107 110.689 16.8965 109.967 16.4756C109.244 16.0513 108.681 15.4498 108.276 14.6709C107.875 13.8887 107.675 12.9607 107.675 11.8868C107.675 11.0615 107.794 10.3257 108.033 9.67942C108.275 9.0298 108.613 8.47961 109.047 8.02885C109.481 7.5781 109.987 7.23506 110.563 6.99973C111.14 6.76441 111.765 6.64675 112.438 6.64675C113.014 6.64675 113.551 6.73127 114.048 6.9003C114.545 7.06602 114.986 7.30134 115.371 7.60627C115.759 7.91119 116.075 8.27412 116.32 8.69505C116.566 9.11266 116.723 9.57336 116.793 10.0771H114.605Z" fill="white"/>
<defs>
<linearGradient id="paint0_linear_3428_4699" x1="99.0211" y1="7.1875" x2="-20.6476" y2="1.45823" gradientUnits="userSpaceOnUse">
<stop offset="0.25786" stop-color="#D63639"/>
<stop offset="0.9999" stop-color="#FFA300" stop-opacity="0.5"/>
<stop offset="1" stop-color="#D63639" stop-opacity="0"/>
</linearGradient>
</defs>
</svg>
