<svg width="24" height="24" viewBox="0 0 24 24" fill="none" xmlns="http://www.w3.org/2000/svg">
<path d="M15.9622 12.4484C17.15 11.6079 18.0394 10.4115 18.5018 9.03221C18.9643 7.65295 18.9757 6.16239 18.5345 4.7762C18.0933 3.39 17.2223 2.18006 16.0476 1.32143C14.8729 0.462795 13.4554 0 12.0001 0C10.5448 0 9.12727 0.462795 7.95256 1.32143C6.77784 2.18006 5.90688 3.39 5.46568 4.7762C5.02447 6.16239 5.03591 7.65295 5.49834 9.03221C5.96076 10.4115 6.85019 11.6079 8.03794 12.4484C5.72171 13.1232 3.68658 14.53 2.23748 16.458C0.788377 18.3861 0.003342 20.7317 0 23.1432C0 23.3705 0.0903058 23.5884 0.251051 23.7491C0.411797 23.9097 0.629814 24 0.857143 24H23.1429C23.3702 24 23.5882 23.9097 23.7489 23.7491C23.9097 23.5884 24 23.3705 24 23.1432C23.9967 20.7317 23.2117 18.3862 21.7626 16.4581C20.3135 14.53 18.2784 13.1232 15.9622 12.4484ZM6.85714 6.86443C6.85714 5.8477 7.15877 4.8538 7.72387 4.00843C8.28898 3.16305 9.09218 2.50415 10.0319 2.11507C10.9716 1.72598 12.0057 1.62418 13.0033 1.82253C14.0009 2.02089 14.9173 2.51049 15.6365 3.22943C16.3558 3.94836 16.8456 4.86434 17.044 5.86153C17.2425 6.85873 17.1406 7.89234 16.7514 8.83168C16.3621 9.77101 15.703 10.5739 14.8572 11.1387C14.0115 11.7036 13.0172 12.0051 12 12.0051C10.6365 12.0035 9.3293 11.4614 8.36517 10.4977C7.40103 9.53399 6.8587 8.22734 6.85714 6.86443ZM1.75286 22.2864C1.96947 19.9459 3.05208 17.7705 4.78881 16.1858C6.52554 14.6012 8.79137 13.7214 11.1429 13.7187H12.8571C15.2086 13.7214 17.4745 14.6012 19.2112 16.1858C20.9479 17.7705 22.0305 19.9459 22.2471 22.2864H1.75286Z" fill="#888888"/>
</svg>
