<svg width="38" height="40" viewBox="0 0 38 40" fill="none" xmlns="http://www.w3.org/2000/svg">
<path d="M33.242 11.4999C33.2156 11.2198 33.1222 10.9513 32.9705 10.7196C32.8187 10.4878 32.6136 10.3004 32.3743 10.1749L19.7076 3.50822C19.4876 3.39236 19.2451 3.33203 18.9991 3.33203C18.7531 3.33203 18.5105 3.39236 18.2905 3.50822L5.62387 10.1749C5.38522 10.3012 5.18071 10.4888 5.02931 10.7204C4.87791 10.952 4.78452 11.2201 4.75779 11.4999C4.74037 11.6782 3.2362 29.4449 18.357 36.5232C18.5591 36.6192 18.7782 36.6688 18.9999 36.6688C19.2215 36.6688 19.4407 36.6192 19.6427 36.5232C34.7635 29.4449 33.2594 11.6799 33.242 11.4999ZM18.9999 33.1616C8.28229 27.7082 7.77562 16.0699 7.8627 12.7249L18.9999 6.86323L30.1291 12.7216C30.1877 16.0366 29.6098 27.7516 18.9999 33.1616Z" fill="#1D7B2A"/>
<path d="M17.4163 20.9768L13.7857 17.1551L11.5469 19.5118L17.4163 25.6901L26.4524 16.1784L24.2135 13.8218L17.4163 20.9768Z" fill="#1D7B2A"/>
</svg>
